<svg xmlns="http://www.w3.org/2000/svg" id="prefix__add-avatar" width="24" height="24" viewBox="0 0 24 24">
    <defs>
        <style>
            .prefix__cls-1{fill:#3737b6}
        </style>
    </defs>
    <path id="prefix__Path_18" d="M10.714 3a3.429 3.429 0 1 0 3.429 3.429A3.427 3.427 0 0 0 10.714 3z" class="prefix__cls-1" data-name="Path 18"/>
    <path id="prefix__Path_71" d="M317.484 617.453A6.576 6.576 0 0 0 315 617a7 7 0 0 0-7 7 1 1 0 0 0 1 1h7.425a10.473 10.473 0 0 1-.575-4.2 6.93 6.93 0 0 1 1.634-3.347z" class="prefix__cls-1" data-name="Path 71" transform="translate(-305 -605)"/>
    <path id="prefix__Rectangle_198" d="M0 0H24V24H0z" data-name="Rectangle 198" style="fill:none"/>
    <path id="prefix__Subtraction_6" d="M-3622-3031a4 4 0 0 1-4-4 4 4 0 0 1 4-4 4 4 0 0 1 4 4 4 4 0 0 1-4 4zm-1.632-4.311a.18.18 0 0 0-.18.18v.541a.177.177 0 0 0 .052.128.18.18 0 0 0 .128.053h1.351v1.352a.18.18 0 0 0 .18.18h.541a.18.18 0 0 0 .18-.18v-1.352h1.352a.181.181 0 0 0 .18-.181v-.541a.177.177 0 0 0-.052-.127.18.18 0 0 0-.129-.053h-1.353v-1.352a.181.181 0 0 0-.18-.181h-.542a.184.184 0 0 0-.181.181v1.352z" class="prefix__cls-1" data-name="Subtraction 6" transform="translate(3638 3052)"/>
</svg>
