<svg xmlns="http://www.w3.org/2000/svg" width="24" height="24" viewBox="0 0 24 24">
    <g id="prefix__chat" transform="translate(-188 -3573)">
        <path id="prefix__Path_398" d="M4 3a2 2 0 0 0-2 2v10.793a.5.5 0 0 0 .852.352L5 14h9a2 2 0 0 0 2-2V5a2 2 0 0 0-2-2zm14 5v4a4 4 0 0 1-4 4H8v1a2 2 0 0 0 2 2h9l2.145 2.145a.5.5 0 0 0 .855-.352V10a2 2 0 0 0-2-2z" data-name="Path 398" transform="translate(188 3573)" style="fill:#3737b6"/>
        <path id="prefix__Rectangle_1014" d="M0 0H24V24H0z" data-name="Rectangle 1014" transform="translate(188 3573)" style="fill:none"/>
    </g>
</svg>
