<svg xmlns="http://www.w3.org/2000/svg" width="24" height="24" viewBox="0 0 24 24">
    <g id="prefix__clap" transform="translate(-255 -485)">
        <path id="prefix__Path_96" d="M10.122 3.059a.9.9 0 0 1 .663.167l3.648 2.7a2.677 2.677 0 0 0-.942.81 1.585 1.585 0 0 0-.267.516l-3.5-2.594a.893.893 0 0 1 .4-1.6zm8.419 1.1a1.52 1.52 0 0 1 .845.3l1.529 6.726a2.851 2.851 0 0 1-.449 2.5l-.948 1.282a4.378 4.378 0 0 0-.153-1.15l-1.52-6.688a1.493 1.493 0 0 0-.44-.757 6.089 6.089 0 0 1 .3-1.743 1.03 1.03 0 0 1 .836-.469zM7.117 6.064a.9.9 0 0 1 .663.167l6.509 4.824a17.474 17.474 0 0 1 .4-3.422 1.173 1.173 0 0 1 1.687-.173l1.529 6.726a2.859 2.859 0 0 1-.449 2.5L15.313 19.6a3.576 3.576 0 0 1-5 .742L3.364 15.2a.894.894 0 1 1 1.062-1.438l2.92 2.166.423-.8-4.247-3.151a.894.894 0 0 1 1.062-1.438l4.032 2.987.423-.8L4.4 9.289a.894.894 0 0 1 1.065-1.435l4.435 3.29.534-.722-3.716-2.755a.892.892 0 0 1-.188-1.25.9.9 0 0 1 .587-.353z" data-name="Path 96" transform="translate(254.962 484.95)" style="fill:#FFFFFF"/>
        <path id="prefix__Rectangle_243" d="M0 0H24V24H0z" data-name="Rectangle 243" transform="translate(255 485)" style="fill:none"/>
    </g>
</svg>
