<svg xmlns="http://www.w3.org/2000/svg" width="24" height="24" viewBox="0 0 24 24">
    <g id="prefix__connect" transform="translate(-90 -430)">
        <g id="prefix__surface1" transform="translate(91.014 431.009)">
            <path id="prefix__Path_1471" d="M19.275 1.992a.672.672 0 0 0-.475.208l-2.77 2.77-1.824-1.827a1.562 1.562 0 0 0-2.2 0L8.753 6.4l-.043-.05a.684.684 0 0 0-.5-.208.69.69 0 0 0-.481 1.186l6.917 6.917a.692.692 0 1 0 .978-.978l-.046-.043 3.253-3.25a1.562 1.562 0 0 0 0-2.2l-1.823-1.826 2.77-2.77a.69.69 0 0 0 .154-.765.682.682 0 0 0-.657-.421zM6.14 8.215a.7.7 0 0 0-.643.432.692.692 0 0 0 .159.757l.046.043-2.561 2.559a1.562 1.562 0 0 0 0 2.2l1.827 1.824L2.2 18.8a.692.692 0 1 0 .978.978l2.77-2.77 1.822 1.825a1.557 1.557 0 0 0 2.2 0l2.559-2.559.043.046a.692.692 0 1 0 .978-.978L6.635 8.425a.7.7 0 0 0-.495-.21z" data-name="Path 1471" style="fill:#3737b6"/>
        </g>
        <path id="prefix__Rectangle_1282" d="M0 0H24V24H0z" data-name="Rectangle 1282" transform="translate(90 430)" style="fill:none"/>
    </g>
</svg>
