<svg xmlns="http://www.w3.org/2000/svg" width="24" height="24" viewBox="0 0 24 24">
    <g id="prefix__tv" transform="translate(-111 -295)">
        <path id="prefix__Path_437" d="M14.7 11a.373.373 0 0 0-.274.126.426.426 0 0 0 0 .584l1.93 2.09a.353.353 0 0 0 .54 0l1.93-2.09a.426.426 0 0 0 0-.584.352.352 0 0 0-.54 0l-1.66 1.8-1.66-1.8A.344.344 0 0 0 14.7 11zm1.925 3.817a37.606 37.606 0 0 0-5.737.432 1.332 1.332 0 0 0-1.094 1.226 35.956 35.956 0 0 0 0 6.867 1.344 1.344 0 0 0 1.094 1.226A39.5 39.5 0 0 0 16.62 25a37.612 37.612 0 0 0 5.738-.432 1.332 1.332 0 0 0 1.094-1.226 34.1 34.1 0 0 0 0-6.867 1.346 1.346 0 0 0-1.094-1.226 39.511 39.511 0 0 0-5.738-.432zM13.4 17.9h2.573a.419.419 0 0 1 0 .836h-.9v2.507a.387.387 0 1 1-.772 0v-2.512h-.9a.419.419 0 0 1 0-.836zm3.841 0a.377.377 0 0 1 .365.235l.939 2.131.939-2.131a.373.373 0 0 1 .516-.198.433.433 0 0 1 .18.557L18.9 21.42a.373.373 0 0 1-.694 0l-1.286-2.925a.433.433 0 0 1 .18-.557.374.374 0 0 1 .145-.038z" data-name="Path 437" transform="translate(106.375 289)" style="fill:#fff"/>
        <path id="prefix__Rectangle_1046" d="M0 0H24V24H0z" data-name="Rectangle 1046" transform="translate(111 295)" style="fill:none"/>
    </g>
</svg>
