<svg xmlns="http://www.w3.org/2000/svg" width="24" height="24" viewBox="0 0 24 24">
    <g id="prefix__videomark-empty" transform="translate(-100 -371)">
        <path id="prefix__Path_459" d="M5 21.294a1 1 0 0 1-1-1V6.5A4.505 4.505 0 0 1 8.5 2h7A4.505 4.505 0 0 1 20 6.5V7h-4a1 1 0 0 0-2 0v13.293a1 1 0 0 1-1.708.707l-2.938-2.939a.5.5 0 0 0-.708 0L5.707 21a1 1 0 0 1-.707.294zM8.5 3A3.5 3.5 0 0 0 5 6.5v13.793l2.939-2.939a1.536 1.536 0 0 1 2.122 0L13 20.293V7a2 2 0 0 1 3.731-1h2.234A3.507 3.507 0 0 0 15.5 3z" data-name="Path 459" transform="translate(100 371)" style="fill:#FFFFFF"/>
        <path id="prefix__Rectangle_1122" d="M0 0H24V24H0z" data-name="Rectangle 1122" transform="translate(100 371)" style="fill:none"/>
    </g>
</svg>
