<svg xmlns="http://www.w3.org/2000/svg" width="24" height="24" viewBox="0 0 24 24">
    <g id="prefix__approval" transform="translate(-76 -374)">
        <path id="prefix__Path_449" d="M19.287 10.352l-.763-.823a2.789 2.789 0 0 1-.7-2.257l.154-1.132a.929.929 0 0 0-.729-1.048l-1.075-.2A2.6 2.6 0 0 1 14.341 3.5l-.514-1.012a.867.867 0 0 0-1.173-.4l-.984.5A2.475 2.475 0 0 1 9.4 2.6l-.984-.5a.866.866 0 0 0-1.173.4l-.509 1A2.594 2.594 0 0 1 4.9 4.9l-1.075.2a.923.923 0 0 0-.729 1.044l.155 1.135a2.786 2.786 0 0 1-.7 2.253l-.763.823a.963.963 0 0 0 0 1.294l.763.823a2.789 2.789 0 0 1 .7 2.257l-.155 1.132a.929.929 0 0 0 .728 1.039l1.075.2a2.6 2.6 0 0 1 1.835 1.392l.514 1.012a.869.869 0 0 0 1.173.4l.984-.5a2.475 2.475 0 0 1 2.265 0l.984.5a.874.874 0 0 0 1.176-.4l.511-1.012a2.6 2.6 0 0 1 1.834-1.392l1.079-.2a.929.929 0 0 0 .726-1.048l-.154-1.132a2.78 2.78 0 0 1 .7-2.257l.759-.823a.963.963 0 0 0 .002-1.288zM9.069 14.335L7.1 12.272A.929.929 0 0 1 7.1 11a.833.833 0 0 1 1.216 0l1.364 1.427L13.622 8.3a.833.833 0 0 1 1.216 0 .929.929 0 0 1 0 1.273l-4.553 4.763a.833.833 0 0 1-1.216-.001z" data-name="Path 449" transform="translate(77.462 375)" style="fill:#3737b6"/>
        <path id="prefix__Rectangle_1057" d="M0 0H24V24H0z" data-name="Rectangle 1057" transform="translate(76 374)" style="fill:none"/>
    </g>
</svg>
