<svg xmlns="http://www.w3.org/2000/svg" width="24" height="24" viewBox="0 0 24 24">
    <g id="prefix__arrow-back" transform="translate(-.486 .011)">
        <path id="prefix__Rectangle_145" d="M0 0H24V24H0z" data-name="Rectangle 145" transform="rotate(90 12.248 12.238)" style="opacity:0;fill:#FFFFFF"/>
        <path id="prefix__Path_24" d="M17.764 10.291H6.881l3.331-3.845a.86.86 0 0 0-.119-1.246.944.944 0 0 0-1.293.117l-4.589 5.292a1.042 1.042 0 0 0-.083.132c0 .044 0 .071-.064.115a.817.817 0 0 0 0 .635c0 .044 0 .071.064.115a1.042 1.042 0 0 0 .083.132L8.8 17.029a.948.948 0 0 0 1.294.115.872.872 0 0 0 .328-.6.859.859 0 0 0-.209-.646l-3.332-3.843h10.883a.883.883 0 1 0 0-1.764z" data-name="Path 24" transform="translate(.67 .989)" style="fill:#f63"/>
    </g>
</svg>
