<svg xmlns="http://www.w3.org/2000/svg" width="24" height="24" viewBox="0 0 24 24">
    <g id="prefix__categories" transform="translate(-350 -3693)">
        <path id="prefix__Union_3" d="M-3365.233 657.511a.362.362 0 0 1-.361-.362v-5.195a.362.362 0 0 1 .361-.362h3.532a.362.362 0 0 1 .362.362v5.195a.362.362 0 0 1-.362.362zm-13.766 0a1 1 0 0 1-1-1 1 1 0 0 1 1-1h10.994a1 1 0 0 1 1 1 1 1 0 0 1-1 1zm8.086-3.918a1 1 0 0 1-1-1 1 1 0 0 1 1-1h2.909a1 1 0 0 1 1 1 1 1 0 0 1-1 1zm5.681-5.676a.361.361 0 0 1-.361-.361v-5.195a.362.362 0 0 1 .361-.362h3.532a.362.362 0 0 1 .362.362v5.195a.361.361 0 0 1-.362.361zm-13.766 0a1 1 0 0 1-1-1 1 1 0 0 1 1-1h10.994a1 1 0 0 1 1 1 1 1 0 0 1-1 1zm8.086-3.917a1 1 0 0 1-1-1 1 1 0 0 1 1-1h2.909a1 1 0 0 1 1 1 1 1 0 0 1-1 1z" data-name="Union 3" transform="translate(3733 3055.245)" style="fill:#ec2927"/>
        <path id="prefix__Rectangle_13" d="M0 0H24V24H0z" data-name="Rectangle 13" transform="translate(350 3693)" style="fill:none"/>
    </g>
</svg>
