<svg xmlns="http://www.w3.org/2000/svg" width="24" height="24" viewBox="0 0 24 24">
    <g id="prefix__download" transform="translate(-226 -3517)">
        <path id="prefix__Rectangle_159" d="M0 0H24V24H0z" data-name="Rectangle 159" transform="translate(226 3517)" style="opacity:0;fill:#FFFFFF"/>
        <path id="prefix__Path_403" d="M6.769 0a1.847 1.847 0 0 0-1.846 1.846v4.923h-2c-.868 0-1.05.139-.308.885l4.058 4.058c1.353 1.353 1.336 1.358 2.692 0L13.4 7.654c.743-.745.5-.885-.288-.885h-2.035V1.846A1.847 1.847 0 0 0 9.231 0zM0 11.692v2.462A1.847 1.847 0 0 0 1.846 16h12.308A1.847 1.847 0 0 0 16 14.154v-2.462h-1.231v2.462a.617.617 0 0 1-.615.615H1.846a.617.617 0 0 1-.615-.615v-2.462z" data-name="Path 403" transform="translate(230 3521)" style="fill:#FFFFFF"/>
    </g>
</svg>
