<svg xmlns="http://www.w3.org/2000/svg" width="24" height="24" viewBox="0 0 24 24">
    <g id="prefix__fast-forward" transform="translate(-95 -306)">
        <path id="prefix__Path_430" d="M4.952 5.123A.989.989 0 0 0 4 6.1v10.04a.981.981 0 0 0 .476.833 1.019 1.019 0 0 0 .524.142 1 1 0 0 0 .452-.1l4.64-3.688v2.813a.981.981 0 0 0 .476.833 1.019 1.019 0 0 0 .523.143 1 1 0 0 0 .452-.1L17.872 12c.3-.286.547-.512.547-.88s-.205-.58-.547-.88l-6.329-5.022a1.016 1.016 0 0 0-.976.048.974.974 0 0 0-.476.833v2.807l-4.64-3.688a1.042 1.042 0 0 0-.499-.095z" data-name="Path 430" transform="translate(95 306.885)" style="fill:#3737b6"/>
        <path id="prefix__Rectangle_1042" d="M0 0H24V24H0z" data-name="Rectangle 1042" transform="translate(95 306)" style="fill:none"/>
    </g>
</svg>
