<svg xmlns="http://www.w3.org/2000/svg" width="24" height="24" viewBox="0 0 24 24">
    <g id="prefix__plus-17" transform="translate(-101 -317)">
        <path id="prefix__Subtraction_4" d="M-3619-3025a7.008 7.008 0 0 1-7-7 7.008 7.008 0 0 1 7-7 7.008 7.008 0 0 1 7 7 7.008 7.008 0 0 1-7 7zm-.937-10l-1.008.112.512 5.24 1.008-.112-.512-5.24zm2.664 0l-.951.376 1.792 4.968h.944l1.8-4.968-.944-.376-1.329 3.68-1.312-3.68zm-6.639 3.312v1.088h.888v-1.088h1.088v-.88h-1.088v-1.088h-.888v1.088H-3625v.88z" data-name="Subtraction 4" transform="translate(3731.999 3361)" style="fill:#FFF"/>
        <path id="prefix__Rectangle_1047" d="M0 0H24V24H0z" data-name="Rectangle 1047" transform="translate(101 317)" style="fill:none"/>
    </g>
</svg>
