<svg xmlns="http://www.w3.org/2000/svg" width="24" height="24" viewBox="0 0 24 24">
    <g id="prefix__plus-7" transform="translate(-153 -317)">
        <path id="prefix__Subtraction_1" d="M-3619-3025a7.008 7.008 0 0 1-7-7 7.008 7.008 0 0 1 7-7 7.008 7.008 0 0 1 7 7 7.008 7.008 0 0 1-7 7zm.848-10l-.953.376 1.793 4.968h.944l1.8-4.968-.943-.376-1.329 3.68-1.311-3.68zm-3.76 3.312v1.088h.887v-1.088h1.088v-.88h-1.088v-1.088h-.887v1.088H-3623v.88z" data-name="Subtraction 1" transform="translate(3783.999 3361)" style="fill:#FFF"/>
        <path id="prefix__Rectangle_1050" d="M0 0H24V24H0z" data-name="Rectangle 1050" transform="translate(153 317)" style="fill:none"/>
    </g>
</svg>
