<svg xmlns="http://www.w3.org/2000/svg" width="24" height="24" viewBox="0 0 24 24">
    <g id="prefix__plus-14" transform="translate(-103 -317)">
        <path id="prefix__Subtraction_3" d="M-3619-3025a7.008 7.008 0 0 1-7-7 7.008 7.008 0 0 1 7-7 7.008 7.008 0 0 1 7 7 7.008 7.008 0 0 1-7 7zm1.944-9.536l-1.008.112.128 1.336a.133.133 0 0 0 .008.056l.368 3.856 1.008-.112-.224-2.352a1.293 1.293 0 0 0 .3.032h2.912v-1.136h-1.5a.478.478 0 0 1-.364-.16.57.57 0 0 1-.148-.4.579.579 0 0 1 .192-.436.487.487 0 0 1 .34-.137.613.613 0 0 1 .124.013 7.29 7.29 0 0 1 .888.3l.448-1.007a1.758 1.758 0 0 0-.236-.116 5.269 5.269 0 0 0-.556-.208 1.853 1.853 0 0 0-.544-.108 1.6 1.6 0 0 0-1.18.492 1.658 1.658 0 0 0-.483 1.2 1.652 1.652 0 0 0 .1.561.5.5 0 0 1-.3-.092.474.474 0 0 1-.131-.3l-.136-1.4zm-2.88.008l-1.008.111.512 5.241 1.008-.112-.512-5.24zm-3.976 3.312v1.088h.888v-1.088h1.088v-.88h-1.088v-1.088h-.888v1.088H-3625v.88z" data-name="Subtraction 3" transform="translate(3733.999 3361)" style="fill:#FFF"/>
        <path id="prefix__Rectangle_1048" d="M0 0H24V24H0z" data-name="Rectangle 1048" transform="translate(103 317)" style="fill:none"/>
    </g>
</svg>
