<svg xmlns="http://www.w3.org/2000/svg" width="24" height="24" viewBox="0 0 24 24">
    <g id="prefix__see-more" transform="translate(-256 -3744)">
        <path id="prefix__Union_4" d="M-3606-2971a1 1 0 0 1 1-1 1 1 0 0 1 1 1 1 1 0 0 1-1 1 1 1 0 0 1-1-1zm-5.333 0a1 1 0 0 1 1-1 1 1 0 0 1 1 1 1 1 0 0 1-1 1 1 1 0 0 1-1-1zm-9.667 1a1 1 0 0 1-1-1 1 1 0 0 1 1-1h5a1 1 0 0 1 1 1 1 1 0 0 1-1 1z" data-name="Union 4" transform="translate(3881 6727)" style="fill:#3737b6"/>
        <path id="prefix__Rectangle_1021" d="M0 0H24V24H0z" data-name="Rectangle 1021" transform="translate(256 3744)" style="fill:none"/>
    </g>
</svg>
