<svg xmlns="http://www.w3.org/2000/svg" width="24" height="24" viewBox="0 0 24 24">
    <g id="prefix__toman" transform="translate(-260 -3774)">
        <path id="prefix__Union_2" d="M-3463.1 603.352a10.781 10.781 0 0 0 1.656-.424.517.517 0 0 0 .336-.52h-.856a1.479 1.479 0 0 1-1.068-.4 1.618 1.618 0 0 1-.468-1.076 1.907 1.907 0 0 1 .373-1.345 1.447 1.447 0 0 1 1.139-.616 1.44 1.44 0 0 1 1.18.484 2.3 2.3 0 0 1 .564 1.363l.048.448h1.6a.792.792 0 0 0 .572-.16c.1-.106.118-.3.043-.568l-.311-1.192.968-.288.336 1.247a1.6 1.6 0 0 1-.232 1.508 1.674 1.674 0 0 1-1.376.588h-1.5a1.865 1.865 0 0 1-.136.8 1.279 1.279 0 0 1-.517.552 3.615 3.615 0 0 1-.851.381q-.48.147-1.3.316zm1.159-3.24a.508.508 0 0 0-.423.22.757.757 0 0 0-.129.516.447.447 0 0 0 .136.324.613.613 0 0 0 .392.1h.743l-.031-.328a1.191 1.191 0 0 0-.228-.633.528.528 0 0 0-.422-.2zm-4.152 2.216l-.9-.464a1.5 1.5 0 0 1-1.176.544h-.088a1.544 1.544 0 0 1-1.208-.408 2.276 2.276 0 0 1-.4-1.409l-.144-3.679 1.008-.049.144 3.728a1.093 1.093 0 0 0 .1.576q.092.1.5.1h.088a.645.645 0 0 0 .6-.312l.591-1.144a1.386 1.386 0 0 1 .8-.7 1.264 1.264 0 0 1 1.028.1 1.485 1.485 0 0 1 .752 1.109 2.275 2.275 0 0 1-.257 1.524 1.113 1.113 0 0 1-.615.544.968.968 0 0 1-.331.059 1.115 1.115 0 0 1-.487-.119zm.185-2.147a.787.787 0 0 0-.337.372l-.2.384.92.464a.094.094 0 0 0 .024.016c.022.011.035.008.04-.008a.023.023 0 0 0 .008-.016 1.4 1.4 0 0 0 .2-.707.517.517 0 0 0-.26-.484.469.469 0 0 0-.223-.062.4.4 0 0 0-.164.04zm8.04-2.292l.648-.656.656.656-.656.648zm-1.6 0l.648-.656.656.656-.656.648zm-8.78-1.552a1.72 1.72 0 0 1-.924-.46 2.3 2.3 0 0 1-.564-.884 3.163 3.163 0 0 1-.156-1.224 5.182 5.182 0 0 1 .3-1.48l.959.375a2.647 2.647 0 0 0-.1 2.084q.383.693 1.488.436c.123-.026.221-.049.292-.068l.252-.064c.1-.024.169-.046.219-.064s.108-.043.172-.072a.839.839 0 0 0 .144-.08 1.089 1.089 0 0 0 .1-.092.316.316 0 0 0 .075-.112.939.939 0 0 0 .036-.136.845.845 0 0 0 .016-.168 1.258 1.258 0 0 0-.016-.192l-.328-2.2 1-.16q.271 1.816.319 2.2a2.445 2.445 0 0 1-.023.916 1.321 1.321 0 0 1-.38.656 2.371 2.371 0 0 1-.68.44 5.819 5.819 0 0 1-.98.308 3.9 3.9 0 0 1-.757.08 2.74 2.74 0 0 1-.46-.04zm-.013-4.592l.736-.743.736.743-.736.736z" data-name="Union 2" transform="translate(3735.512 3189.592)" style="fill:#3737b6"/>
        <path id="prefix__Rectangle_1020" d="M0 0H24V24H0z" data-name="Rectangle 1020" transform="translate(260 3774)" style="fill:none"/>
    </g>
</svg>
