<svg xmlns="http://www.w3.org/2000/svg" width="24" height="24" viewBox="0 0 24 24">
    <g id="prefix__youtube" transform="translate(-235 -395)">
        <path id="prefix__Path_1464" d="M5.026.031l1.242 4.075v2.659h1.046v-2.79L8.513.031H7.467l-.654 2.68h-.066L6.072.031zm4.816 1.635a1.424 1.424 0 0 0-1 .349 1.177 1.177 0 0 0-.37.915V5.5a1.426 1.426 0 0 0 .37 1.024A1.26 1.26 0 0 0 9.8 6.9a1.364 1.364 0 0 0 1-.37 1.36 1.36 0 0 0 .349-1V2.951a1.215 1.215 0 0 0-.37-.915 1.27 1.27 0 0 0-.937-.37zm2.092.131v4.161a1.07 1.07 0 0 0 .174.654.555.555 0 0 0 .479.218 1.043 1.043 0 0 0 .523-.153 2.031 2.031 0 0 0 .545-.458v.545h.915V1.8h-.915v3.77a1.274 1.274 0 0 1-.283.261.514.514 0 0 1-.261.109.234.234 0 0 1-.2-.065.462.462 0 0 1-.044-.261V1.8zm-2.134.74a.452.452 0 0 1 .305.087.33.33 0 0 1 .109.261V5.61a.378.378 0 0 1-.414.414.36.36 0 0 1-.283-.109.418.418 0 0 1-.087-.305V2.886a.337.337 0 0 1 .37-.349zm-.111 5.252c-1.809 0-3.582.014-5.317.087a2.194 2.194 0 0 0-2.2 2.179c-.074.951-.112 1.9-.109 2.855s.035 1.9.109 2.855a2.194 2.194 0 0 0 2.2 2.179c1.735.071 3.508.09 5.317.087s3.585-.016 5.317-.087a2.194 2.194 0 0 0 2.2-2.179c.073-.951.112-1.9.109-2.855s-.035-1.9-.109-2.855a2.194 2.194 0 0 0-2.2-2.179c-1.732-.076-3.506-.09-5.317-.087zm-6.45 1.547h3.2a.113.113 0 0 1 .109.109v.981a.113.113 0 0 1-.109.109h-.977v5.644c0 .057-.03.109-.087.109H4.329a.113.113 0 0 1-.109-.109v-5.645h-.981c-.057 0-.087-.052-.087-.109v-.98c0-.057.03-.109.087-.109zm6.733 0h.937a.113.113 0 0 1 .109.109v1.9a1.272 1.272 0 0 1 .24-.174.986.986 0 0 1 .479-.131.862.862 0 0 1 .741.37 1.653 1.653 0 0 1 .261.981v2.767a1.384 1.384 0 0 1-.24.872.875.875 0 0 1-.719.327 1.152 1.152 0 0 1-.523-.131 1.077 1.077 0 0 1-.24-.153v.109a.113.113 0 0 1-.109.109h-.935a.113.113 0 0 1-.109-.109V9.445a.113.113 0 0 1 .109-.109zm4.75 1.634a1.387 1.387 0 0 1 1.068.414 1.671 1.671 0 0 1 .37 1.155v1.286c0 .057-.052.087-.109.087H14.4v.85a1.026 1.026 0 0 0 .065.479.221.221 0 0 0 .218.109.289.289 0 0 0 .24-.087 1.071 1.071 0 0 0 .065-.5v-.349a.113.113 0 0 1 .109-.109h.959a.113.113 0 0 1 .109.109v.37A1.776 1.776 0 0 1 15.769 16a1.416 1.416 0 0 1-1.111.414 1.3 1.3 0 0 1-1.046-.436 1.776 1.776 0 0 1-.392-1.2v-2.239a1.519 1.519 0 0 1 .414-1.111 1.468 1.468 0 0 1 1.089-.458zm-8.28.13h.915a.113.113 0 0 1 .109.109v3.813a.44.44 0 0 0 .022.2c.005.008.03.044.109.044a.372.372 0 0 0 .2-.087 1.135 1.135 0 0 0 .24-.218V11.21a.113.113 0 0 1 .109-.109h.937c.057 0 .087.052.087.109v4.968c0 .057-.03.109-.087.109h-.941a.113.113 0 0 1-.109-.109v-.283a1.817 1.817 0 0 1-.37.283 1.179 1.179 0 0 1-.588.174.654.654 0 0 1-.567-.261 1.2 1.2 0 0 1-.174-.719V11.21a.113.113 0 0 1 .108-.11zm4.816.937a.4.4 0 0 0-.109.044.513.513 0 0 0-.131.109v3.01a.585.585 0 0 0 .153.131.394.394 0 0 0 .174.044.2.2 0 0 0 .174-.065.533.533 0 0 0 .044-.283v-2.575a.57.57 0 0 0-.065-.327.234.234 0 0 0-.24-.087zm3.443.022a.279.279 0 0 0-.24.087.761.761 0 0 0-.065.392v.392h.588v-.392a.754.754 0 0 0-.065-.392.245.245 0 0 0-.219-.086z" data-name="Path 1464" transform="translate(236.938 397.969)" style="fill:#3737b6"/>
        <path id="prefix__Rectangle_1275" d="M0 0H24V24H0z" data-name="Rectangle 1275" transform="translate(235 395)" style="fill:none"/>
    </g>
</svg>
