<svg xmlns="http://www.w3.org/2000/svg" id="prefix__Group_493" width="24" height="24" data-name="Group 493" viewBox="0 0 24 24">
    <defs>
        <style>
            .prefix__cls-1{fill:#373737}
        </style>
    </defs>
    <g id="prefix__surface1" transform="translate(3 3)">
        <path id="prefix__Path_18" d="M10.714 3a3.429 3.429 0 1 0 3.429 3.429A3.427 3.427 0 0 0 10.714 3zm5.2 9.429a.217.217 0 0 0-.214.191l-.1.867a3.465 3.465 0 0 0-1.115.646l-.8-.348a.215.215 0 0 0-.271.09l-.8 1.393a.214.214 0 0 0 .057.281l.693.512a3.217 3.217 0 0 0 0 1.306l-.693.512a.215.215 0 0 0-.057.281l.8 1.393a.215.215 0 0 0 .271.09l.8-.348a3.463 3.463 0 0 0 1.115.646l.1.867a.214.214 0 0 0 .214.191h1.607a.217.217 0 0 0 .214-.191l.1-.867a3.463 3.463 0 0 0 1.115-.646l.8.348a.215.215 0 0 0 .271-.09l.8-1.393a.214.214 0 0 0-.057-.281l-.693-.512a3.217 3.217 0 0 0 0-1.306l.693-.512a.215.215 0 0 0 .057-.281l-.8-1.393a.215.215 0 0 0-.271-.09l-.8.348a3.465 3.465 0 0 0-1.115-.646l-.1-.867a.214.214 0 0 0-.214-.191zm.8 2.786a1.5 1.5 0 1 1-1.5 1.5 1.5 1.5 0 0 1 1.5-1.501z" class="prefix__cls-1" data-name="Path 18" transform="translate(-3 -3)"/>
        <path id="prefix__Path_71" d="M317.484 617.453A6.576 6.576 0 0 0 315 617a7 7 0 0 0-7 7 1 1 0 0 0 1 1h7.425a10.473 10.473 0 0 1-.575-4.2 6.93 6.93 0 0 1 1.634-3.347z" class="prefix__cls-1" data-name="Path 71" transform="translate(-308 -608)"/>
    </g>
    <path id="prefix__Rectangle_198" d="M0 0H24V24H0z" data-name="Rectangle 198" style="fill:none"/>
</svg>
