<svg width="52" height="24" viewBox="0 0 52 24" fill="none" xmlns="http://www.w3.org/2000/svg">
<path d="M47.7683 7.9979C47.2363 7.3569 44.8933 6.23692 41.4423 5.33592C39.5894 4.8114 37.6813 4.50699 35.7573 4.42893C35.3737 4.41139 34.9898 4.45733 34.6212 4.56492L34.5933 4.57493C34.3664 4.64174 34.1607 4.76613 33.9963 4.93613C33.8319 5.10614 33.7144 5.31593 33.6553 5.5449L33.6393 5.60789C33.3943 6.42689 33.5613 8.88786 34.5063 12.3539C35.4453 15.7959 36.5912 18.1269 37.2372 18.6539L37.2583 18.6728C37.431 18.8335 37.6409 18.949 37.8692 19.0086C38.0975 19.0683 38.337 19.0704 38.5663 19.0149L38.5952 19.0079C39.4142 18.8669 41.5542 17.3939 44.0562 14.8509C46.5762 12.2899 47.9242 10.2258 48.1122 9.39085L48.1302 9.32591C48.1901 9.09796 48.1899 8.85842 48.1296 8.63059C48.0693 8.40276 47.951 8.19436 47.7863 8.02586L47.7683 7.9979ZM46.2913 11.8758L46.2743 11.9049C45.2165 13.2262 43.8907 14.3083 42.3842 15.0799C40.8842 15.9799 38.8042 16.9889 37.7592 16.9889C37.7226 16.9889 37.6869 16.9889 37.6523 16.9889C37.3862 16.983 37.1256 16.9117 36.8937 16.7812C36.6617 16.6508 36.4655 16.4652 36.3223 16.2408C35.7353 15.4208 35.5053 13.0218 35.4863 11.2098C35.3633 9.52164 35.5973 7.82651 36.1732 6.23484L36.1893 6.20689C36.321 5.96949 36.5117 5.77005 36.7429 5.62766C36.974 5.48528 37.238 5.40475 37.5092 5.3939C38.5092 5.2939 40.7093 6.29383 42.2883 7.17783C43.8673 8.06183 45.8612 9.41993 46.2982 10.3299C46.4299 10.5671 46.4984 10.8341 46.4972 11.1053C46.4959 11.3766 46.425 11.6429 46.2913 11.8789" fill="white"/>
<path d="M49.9854 6.24304C49.9855 5.85912 49.8867 5.48167 49.6983 5.14709C49.51 4.81252 49.2387 4.5321 48.9104 4.33301C47.8414 3.56501 44.2544 3 39.9924 3C35.7304 3 32.1424 3.56501 31.0744 4.33301C30.7459 4.53188 30.4744 4.81223 30.2861 5.14685C30.0977 5.48147 29.999 5.85906 29.9994 6.24304C29.9994 6.26504 29.9994 6.28608 29.9994 6.30908C29.9504 7.69708 31.2344 10.9981 33.2994 14.5851C35.4234 18.2851 37.6994 21.1081 38.8994 21.6521C39.2352 21.8334 39.6108 21.9283 39.9924 21.9283C40.374 21.9283 40.7496 21.8334 41.0854 21.6521C42.2854 21.1081 44.5614 18.2801 46.6854 14.5851C48.7484 10.9981 50.0314 7.69708 49.9854 6.30908C49.9854 6.28708 49.9854 6.26604 49.9854 6.24304ZM48.8694 9.51709L48.8564 9.56409C48.5984 10.7191 46.8874 13.064 44.6034 15.384C42.2304 17.796 39.8794 19.549 38.7414 19.755C38.3909 19.8397 38.0249 19.8365 37.676 19.7456C37.3271 19.6547 37.006 19.4789 36.7414 19.234C35.8494 18.497 34.6564 15.8181 33.7654 12.5541C32.9114 9.42208 32.5654 6.5541 32.8994 5.4021L32.9114 5.35205C33.0024 4.99798 33.183 4.67326 33.436 4.4093C33.6889 4.14534 34.0055 3.9511 34.3554 3.84509C35.4394 3.44509 38.3554 3.74509 41.6304 4.59509C44.9054 5.44509 47.5944 6.615 48.3424 7.495C48.5961 7.75818 48.7776 8.08251 48.8692 8.4364C48.9608 8.79029 48.9595 9.16178 48.8654 9.51501" fill="white"/>
<path d="M18.7247 7.99316H17.2497C17.2597 9.33116 17.2497 11.1032 17.2587 12.4422C16.8837 12.4422 12.3387 12.4232 10.7647 12.4602C9.44774 12.4602 8.81575 11.9482 8.81575 10.6142C8.78975 9.79917 8.80374 7.99316 8.80374 7.99316H6.53174C6.25774 8.47116 4.24975 11.9582 3.21875 13.7452H4.93974C5.61274 12.4992 6.65675 10.7242 7.35175 9.51917C7.35175 9.95117 7.35175 10.3845 7.35175 10.8192C7.33317 11.2199 7.40059 11.62 7.54948 11.9926C7.69838 12.3651 7.9253 12.7014 8.21498 12.979C8.50466 13.2566 8.85041 13.4689 9.22897 13.6017C9.60753 13.7346 10.0101 13.7849 10.4097 13.7492C11.3447 13.7572 18.7237 13.7492 18.7237 13.7492C18.7237 13.7492 18.7167 9.81516 18.7237 7.99716" fill="white"/>
<path d="M15.7986 15.1699H14.3496V16.6479H15.7986V18.0979L15.7916 18.1539H17.2776V16.6479H18.7276V15.1699H15.7976H15.7986Z" fill="white"/>
<path d="M21.7986 5H20.3486V6.479H21.7986V7.979H23.2766V6.479C23.2768 6.28483 23.2386 6.09252 23.1644 5.91309C23.0902 5.73365 22.9813 5.57061 22.8441 5.43326C22.7068 5.29591 22.5439 5.18695 22.3645 5.11261C22.1851 5.03827 21.9928 5 21.7986 5Z" fill="white"/>
<path d="M21.7964 8.00098H20.3174V13.752H21.7964V8.00098Z" fill="white"/>
<path d="M2.479 7.99512H1V13.7461H2.479V7.99512Z" fill="white"/>
</svg>
