<?xml version="1.0" encoding="utf-8"?>
<!-- Generator: Adobe Illustrator 24.0.1, SVG Export Plug-In . SVG Version: 6.00 Build 0)  -->
<svg version="1.1" id="Layer_1" xmlns="http://www.w3.org/2000/svg" xmlns:xlink="http://www.w3.org/1999/xlink" x="0px" y="0px"
	 viewBox="0 0 104.7 109.3" style="enable-background:new 0 0 104.7 109.3;" xml:space="preserve">
<style type="text/css">
	.st0{fill:#FFFFFF;}
</style>
<title>play</title>
<g id="Layer_2_1_">
	<g id="Layer_1-2">
		<path class="st0" d="M102.4,48.1c3.3,4,3.2,12.4-0.7,16C89.9,74.7,77.6,82.8,63.5,91c-13.1,7.6-29,13.2-43.6,17.9
			c-4.7,1.5-9.7-1.1-11.2-5.7c0-0.1-0.1-0.2-0.1-0.3C3.9,86,0,69.3,0,53.5C0,38.8,2.3,25.4,8.3,6.1c1.5-4.7,6.3-6.7,11.1-5.9
			C35.3,3,50.7,8.6,64.7,16.7C79.3,25.1,91.4,34.9,102.4,48.1z"/>
	</g>
</g>
</svg>
