<svg xmlns="http://www.w3.org/2000/svg" id="prefix__logo" width="24" height="24" viewBox="0 0 24 24">
    <path id="prefix__Path_59" d="M691.8 278.9a6.845 6.845 0 0 0-2.693-.757 6.545 6.545 0 0 1 .414 3.094 6.586 6.586 0 0 0-1.323-3.726 6.82 6.82 0 0 0-5.698-2.711 6.724 6.724 0 0 0-6.538 6.915 6.566 6.566 0 0 0 .664 2.651 6.741 6.741 0 0 1 2.5-1.895 6.679 6.679 0 0 0-2.606 3 6.578 6.578 0 0 0 .5 6.213 6.853 6.853 0 0 0 9.365 2.075 6.715 6.715 0 0 0 1.974-1.872 6.814 6.814 0 0 1-2.883-1.18 6.854 6.854 0 0 0 3.941.729 6.785 6.785 0 0 0 5.23-3.517 6.622 6.622 0 0 0-2.847-9.019zm-8.8 9.751c-.179.006-.356 0-.533 0a7.077 7.077 0 0 1-.293-7.2c.095-.176.2-.344.3-.509a7.329 7.329 0 0 1 6.432 3.337c.108.168.207.34.3.514a7.3 7.3 0 0 1-6.201 3.855z" data-name="Path 59" transform="translate(-673.954 -272.797)" style="fill:#ec2927"/>
    <path id="prefix__Rectangle_209" d="M0 0H24V24H0z" data-name="Rectangle 209" style="fill:none"/>
</svg>
