<?xml version="1.0" standalone="no"?>
<!DOCTYPE svg PUBLIC "-//W3C//DTD SVG 1.1//EN" "http://www.w3.org/Graphics/SVG/1.1/DTD/svg11.dtd" >
<svg xmlns="http://www.w3.org/2000/svg">
<metadata>Generated by IcoMoon</metadata>
<defs>
<font id="icomoon" horiz-adv-x="1024">
<font-face units-per-em="1024" ascent="960" descent="-64" />
<missing-glyph horiz-adv-x="1024" />
<glyph unicode="&#x20;" horiz-adv-x="512" d="" />
<glyph unicode="&#xe900;" glyph-name="add-avatar" d="M405.333 297.984c173.525 0 320-28.544 320-138.837s-147.413-137.856-320-137.856c-173.525 0-320 28.587-320 138.837s147.371 137.856 320 137.856zM810.667 618.624c5.077-0.034 10.095-1.067 14.775-3.040 4.676-1.973 8.917-4.849 12.484-8.463s6.383-7.894 8.294-12.596c1.911-4.703 2.88-9.736 2.846-14.813v-50.176h51.2c10.091-0.333 19.657-4.578 26.679-11.836 7.019-7.258 10.944-16.96 10.944-27.055s-3.925-19.797-10.944-27.055c-7.023-7.258-16.589-11.503-26.679-11.836h-51.2v-50.219c0-5.043-0.994-10.035-2.923-14.694s-4.757-8.892-8.324-12.459c-3.567-3.567-7.799-6.396-12.459-8.324s-9.651-2.923-14.694-2.923c-5.043 0-10.035 0.994-14.694 2.923s-8.892 4.757-12.459 8.324c-3.567 3.567-6.396 7.799-8.324 12.459s-2.923 9.651-2.923 14.694v50.219h-51.2c-10.091 0.333-19.657 4.578-26.679 11.836-7.019 7.258-10.944 16.96-10.944 27.055s3.925 19.797 10.944 27.055c7.023 7.258 16.589 11.503 26.679 11.836h51.2v50.219c-0.055 10.242 3.947 20.088 11.14 27.382 7.189 7.294 16.977 11.44 27.217 11.53l0.043-0.043zM405.333 831.957c42.543 0.576 84.292-11.514 119.945-34.732s63.595-56.513 80.273-95.653c16.678-39.141 21.342-82.357 13.393-124.154s-28.147-80.284-58.031-110.569c-29.884-30.289-68.096-50.999-109.781-59.511-41.687-8.508-84.962-4.429-124.323 11.725-39.36 16.149-73.028 43.644-96.722 78.98-23.694 35.339-36.343 76.925-36.338 119.471-0.282 28.001 4.978 55.781 15.476 81.741s26.026 49.588 45.691 69.523c19.665 19.935 43.079 35.784 68.894 46.634s53.521 16.487 81.523 16.587v-0.043z" />
<glyph unicode="&#xe901;" glyph-name="add-ios" d="M711.258 21.329h-398.508c-30.607-1.899-61.282 2.389-90.194 12.608s-55.469 26.159-78.083 46.869c-20.593 22.613-36.438 49.126-46.595 77.973s-14.423 59.439-12.541 89.963v398.508c-1.923 30.581 2.32 61.236 12.479 90.144s26.025 55.479 46.657 78.133c22.654 20.631 49.225 36.498 78.133 46.657s59.563 14.403 90.144 12.479h398.081c30.583 1.895 61.239-2.362 90.15-12.519s55.488-26.009 78.17-46.617c20.723-22.606 36.681-49.16 46.908-78.074s14.515-59.593 12.612-90.204v-398.508c0-144.512-82.901-227.413-227.413-227.413zM355.416 483.836c-4.668 0.064-9.301-0.806-13.626-2.564s-8.254-4.365-11.555-7.667c-3.301-3.298-5.907-7.228-7.664-11.554s-2.63-8.96-2.567-13.628c-0.012-9.434 3.702-18.492 10.333-25.203s15.645-10.534 25.080-10.637h120.748v-120.747c0-9.391 3.729-18.398 10.372-25.041 6.639-6.639 15.646-10.372 25.041-10.372 9.391 0 18.398 3.733 25.041 10.372 6.639 6.643 10.372 15.65 10.372 25.041v120.747h121.173c9.229 0.32 17.975 4.211 24.388 10.854 6.417 6.643 10.005 15.518 10.005 24.751 0 9.237-3.588 18.112-10.005 24.755-6.413 6.639-15.159 10.53-24.388 10.85h-121.173v120.364c0 9.392-3.733 18.4-10.372 25.041-6.643 6.641-15.65 10.372-25.041 10.372-9.395 0-18.402-3.731-25.041-10.372-6.643-6.641-10.372-15.649-10.372-25.041v-120.321h-120.748z" />
<glyph unicode="&#xe902;" glyph-name="add-type-ios" d="M308.527 267.093l-29.269 92.587h-151.125l-28.672-92.587h-56.96l127.232 394.24h67.499l128-394.24h-56.704zM140.633 400.299h126.037l-63.317 200.533-62.72-200.533zM594.052 661.333h53.163v-394.24h-53.163v32.256c-8.606-12.245-20.211-22.080-33.702-28.561-13.487-6.485-28.416-9.404-43.354-8.474-26.359-1.741-52.369 6.827-72.533 23.893-8.67 8.619-15.42 18.974-19.801 30.387-4.383 11.413-6.301 23.625-5.629 35.831v114.773c-0.641 12.186 1.309 24.371 5.722 35.746 4.412 11.379 11.188 21.692 19.879 30.259 19.874 17.058 45.628 25.678 71.765 24.021 15.040 1.062 30.097-1.791 43.708-8.281s25.306-16.397 33.946-28.753v141.141zM589.871 352.427v114.773c0.414 7.236-0.858 14.464-3.708 21.129-2.85 6.66-7.202 12.574-12.719 17.271-12.587 9.54-28.13 14.345-43.904 13.568-15.509 0.657-30.754-4.211-43.008-13.739-5.572-4.668-9.98-10.569-12.885-17.229-2.901-6.665-4.215-13.914-3.84-21.171v-114.603c-0.303-7.181 1.050-14.336 3.947-20.911 2.901-6.579 7.27-12.399 12.779-17.020 12.386-9.741 27.866-14.694 43.605-13.952 15.561-0.653 30.831 4.331 43.008 14.037 5.495 4.612 9.86 10.419 12.757 16.981 2.901 6.558 4.258 13.696 3.968 20.864zM904.068 661.333h53.163v-394.24h-53.163v32.256c-8.606-12.245-20.211-22.080-33.702-28.561-13.487-6.485-28.416-9.404-43.354-8.474-26.359-1.741-52.369 6.827-72.533 23.893-8.67 8.619-15.42 18.974-19.802 30.387s-6.302 23.625-5.628 35.831v114.773c-0.64 12.186 1.31 24.371 5.722 35.746 4.412 11.379 11.187 21.692 19.878 30.259 19.874 17.058 45.628 25.678 71.765 24.021 15.040 1.062 30.097-1.791 43.708-8.281s25.306-16.397 33.946-28.753v141.141zM899.887 352.427v114.773c0.414 7.236-0.858 14.464-3.708 21.129-2.85 6.66-7.202 12.574-12.719 17.271-12.604 9.498-28.147 14.255-43.904 13.44-15.509 0.657-30.754-4.211-43.008-13.739-5.572-4.668-9.98-10.569-12.885-17.229-2.901-6.665-4.215-13.914-3.84-21.171v-114.475c-0.303-7.181 1.050-14.336 3.947-20.911 2.901-6.579 7.27-12.399 12.779-17.020 12.442-9.792 28.006-14.746 43.819-13.952 15.441-0.572 30.579 4.407 42.667 14.037 5.517 4.599 9.907 10.402 12.83 16.964 2.918 6.558 4.297 13.705 4.023 20.881z" />
<glyph unicode="&#xe903;" glyph-name="android" d="M363.179 873.941c-2.262-0.242-4.445-0.969-6.4-2.133-3.715-2.639-6.243-6.63-7.042-11.116s0.198-9.105 2.775-12.863l36.779-54.912c-27.808-13.891-52.3-33.607-71.811-57.807s-33.581-52.317-41.256-82.439h471.381c-7.671 30.118-21.734 58.233-41.237 82.432s-43.985 43.917-71.787 57.813l36.779 54.912c2.577 3.757 3.571 8.377 2.773 12.863s-3.324 8.477-7.040 11.116c-3.827 2.493-8.482 3.388-12.962 2.495s-8.435-3.504-11.017-7.274l-40.533-59.733c-58.547 21.328-122.743 21.328-181.291 0l-40.533 59.733c-1.924 2.755-4.619 4.88-7.746 6.109s-6.548 1.509-9.833 0.803zM418.133 737.962c5.063 0 10.014-1.501 14.221-4.314 4.211-2.813 7.492-6.811 9.429-11.489s2.445-9.825 1.459-14.791c-0.99-4.966-3.426-9.527-7.006-13.108s-8.145-6.019-13.109-7.006c-4.966-0.988-10.113-0.481-14.791 1.457s-8.676 5.219-11.489 9.428c-2.813 4.21-4.314 9.16-4.314 14.223 0 6.789 2.697 13.301 7.498 18.102s11.312 7.498 18.102 7.498zM605.867 737.962c5.065 0 10.014-1.501 14.221-4.314 4.211-2.813 7.492-6.811 9.429-11.489s2.445-9.825 1.459-14.791c-0.99-4.966-3.426-9.527-7.006-13.108s-8.145-6.019-13.107-7.006c-4.966-0.988-10.116-0.481-14.793 1.457s-8.678 5.219-11.49 9.428c-2.812 4.21-4.314 9.16-4.314 14.223 0 6.789 2.697 13.301 7.497 18.102 4.804 4.801 11.315 7.498 18.103 7.498zM221.867 618.496c-13.572 0-26.588-5.389-36.189-14.981s-15-22.605-15.011-36.176v-238.933c0-13.581 5.394-26.603 14.996-36.203 9.602-9.604 22.625-14.997 36.204-14.997 5.832 0.064 11.608 1.148 17.067 3.2v334.933c-5.459 2.053-11.235 3.136-17.067 3.2v-0.042zM273.067 618.496v-375.467c0-13.581 5.394-26.603 14.996-36.203 9.602-9.604 22.625-14.997 36.204-14.997h375.467c13.581 0 26.603 5.393 36.203 14.997 9.604 9.6 14.997 22.622 14.997 36.203v375.467h-477.867zM802.133 618.496c-5.833-0.064-11.61-1.147-17.067-3.2v-334.848c7.701-2.88 15.983-3.84 24.137-2.795s15.932 4.062 22.656 8.789c6.724 4.732 12.194 11.025 15.936 18.347 3.742 7.317 5.645 15.441 5.538 23.659v238.933c-0.013 13.571-5.41 26.583-15.010 36.176s-22.618 14.981-36.19 14.981v-0.042zM341.333 157.824v-68.267c0-18.108 7.192-35.469 19.995-48.273 12.803-12.8 30.166-19.994 48.272-19.994 18.103 0 35.469 7.194 48.273 19.994 12.8 12.804 19.994 30.165 19.994 48.273v68.267h-136.533zM546.133 157.824v-68.267c0-18.108 7.194-35.469 19.994-48.273 12.804-12.8 30.17-19.994 48.273-19.994s35.469 7.194 48.273 19.994c12.8 12.804 19.994 30.165 19.994 48.273v68.267h-136.533z" />
<glyph unicode="&#xe904;" glyph-name="approval" d="M885.291 475.652l-32.555 35.115c-11.725 12.885-20.476 28.189-25.638 44.828-5.158 16.64-6.605 34.21-4.228 51.469l6.571 48.299c1.51 10.016-0.87 20.231-6.656 28.547s-14.532 14.101-24.448 16.168l-45.867 8.533c-16.721 3.232-32.474 10.271-46.037 20.57-13.559 10.3-24.567 23.583-32.171 38.822l-21.931 43.179c-2.125 4.444-5.116 8.419-8.798 11.691-3.678 3.273-7.979 5.777-12.638 7.367-4.663 1.589-9.596 2.232-14.507 1.891-4.915-0.342-9.711-1.662-14.106-3.882l-41.984-21.333c-14.933-7.806-31.518-11.926-48.367-12.015s-33.472 3.855-48.486 11.503l-41.985 21.333c-4.396 2.226-9.192 3.55-14.106 3.895s-9.849-0.297-14.512-1.887c-4.663-1.59-8.962-4.097-12.642-7.373s-6.668-7.255-8.788-11.702l-21.717-42.667c-7.55-15.319-18.543-28.683-32.119-39.046s-29.364-17.443-46.132-20.688l-45.867-8.533c-9.913-2.010-18.672-7.757-24.463-16.049s-8.169-18.496-6.641-28.495l6.613-48.427c2.357-17.232 0.905-34.772-4.256-51.381s-13.903-31.885-25.611-44.745l-32.555-35.115c-6.857-7.561-10.655-17.399-10.655-27.605s3.798-20.049 10.655-27.605l32.555-35.115c11.724-12.89 20.475-28.19 25.636-44.83s6.605-34.21 4.23-51.469l-6.613-48.299c-1.407-9.95 1.019-20.066 6.785-28.297 5.766-8.226 14.444-13.961 24.276-16.034l45.867-8.533c16.736-3.221 32.504-10.257 46.082-20.557s24.6-23.586 32.211-38.835l21.931-43.179c2.133-4.437 5.128-8.405 8.811-11.669 3.682-3.268 7.978-5.769 12.636-7.356s9.587-2.231 14.497-1.899c4.911 0.337 9.705 1.647 14.104 3.857l41.985 21.333c14.946 7.689 31.509 11.703 48.32 11.703 16.806 0 33.374-4.015 48.32-11.703l41.984-21.333c4.407-2.202 9.212-3.503 14.131-3.836 4.915-0.333 9.847 0.316 14.515 1.903s8.973 4.083 12.668 7.343c3.695 3.26 6.707 7.223 8.862 11.657l21.803 43.179c7.607 15.241 18.62 28.527 32.192 38.827 13.568 10.3 29.329 17.335 46.059 20.565l46.037 8.533c9.89 2.095 18.607 7.893 24.367 16.205s8.124 18.509 6.609 28.51l-6.571 48.299c-2.402 17.259-0.973 34.833 4.19 51.477s13.931 31.949 25.677 44.821l32.384 35.115c6.797 7.531 10.564 17.314 10.581 27.46s-3.725 19.938-10.496 27.494zM449.323 305.711l-84.012 88.021c-6.903 7.347-10.745 17.050-10.745 27.136 0 10.082 3.843 19.785 10.745 27.136 3.325 3.55 7.342 6.379 11.804 8.311 4.462 1.937 9.274 2.935 14.137 2.935s9.675-0.998 14.137-2.935c4.462-1.933 8.48-4.762 11.804-8.311l58.199-60.885 168.192 176.084c3.324 3.55 7.339 6.38 11.802 8.314s9.276 2.932 14.14 2.932c4.864 0 9.673-0.998 14.135-2.932s8.482-4.764 11.806-8.314c6.912-7.351 10.765-17.065 10.765-27.157s-3.853-19.804-10.765-27.156l-194.261-203.221c-3.328-3.55-7.347-6.374-11.814-8.307-4.463-1.929-9.276-2.923-14.135-2.918-4.864 0.004-9.677 1.007-14.135 2.944-4.463 1.937-8.478 4.77-11.797 8.324z" />
<glyph unicode="&#xe905;" glyph-name="app-update" d="M480.986 789.333c-41.054 0.481-81.798-7.189-119.866-22.567s-72.707-38.157-101.909-67.018c-29.202-28.861-52.386-63.23-68.209-101.116s-23.971-78.534-23.971-119.592c0-41.058 8.148-81.707 23.971-119.595 15.823-37.884 39.007-72.252 68.209-101.116 29.201-28.86 63.84-51.639 101.909-67.017s78.812-23.049 119.866-22.566c14.967 0.115 29.909 1.284 44.715 3.499 30.327-35.511 72.823-58.411 119.164-64.205 46.336-5.794 93.167 5.935 131.302 32.883 38.14 26.948 64.832 67.174 74.842 112.785 10.014 45.611 2.624 93.321-20.723 133.764-23.343 40.444-60.958 70.707-105.459 84.851-44.506 14.144-92.689 11.153-135.1-8.393s-75.989-54.229-94.148-97.25c-18.163-43.025-19.593-91.277-4.011-135.3-3.499 0-7.040-0.597-10.667-0.597-38.98-0.047-77.425 9.088-112.218 26.667-34.793 17.574-64.958 43.098-88.052 74.5s-38.468 67.806-44.877 106.253c-6.409 38.451-3.672 77.871 7.988 115.066s31.916 71.123 59.127 99.034c27.212 27.911 60.614 49.021 97.501 61.622s76.227 16.336 114.827 10.905c38.601-5.431 75.379-19.876 107.358-42.165l-48.469-48.469h155.136v155.136l-62.080-62.080c-53.679 40.329-119.014 62.117-186.155 62.080zM754.052 376.619l43.392-43.392-145.835-145.92-99.285 99.413 43.392 43.392 55.893-55.765 102.443 102.272z" />
<glyph unicode="&#xe906;" glyph-name="arrow-back" d="M855.851 512.512h-569.257l174.249 201.129c4.028 4.608 7.070 9.989 8.947 15.813 1.873 5.825 2.539 11.971 1.954 18.062-0.58 6.091-2.402 11.999-5.346 17.362-2.948 5.364-6.955 10.069-11.785 13.83-9.907 7.84-22.447 11.587-35.031 10.467-12.586-1.119-24.266-7.018-32.637-16.483l-240.043-276.777c-1.592-2.197-3.018-4.506-4.267-6.912 0-2.304 0-3.712-3.371-6.016-2.224-5.261-3.369-10.91-3.369-16.619s1.146-11.362 3.369-16.619c0-2.304 0-3.712 3.371-6.016 1.248-2.406 2.675-4.719 4.267-6.912l240-276.779c8.393-9.429 20.068-15.305 32.643-16.422s25.101 2.603 35.025 10.406c4.8 3.802 8.781 8.529 11.716 13.901 2.931 5.372 4.753 11.281 5.35 17.374 0.567 6.071-0.111 12.194-1.988 17.997s-4.915 11.162-8.934 15.753l-174.121 201.216h569.257c6.225-0.269 12.437 0.725 18.27 2.923 5.828 2.197 11.153 5.551 15.65 9.86s8.077 9.485 10.526 15.215c2.445 5.73 3.703 11.895 3.703 18.125s-1.259 12.395-3.703 18.125c-2.449 5.726-6.029 10.901-10.526 15.211s-9.822 7.663-15.65 9.86c-5.833 2.197-12.045 3.191-18.27 2.927z" />
<glyph unicode="&#xe907;" glyph-name="backward" d="M512 854.656c-104.42-0.049-205.171-38.518-283.051-108.075l-72.533 72.533v-213.333h213.333l-90.539 90.539c61.321 53.078 138.959 83.575 220.011 86.424 81.054 2.849 160.64-22.121 225.536-70.763s111.198-118.024 131.204-196.62c20.011-78.596 12.523-161.673-21.214-235.422-33.741-73.754-91.699-133.739-164.25-169.993-72.546-36.254-155.315-46.592-234.551-29.299-79.238 17.297-150.171 61.184-201.014 124.369-50.843 63.189-78.535 141.871-78.474 222.972 0 9.434-3.747 18.479-10.416 25.148s-15.715 10.415-25.146 10.415c-9.432 0-18.477-3.746-25.146-10.415s-10.416-15.714-10.416-25.148c0-84.386 25.024-166.878 71.906-237.043s113.519-124.851 191.482-157.146c77.962-32.294 163.752-40.742 246.516-24.277 82.765 16.461 158.788 57.097 218.462 116.766 59.669 59.674 100.305 135.697 116.77 218.462 16.461 82.765 8.013 168.555-24.282 246.517s-86.98 144.599-157.146 191.482c-70.165 46.883-152.657 71.907-237.043 71.907zM607.573 557.867c-64.597 0-105.131-48.47-105.131-131.542s40.021-132.48 105.131-132.651c65.109-0.171 104.96 49.877 104.96 132.523 0 83.328-40.533 131.67-104.96 131.67zM374.656 551.040l-63.787-43.478v-54.741l60.331 40.704h3.328v-193.067h63.616v250.582h-63.488zM607.573 508.8c24.32 0 40.533-27.349 40.533-82.517s-16.256-83.627-40.533-83.627c-24.277 0-40.576 28.331-40.576 83.627s16.256 82.56 40.576 82.56v-0.043z" />
<glyph unicode="&#xe908;" glyph-name="bookmark" d="M810.112 21.329c-7.727 0.034-15.305 2.108-21.973 6.016l-276.437 138.155-276.819-138.197c-6.434-3.511-13.621-5.414-20.949-5.547-11.475 0.077-22.451 4.706-30.521 12.864s-12.576 19.183-12.53 30.656v647.553c-1.306 24.243 3.648 48.414 14.385 70.189s26.897 40.42 46.926 54.142c44.463 26.775 95.867 39.767 147.712 37.333h263.124c51.938 2.418 103.437-10.57 148.015-37.333 20.070-13.741 36.314-32.363 47.206-54.113 10.889-21.751 16.064-45.914 15.040-70.217v-647.468c0.085-9.527-2.957-18.816-8.657-26.445-5.705-7.633-13.756-13.18-22.916-15.795-3.759-1.165-7.667-1.771-11.605-1.792zM350.935 616.742c-8.726-0.311-16.992-3.995-23.056-10.278s-9.452-14.674-9.452-23.407c0-8.732 3.388-17.123 9.452-23.406s14.33-9.969 23.056-10.28h321.15c8.73 0.311 16.994 3.997 23.057 10.28s9.451 14.674 9.451 23.406c0 8.732-3.388 17.123-9.451 23.407s-14.327 9.968-23.057 10.278h-321.15z" />
<glyph unicode="&#xe909;" glyph-name="bookmark-empty" d="M783.915 21.333c-11.439 0.124-22.686 2.961-32.811 8.277l-240.256 134.016-237.911-133.461c-7.991-4.343-16.764-7.057-25.811-7.991-9.047-0.93-18.188-0.064-26.897 2.56s-16.812 6.946-23.84 12.719c-7.028 5.773-12.841 12.881-17.105 20.915-5.376 10.377-8.296 21.85-8.534 33.536v593.578c0 120.192 77.995 189.185 213.931 189.185h254.722c136.021 0 214.059-66.177 214.059-181.633v-600.49c0.213-18.662-6.989-36.651-20.032-50.005s-30.852-20.979-49.515-21.205zM510.848 225.451c9.963 0.004 19.763-2.551 28.459-7.424l239.915-133.803c3.797-2.048 13.909 0.896 13.909 8.277v600.491c0 79.573-51.712 119.893-153.6 119.893h-254.722c-153.6 0-153.599-95.873-153.599-127.404v-593.066c0.117-1.626 0.566-3.209 1.321-4.651 1.257-2.031 3.251-3.499 5.565-4.096s4.769-0.277 6.852 0.896l237.612 133.333c8.64 4.864 18.372 7.462 28.288 7.552zM478.626 471.3v70.616h-70.688c-11.605 0-21.125 14.379-21.125 32s9.477 32 21.125 32h70.688v70.604c0 11.605 14.293 21.083 31.957 21.083s32-9.478 32-21.083v-70.604h70.626c11.691 0 21.060-14.379 21.060-32s-9.37-32-21.060-32h-70.626v-70.616c0-11.691-14.379-21.082-32-21.082s-31.957 9.391-31.957 21.082z" />
<glyph unicode="&#xe90a;" glyph-name="calendar" d="M367.872 21.333c-159.147 0-239.872 73.088-239.872 217.173v330.839h768v-330.839c0-144.085-80.811-217.173-240.256-217.173h-287.872zM652.075 230.4c0.060-7.108 2.227-14.037 6.229-19.913 3.998-5.879 9.651-10.436 16.243-13.094 6.592-2.662 13.828-3.311 20.787-1.86s13.329 4.937 18.308 10.010c4.979 5.073 8.341 11.511 9.66 18.496s0.533 14.208-2.253 20.745c-2.786 6.541-7.45 12.109-13.402 15.996s-12.924 5.922-20.032 5.845h-0.341c-9.459-0.166-18.47-4.070-25.067-10.854-6.592-6.788-10.236-15.906-10.133-25.37zM476.672 230.4c0.294-6.916 2.611-13.594 6.665-19.2 4.058-5.611 9.673-9.907 16.149-12.352 6.473-2.449 13.525-2.935 20.275-1.408 6.754 1.523 12.907 5.001 17.698 9.997 4.796 4.996 8.013 11.29 9.263 18.099 1.246 6.805 0.461 13.833-2.249 20.203-2.714 6.366-7.236 11.797-13.009 15.62-5.773 3.819-12.544 5.858-19.465 5.862-9.536-0.29-18.577-4.309-25.186-11.191-6.605-6.886-10.244-16.090-10.142-25.63zM311.468 256.597c-3.375-3.46-6.029-7.561-7.809-12.058s-2.65-9.301-2.56-14.14c0.284-6.895 2.589-13.551 6.627-19.149 4.038-5.594 9.633-9.877 16.087-12.322 6.454-2.441 13.484-2.931 20.215-1.412 6.731 1.523 12.866 4.988 17.643 9.967s7.985 11.255 9.225 18.044c1.24 6.788 0.457 13.79-2.251 20.139s-7.222 11.759-12.98 15.561c-5.759 3.802-12.508 5.828-19.409 5.824-4.62 0-9.193-0.926-13.45-2.718-4.257-1.796-8.113-4.425-11.339-7.735zM652.331 385.242c0.085-12.228 5.013-23.923 13.705-32.525s20.437-13.406 32.661-13.363c12.228 0.043 23.94 4.928 32.572 13.589s13.478 20.39 13.478 32.614c0 12.228-4.847 23.957-13.478 32.619s-20.343 13.551-32.572 13.589c-12.224 0.043-23.97-4.762-32.661-13.363s-13.619-20.297-13.705-32.525v-0.636zM476.544 385.242c0.26-6.921 2.547-13.611 6.579-19.243 4.028-5.632 9.626-9.954 16.090-12.429 6.468-2.475 13.521-2.995 20.279-1.498 6.763 1.498 12.932 4.949 17.745 9.929 4.817 4.975 8.060 11.255 9.335 18.065 1.276 6.805 0.521 13.833-2.167 20.215-2.692 6.383-7.194 11.831-12.958 15.671-5.76 3.844-12.523 5.905-19.447 5.935-9.506-0.286-18.526-4.284-25.126-11.132s-10.261-16.004-10.202-25.515h-0.128zM301.099 385.242c-0.126-9.468 3.504-18.598 10.092-25.395s15.601-10.705 25.065-10.871c4.625 0 9.201 0.926 13.46 2.731 4.259 1.801 8.111 4.442 11.33 7.765 3.387 3.443 6.048 7.531 7.821 12.023 1.774 4.497 2.625 9.297 2.504 14.127 0.102 4.668-0.717 9.306-2.41 13.658-1.693 4.348-4.227 8.32-7.457 11.686-3.23 3.371-7.091 6.067-11.365 7.945-4.273 1.873-8.876 2.884-13.542 2.978h-0.214c-9.517-0.209-18.562-4.19-25.152-11.059s-10.187-16.073-10.004-25.587h-0.129zM895.659 569.175h-59.008v17.068c1.246 30.391-4.873 60.631-17.835 88.148-12.254 23.266-32.273 41.503-56.576 51.542-18.573 7.973-38.285 12.983-58.411 14.848v-31.316c0-4.034-0.794-8.029-2.338-11.756s-3.806-7.114-6.66-9.966c-2.85-2.853-6.238-5.117-9.967-6.66-3.725-1.544-7.718-2.337-11.755-2.337s-8.030 0.794-11.755 2.337c-3.729 1.544-7.113 3.808-9.967 6.66s-5.116 6.239-6.66 9.966c-1.545 3.727-2.338 7.722-2.338 11.756v33.535h-260.82v61.056h261.204v39.509c-0.064 8.147 3.115 15.986 8.832 21.792s13.508 9.102 21.653 9.164c8.149 0.062 15.987-3.115 21.794-8.832 5.803-5.717 9.097-13.506 9.161-21.654v-42.667c19.951-2.050 39.637-6.139 58.752-12.203v0.768c1.186-0.518 2.394-0.975 3.627-1.366l1.92-0.682 2.645-0.982c3.669-1.152 6.997-2.517 10.581-4.010l1.835-0.768c1.677-0.601 3.315-1.298 4.907-2.090l1.536-0.725c3.413-1.451 6.827-3.243 9.131-4.267 1.835-0.877 3.614-1.86 5.333-2.944l2.219-1.28c1.254-0.678 2.466-1.434 3.627-2.262l2.347-1.535c11.115-7.149 21.419-15.49 30.72-24.875l0.299-0.555c3.511-3.508 6.801-7.227 9.856-11.136v-0.725c30.029-41.775 44.911-92.539 42.197-143.914v-16.47l-0.085-0.17zM187.393 569.175h-59.094v16.342c-2.604 51.388 12.335 102.134 42.367 143.914l0.598 0.555c1.749 2.176 3.627 4.267 5.547 6.486l3.883 4.265 0.555 0.555c9.191 9.406 19.409 17.75 30.464 24.875l2.134 1.664c1.292 0.882 2.631 1.694 4.011 2.432l7.296 4.267 4.608 1.834 4.565 2.219 3.244 1.408 3.242 1.366c4.907 2.048 8.96 3.584 12.8 4.779 1.453 0.738 2.985 1.309 4.567 1.706 0.667 0.375 1.366 0.689 2.090 0.939l1.707 0.598v-0.256c18.891 5.917 38.332 9.906 58.026 11.905v42.41c0 8.147 3.238 15.961 8.999 21.722s13.574 8.998 21.721 8.998c8.148 0 15.962-3.236 21.723-8.998s8.997-13.575 8.997-21.722v-134.145c0-8.147-3.236-15.96-8.997-21.721s-13.575-8.998-21.723-8.998c-8.147 0-15.96 3.236-21.721 8.998s-8.999 13.574-8.999 21.721v30.977c-20.216-2.065-40.006-7.156-58.708-15.104-50.432-22.656-73.898-66.987-73.898-139.605v-16.384z" />
<glyph unicode="&#xe90b;" glyph-name="call-us" d="M613.504 711.126c-3.379-25.35 3.366-51.011 18.773-71.424 11.989-20.565 43.691-59.733 35.584-82.048-49.988-120.060-144.030-216.436-262.826-269.355-22.869-8.235-62.208 23.339-83.029 35.2-20.671 15.236-46.427 21.901-71.893 18.603-50.775-26.189-97.437-59.686-138.496-99.413-14.368-12.949-23.667-30.579-26.24-49.749-2.731-64.043 82.603-135.68 103.168-148.139 43.605-31.445 101.632-31.275 171.947 0.512 188.928 76.8 474.112 366.336 553.557 555.99 15.057 29.747 23.445 62.422 24.576 95.744 0.431 26.774-7.782 52.973-23.424 74.709-9.344 16.256-84.437 105.216-150.229 102.869-19.098-2.595-36.689-11.769-49.749-25.941-40.422-40.656-74.688-86.997-101.717-137.557z" />
<glyph unicode="&#xe90c;" glyph-name="cast" d="M192 746.667c-16.974 0-33.253-6.743-45.255-18.745s-18.745-28.281-18.745-45.255v-128h64v128h640v-512h-256v-64h256c16.973 0 33.254 6.741 45.257 18.743s18.743 28.284 18.743 45.257v512c0 16.974-6.741 33.253-18.743 45.255s-28.284 18.745-45.257 18.745h-640zM128 490.667v-64c79.197-0.094 155.554-29.508 214.345-82.573 58.791-53.060 95.85-126.016 104.034-204.787 1.114-10.846 1.651-21.739 1.621-32.64h64c-0.111 101.807-40.606 199.415-112.596 271.403-71.99 71.991-169.596 112.486-271.404 112.597zM128 362.667v-64c50.921 0 99.758-20.228 135.764-56.235s56.236-84.843 56.236-135.765h64c-0.090 67.866-27.091 132.928-75.081 180.919s-113.052 74.991-180.919 75.081zM128 234.667v-128h128c0 33.946-13.486 66.505-37.49 90.509s-56.562 37.491-90.51 37.491z" />
<glyph unicode="&#xe90d;" glyph-name="categories" d="M686.123 21.333c-14.293 0.043-28.437 2.906-41.621 8.422-13.188 5.513-25.156 13.572-35.226 23.718s-18.039 22.174-23.458 35.401c-5.414 13.227-8.171 27.392-8.111 41.685v145.451c-0.098 14.306 2.628 28.489 8.030 41.737s13.372 25.297 23.45 35.452c10.074 10.155 22.059 18.219 35.264 23.723 13.205 5.508 27.366 8.346 41.673 8.358h144.213c14.289-0.055 28.429-2.927 41.609-8.448 13.18-5.525 25.139-13.589 35.2-23.74 10.061-10.146 18.022-22.178 23.433-35.405s8.158-27.388 8.090-41.677v-145.408c0.081-28.851-11.281-56.555-31.599-77.035-20.314-20.484-47.923-32.077-76.774-32.235h-144.171zM193.708 21.333c-28.846 0.171-56.448 11.763-76.761 32.247-20.313 20.48-31.68 48.175-31.612 77.022v145.408c-0.067 14.293 2.683 28.459 8.095 41.69 5.411 13.227 13.377 25.259 23.442 35.409 10.065 10.146 22.032 18.214 35.216 23.731 13.184 5.521 27.327 8.388 41.62 8.439h144.213c14.303-0.017 28.461-2.859 41.66-8.367s25.18-13.572 35.252-23.727c10.072-10.159 18.037-22.204 23.435-35.447 5.402-13.244 8.128-27.426 8.026-41.728v-145.408c0.073-14.293-2.671-28.463-8.081-41.694s-13.376-25.267-23.442-35.418c-10.066-10.15-22.035-18.214-35.222-23.731s-27.332-8.384-41.627-8.427h-144.213zM686.123 510.72c-14.302 0.004-28.463 2.842-41.668 8.341s-25.19 13.559-35.268 23.712c-10.078 10.153-18.044 22.198-23.45 35.442-5.402 13.245-8.128 27.427-8.030 41.731v145.451c-0.068 14.297 2.688 28.466 8.098 41.698 5.414 13.232 13.385 25.266 23.454 35.415s22.042 18.213 35.23 23.73c13.193 5.518 27.341 8.381 41.634 8.425h144.213c28.843-0.169 56.439-11.766 76.749-32.248 20.305-20.482 31.663-48.18 31.582-77.021v-145.451c0.068-14.291-2.684-28.455-8.094-41.682-5.414-13.227-13.38-25.257-23.445-35.401s-22.033-18.204-35.217-23.721c-13.184-5.517-27.324-8.38-41.617-8.422h-144.171zM193.708 510.72c-14.291 0.043-28.433 2.906-41.617 8.422s-25.151 13.577-35.217 23.721c-10.065 10.145-18.032 22.175-23.444 35.401s-8.163 27.391-8.096 41.682v145.451c-0.068 28.846 11.299 56.543 31.612 77.024s47.916 32.076 76.761 32.245h144.213c14.293-0.050 28.436-2.918 41.62-8.438s25.151-13.585 35.216-23.733c10.065-10.149 18.032-22.181 23.442-35.41s8.162-27.395 8.094-41.688v-145.451c0.102-14.3-2.624-28.48-8.026-41.722-5.397-13.242-13.365-25.285-23.437-35.437-10.072-10.15-22.053-18.21-35.252-23.714s-27.357-8.341-41.657-8.354h-144.213z" />
<glyph unicode="&#xe90e;" glyph-name="chat" d="M514.854-21.329h-2.859c-92.63-0.030-183.194 27.379-260.266 78.763-25.684 17.148-49.596 36.817-71.381 58.709-76.737 76.685-124.538 177.583-135.273 285.538s16.26 216.292 76.393 306.588c17.146 25.728 36.813 49.682 58.709 71.509 50.377 50.383 111.565 88.635 178.924 111.856s139.118 30.801 209.842 22.167c70.724-8.635 138.551-33.258 198.345-72.004s109.982-90.595 146.756-151.619c41.766-69.269 64.845-148.188 66.982-229.045s-16.734-160.887-54.78-232.265v-1.451c-3.418-7.808-7.573-15.266-12.416-22.272-3.507-5.227-6.724-10.641-9.643-16.213-6.195-14.562-7.010-30.848-2.304-45.952 12.045-34.803 22.217-70.225 30.464-106.112 0.333-3.132 0.021-6.293-0.917-9.293-0.939-3.004-2.487-5.781-4.544-8.158-3.277-2.684-7.053-4.681-11.115-5.875-4.058-1.195-8.316-1.562-12.523-1.079-37.124 8.585-73.655 19.571-109.355 32.896-5.969 1.988-12.224 3.012-18.517 3.029-9.792-0.004-19.426-2.505-27.989-7.253l-18.261-9.387c-66.074-34.773-139.605-52.988-214.272-53.077zM728.188 507.738c-11.883 0-23.497-3.524-33.374-10.125-9.882-6.605-17.579-15.987-22.127-26.961-4.548-10.978-5.739-23.057-3.418-34.709 2.317-11.657 8.038-22.357 16.439-30.763 8.401-8.401 19.106-14.123 30.758-16.439s23.731-1.126 34.709 3.418c10.978 4.548 20.361 12.25 26.961 22.127 6.601 9.882 10.125 21.495 10.125 33.378-0.013 15.906-6.327 31.159-17.562 42.419-11.238 11.26-26.479 17.609-42.385 17.655h-0.128zM511.996 507.738c-11.883 0.004-23.501-3.511-33.387-10.108-9.886-6.592-17.591-15.974-22.144-26.948-4.553-10.978-5.751-23.057-3.439-34.714 2.317-11.657 8.034-22.366 16.431-30.771 8.401-8.405 19.106-14.131 30.763-16.452 11.652-2.321 23.735-1.135 34.714 3.409 10.978 4.548 20.365 12.245 26.965 22.127 6.605 9.882 10.129 21.495 10.129 33.382-0.021 15.915-6.353 31.177-17.604 42.436s-26.509 17.604-42.428 17.638zM295.591 507.738c-11.876-0.009-23.484-3.537-33.355-10.142-9.872-6.601-17.565-15.983-22.108-26.957-4.543-10.97-5.731-23.044-3.415-34.692s8.032-22.349 16.427-30.75c8.395-8.401 19.091-14.127 30.737-16.448 11.647-2.325 23.721-1.143 34.697 3.392 10.976 4.531 20.362 12.22 26.971 22.089 6.609 9.865 10.146 21.47 10.163 33.348 0.006 7.898-1.545 15.718-4.564 23.019-3.019 7.296-7.446 13.931-13.029 19.516-5.583 5.589-12.212 10.018-19.508 13.043s-15.118 4.582-23.016 4.582z" />
<glyph unicode="&#xe90f;" glyph-name="checkmark" d="M674.513 594.641l-30.592 20.779c-4.049 2.715-9.007 3.726-13.794 2.816-4.791-0.91-9.033-3.669-11.806-7.68l-150.272-221.27-68.948 68.907c-3.471 3.465-8.174 5.406-13.077 5.406s-9.606-1.941-13.077-5.406l-26.24-26.24c-3.455-3.482-5.393-8.192-5.393-13.099s1.939-9.613 5.393-13.099l106.068-106.069c6.323-6.302 14.763-10.027 23.68-10.453 4.51 0.277 8.887 1.617 12.774 3.917s7.172 5.491 9.583 9.31l180.651 266.496c1.365 2.010 2.321 4.271 2.807 6.65 0.491 2.38 0.508 4.833 0.047 7.219s-1.387 4.657-2.726 6.685c-1.335 2.028-3.063 3.771-5.077 5.131z" />
<glyph unicode="&#xe910;" glyph-name="clap" d="M422.36 874.24c11.107 1.618 22.401-1.236 31.404-7.936l172.629-128c-17.668-9.127-32.943-22.281-44.587-38.4-5.743-7.303-10.082-15.607-12.8-24.491l-165.505 122.795c-6.759 4.972-11.889 11.84-14.74 19.731s-3.295 16.452-1.275 24.596c2.020 8.144 6.413 15.505 12.621 21.149s13.953 9.318 22.252 10.556zM820.868 822.058c14.447-0.546 28.395-5.438 40.021-14.037l72.533-319.018c5.833-20.070 6.938-41.216 3.238-61.79-3.699-20.57-12.113-40.004-24.572-56.781l-44.843-60.843c0.021 18.428-2.402 36.779-7.211 54.571l-72.064 317.141c-3.196 13.786-10.449 26.299-20.821 35.925 0.614 28.125 5.329 56.009 13.995 82.773 4.335 6.627 10.223 12.097 17.152 15.933 6.933 3.837 14.694 5.925 22.613 6.083l-0.043 0.043zM280.152 731.733c11.105 1.618 22.399-1.236 31.403-7.936l308.055-228.821c1.045 54.542 7.458 108.849 19.157 162.133 4.595 5.933 10.351 10.871 16.917 14.515 6.562 3.644 13.794 5.918 21.265 6.684 7.467 0.766 15.010 0.008 22.178-2.228 7.164-2.236 13.803-5.903 19.511-10.779l72.533-319.018c5.833-20.1 6.942-41.271 3.243-61.871-3.703-20.595-12.113-40.060-24.576-56.87l-101.717-137.6c-13.218-17.886-29.837-32.986-48.9-44.442-19.063-11.452-40.201-19.029-62.195-22.298-21.999-3.273-44.425-2.167-65.997 3.243-21.568 5.414-41.86 15.027-59.708 28.297l-328.961 243.84c-4.483 3.298-8.271 7.45-11.149 12.215-2.878 4.762-4.79 10.048-5.626 15.552s-0.58 11.115 0.753 16.521c1.334 5.406 3.719 10.492 7.019 14.976 3.3 4.48 7.451 8.269 12.215 11.149s10.049 4.791 15.552 5.628c5.503 0.836 11.117 0.576 16.521-0.755 5.404-1.335 10.493-3.721 14.975-7.019l138.197-102.699 20.011 38.016-201.003 149.333c-9.053 6.665-15.087 16.653-16.775 27.767s1.108 22.443 7.773 31.497c6.665 9.054 16.653 15.087 27.767 16.777 11.114 1.685 22.444-1.109 31.497-7.774l191.061-142.165 20.011 37.845-219.605 163.285c-9.053 6.688-15.078 16.698-16.751 27.828s1.145 22.469 7.833 31.522c6.688 9.053 16.698 15.078 27.828 16.75s22.469-1.145 31.522-7.833l210.005-156.032 25.26 34.133-175.959 130.602c-4.481 3.308-8.265 7.468-11.136 12.24s-4.774 10.064-5.598 15.573c-0.824 5.508-0.554 11.125 0.794 16.529s3.75 10.489 7.066 14.964c6.687 9.003 16.65 15.011 27.733 16.725z" />
<glyph unicode="&#xe911;" glyph-name="clear" d="M877.692 704h-562.262c-14.833 0.004-29.444-3.603-42.572-10.509s-24.377-16.903-32.777-29.129l-149.333-217.387c-3.485-5.082-5.351-11.098-5.351-17.259s1.866-12.177 5.351-17.259l149.333-217.387c8.4-12.224 19.65-22.225 32.777-29.129 13.128-6.908 27.739-10.513 42.572-10.509h562.262c16.154 0.021 31.646 6.447 43.072 17.869 11.43 11.418 17.865 26.901 17.899 43.059v426.667c-0.021 16.163-6.455 31.659-17.882 43.088-11.43 11.43-26.927 17.86-43.089 17.883zM716.369 329.344c2.829-2.829 5.073-6.187 6.605-9.886 1.532-3.695 2.321-7.659 2.321-11.661s-0.789-7.966-2.321-11.661c-1.532-3.699-3.776-7.057-6.605-9.886s-6.191-5.073-9.886-6.605c-3.699-1.532-7.659-2.321-11.661-2.321s-7.966 0.789-11.661 2.321c-3.699 1.532-7.057 3.776-9.886 6.605l-100.352 100.352-100.352-100.352c-2.829-2.829-6.191-5.073-9.886-6.605-3.699-1.532-7.659-2.321-11.661-2.321s-7.966 0.789-11.661 2.321c-3.699 1.532-7.057 3.776-9.886 6.605s-5.075 6.187-6.606 9.886c-1.531 3.695-2.319 7.659-2.319 11.661s0.788 7.966 2.319 11.661c1.531 3.699 3.776 7.057 6.606 9.886l100.352 100.352-100.352 100.395c-5.715 5.714-8.925 13.465-8.925 21.547s3.21 15.832 8.925 21.547c5.713 5.714 13.466 8.925 21.547 8.925s15.834-3.211 21.547-8.925l100.352-100.352 100.352 100.352c2.829 2.83 6.187 5.074 9.886 6.605 3.695 1.532 7.659 2.32 11.661 2.32s7.962-0.788 11.661-2.32c3.695-1.531 7.057-3.776 9.886-6.605s5.073-6.189 6.605-9.886c1.532-3.697 2.321-7.659 2.321-11.661s-0.789-7.964-2.321-11.661c-1.532-3.697-3.776-7.057-6.605-9.886l-100.352-100.352 100.352-100.395z" />
<glyph unicode="&#xe912;" glyph-name="close" d="M780.843 238.549l-59.52-59.392c-2.594-2.603-5.675-4.672-9.067-6.080-3.396-1.412-7.036-2.138-10.709-2.138s-7.313 0.725-10.709 2.138c-3.392 1.408-6.473 3.477-9.067 6.080l-148.693 148.565-148.565-148.565c-2.604-2.607-5.696-4.676-9.1-6.089s-7.054-2.142-10.74-2.142c-3.686 0-7.335 0.73-10.739 2.142s-6.497 3.482-9.101 6.089l-59.52 59.392c-2.608 2.603-4.678 5.696-6.090 9.101s-2.139 7.053-2.139 10.739c0 3.686 0.727 7.334 2.139 10.739s3.482 6.498 6.090 9.101l148.608 148.693-148.608 148.565c-5.227 5.28-8.158 12.41-8.158 19.84s2.932 14.56 8.158 19.84l59.52 59.52c2.604 2.608 5.696 4.678 9.101 6.090s7.054 2.139 10.739 2.139c3.686 0 7.335-0.727 10.74-2.139s6.497-3.482 9.1-6.090l148.565-148.736 148.693 148.693c2.594 2.604 5.675 4.671 9.067 6.082 3.396 1.41 7.036 2.136 10.709 2.136s7.313-0.726 10.709-2.136c3.392-1.411 6.473-3.477 9.067-6.082l59.52-59.349c5.244-5.29 8.183-12.436 8.183-19.883s-2.94-14.593-8.183-19.883l-148.565-148.608 148.608-148.693c2.607-2.607 4.672-5.7 6.080-9.109 1.408-3.405 2.133-7.053 2.129-10.739s-0.738-7.334-2.15-10.739c-1.417-3.401-3.49-6.49-6.101-9.092z" />
<glyph unicode="&#xe913;" glyph-name="close-mini" d="M677.201 322.432l-39.68-39.595c-1.728-1.737-3.785-3.115-6.046-4.053-2.261-0.943-4.689-1.425-7.138-1.425s-4.877 0.482-7.138 1.425c-2.261 0.939-4.318 2.317-6.046 4.053l-99.115 99.072-99.072-99.072c-1.736-1.741-3.797-3.119-6.067-4.062-2.269-0.939-4.702-1.425-7.159-1.425s-4.89 0.486-7.159 1.425c-2.27 0.943-4.332 2.321-6.067 4.062l-39.68 39.595c-1.739 1.737-3.119 3.797-4.060 6.067s-1.426 4.702-1.426 7.159c0 2.458 0.484 4.89 1.426 7.159s2.321 4.331 4.060 6.067l99.072 99.115-99.243 99.072c-3.481 3.522-5.433 8.275-5.433 13.227s1.952 9.705 5.433 13.227l39.68 39.68c1.736 1.739 3.797 3.119 6.067 4.060s4.702 1.425 7.159 1.425c2.457 0 4.89-0.484 7.159-1.425s4.332-2.321 6.067-4.060l99.243-99.157 99.157 99.328c1.728 1.737 3.785 3.114 6.046 4.055s4.689 1.424 7.138 1.424c2.449 0 4.877-0.484 7.138-1.424s4.318-2.318 6.046-4.055l39.68-39.595c3.499-3.531 5.457-8.3 5.457-13.269s-1.958-9.738-5.457-13.269l-99.115-99.242 99.072-99.157c3.499-3.503 5.466-8.252 5.466-13.205s-1.967-9.702-5.466-13.205z" />
<glyph unicode="&#xe914;" glyph-name="connect" d="M865.664 831.957c-3.797-0.063-7.543-0.88-11.021-2.404-3.482-1.524-6.622-3.723-9.246-6.471l-118.187-118.187-77.824 77.952c-12.48 12.381-29.35 19.329-46.933 19.329-17.579 0-34.449-6.947-46.933-19.329l-138.793-138.965-1.835 2.133c-2.764 2.854-6.083 5.112-9.751 6.639s-7.61 2.287-11.582 2.236c-5.869 0.011-11.608-1.732-16.48-5.007s-8.653-7.93-10.859-13.369c-2.206-5.439-2.736-11.413-1.521-17.156s4.118-10.991 8.337-15.071l295.124-295.125c2.705-2.906 5.965-5.235 9.587-6.852s7.531-2.487 11.499-2.556c3.968-0.073 7.906 0.657 11.584 2.142s7.023 3.695 9.826 6.498c2.803 2.807 5.018 6.148 6.502 9.826s2.21 7.62 2.142 11.584c-0.073 3.968-0.943 7.881-2.56 11.503s-3.947 6.882-6.852 9.583l-1.963 1.835 138.795 138.667c12.382 12.48 19.332 29.35 19.332 46.933s-6.95 34.451-19.332 46.933l-77.781 77.909 118.187 118.187c4.262 4.142 7.172 9.476 8.346 15.302s0.555 11.87-1.775 17.338c-2.274 5.502-6.178 10.174-11.191 13.386s-10.889 4.809-16.841 4.576zM305.239 566.442c-5.879-0.031-11.619-1.796-16.499-5.075s-8.684-7.925-10.935-13.357c-2.214-5.447-2.751-11.431-1.542-17.186 1.208-5.756 4.108-11.017 8.326-15.113l1.963-1.835-109.269-109.184c-12.381-12.484-19.328-29.35-19.328-46.933s6.947-34.453 19.328-46.933l77.952-77.824-118.101-118.187c-2.904-2.701-5.234-5.961-6.851-9.583s-2.487-7.535-2.558-11.503c-0.072-3.964 0.657-7.906 2.142-11.584s3.696-7.019 6.501-9.826c2.805-2.803 6.147-5.013 9.825-6.498s7.619-2.214 11.585-2.142c3.966 0.068 7.878 0.939 11.5 2.556s6.882 3.947 9.584 6.852l118.187 118.187 77.739-77.867c12.455-12.433 29.335-19.418 46.933-19.418s34.477 6.985 46.932 19.418l109.184 109.184 1.835-1.963c2.705-2.906 5.965-5.235 9.587-6.852s7.531-2.487 11.499-2.556c3.968-0.073 7.906 0.657 11.584 2.142s7.023 3.695 9.826 6.498c2.803 2.807 5.018 6.148 6.502 9.826s2.21 7.62 2.142 11.584c-0.073 3.968-0.943 7.881-2.56 11.503s-3.947 6.882-6.852 9.583l-295.038 295.125c-2.756 2.812-6.041 5.051-9.665 6.589s-7.517 2.344-11.455 2.371z" />
<glyph unicode="&#xe915;" glyph-name="darkmode" d="M512.038 106.624c-87.994-0.384-172.714 33.344-236.363 94.106s-101.274 143.825-104.971 231.74c-0.172 3.575 0.952 7.091 3.167 9.903s5.37 4.732 8.885 5.402c3.515 0.67 7.155 0.047 10.248-1.754s5.432-4.659 6.586-8.047c14.253-40.188 38.449-76.109 70.333-104.422s70.417-48.094 112.009-57.493c41.591-9.399 84.885-8.115 125.845 3.729 40.964 11.849 78.259 33.873 108.407 64.026 30.153 30.153 52.177 67.447 64.026 108.407s13.129 84.255 3.729 125.846c-9.399 41.591-29.18 80.125-57.493 112.009-28.309 31.884-64.235 56.080-104.422 70.333-3.383 1.154-6.234 3.49-8.034 6.578s-2.423 6.721-1.762 10.233c0.666 3.511 2.573 6.666 5.376 8.884s6.31 3.351 9.882 3.191c90.526-2.048 176.533-39.974 239.095-105.435 62.566-65.461 96.563-153.093 94.515-243.623-2.048-90.526-39.974-176.533-105.434-239.095-65.463-62.562-153.097-96.563-243.622-94.515z" />
<glyph unicode="&#xe916;" glyph-name="discount" d="M420.91 836.907c24.087 24.12 56.756 37.705 90.843 37.777s66.816-13.375 91.004-37.393l31.147-31.104c5.931-5.952 12.979-10.678 20.74-13.906s16.081-4.897 24.486-4.91h43.947c34.048-0.023 66.701-13.553 90.786-37.623s37.636-56.711 37.683-90.761v-43.989c0.026-16.953 6.775-33.204 18.773-45.184l30.72-30.72c23.915-24.064 37.406-56.568 37.568-90.492 0.158-33.924-13.030-66.551-36.715-90.842l-31.573-31.573c-5.952-5.943-10.671-13.001-13.892-20.766-3.221-7.77-4.881-16.094-4.881-24.503v-43.904c-0.034-34.061-13.581-66.718-37.666-90.803s-56.742-37.632-90.803-37.666h-43.947c-16.964-0.004-33.229-6.741-45.227-18.731l-30.72-30.72c-11.93-11.947-26.108-21.41-41.711-27.857-15.603-6.443-32.329-9.737-49.212-9.69-34.005-0.081-66.671 13.244-90.924 37.077l-31.147 31.189c-11.997 11.989-28.265 18.726-45.227 18.731h-43.989c-34.077 0.013-66.755 13.547-90.859 37.636-24.104 24.085-37.661 56.755-37.696 90.833v43.904c-0.075 17.097-6.81 33.485-18.773 45.696l-30.72 30.293c-24.045 24.098-37.585 56.73-37.665 90.769-0.080 34.044 13.306 66.739 37.238 90.949l31.147 31.189c5.996 5.988 10.743 13.107 13.966 20.944s4.857 16.236 4.808 24.71v43.52c0.045 34.065 13.609 66.72 37.713 90.792s56.777 37.592 90.842 37.592h43.947c8.405 0.013 16.725 1.681 24.485 4.91s14.808 7.954 20.742 13.906l30.763 30.72zM621.956 375.68c-7.403 0.043-14.652-2.116-20.821-6.204-6.174-4.083-10.991-9.911-13.841-16.742-2.854-6.831-3.61-14.357-2.176-21.619s4.992-13.931 10.227-19.166c5.231-5.235 11.904-8.794 19.166-10.227s14.788-0.678 21.615 2.176c6.831 2.85 12.659 7.671 16.747 13.841 4.087 6.174 6.246 13.419 6.204 20.821-0.047 9.83-3.972 19.247-10.923 26.197-6.95 6.955-16.367 10.88-26.197 10.923zM647.983 584.32c-6.967 6.946-16.405 10.847-26.24 10.847-9.839 0-19.277-3.901-26.24-10.847l-219.393-219.307c-6.972-7.040-10.884-16.546-10.884-26.453s3.912-19.413 10.884-26.453c3.412-3.507 7.491-6.293 11.998-8.196s9.35-2.884 14.242-2.884c4.893 0 9.735 0.981 14.242 2.884s8.587 4.689 11.999 8.196l219.392 219.264c6.976 7.046 10.889 16.561 10.889 26.475s-3.913 19.429-10.889 26.475zM402.563 594.987c-7.402 0.042-14.649-2.117-20.821-6.203s-10.99-9.914-13.842-16.745c-2.852-6.83-3.609-14.354-2.176-21.616s4.994-13.933 10.228-19.168c5.234-5.235 11.906-8.794 19.168-10.227s14.786-0.678 21.616 2.176c6.831 2.85 12.657 7.671 16.745 13.841 4.087 6.172 6.246 13.42 6.204 20.821-0.102 9.814-4.045 19.197-10.982 26.137-6.941 6.94-16.325 10.883-26.139 10.983z" />
<glyph unicode="&#xe917;" glyph-name="dollar" d="M508.501 253.867c-50.27 0.811-99.434 14.899-142.507 40.832l-24.661-87.168c45.761-26.022 97.378-40.013 150.016-40.661v-81.536h73.003v87.467c41.638 3.337 80.538 22.076 109.103 52.548 28.57 30.477 44.753 70.507 45.393 112.273 0 82.517-45.653 132.48-148.181 171.349-77.653 31.488-110.507 52.821-110.507 90.837 0 31.488 22.827 64.853 86.827 64.853 43.375-0.339 86.025-11.141 124.331-31.488l24.661 85.333c-39.215 19.529-82.359 29.888-126.165 30.293v83.2h-75.008v-87.851c-39.693-3.319-76.737-21.274-103.932-50.378s-42.601-67.277-43.225-107.105c0-86.144 62.165-130.688 158.165-165.845 67.669-25.003 99.669-51.755 99.669-93.483 0-44.501-39.339-73.472-96.981-73.472z" />
<glyph unicode="&#xe918;" glyph-name="download" d="M446.379 874.667c-26.117 0-51.165-10.375-69.632-28.843s-28.843-43.515-28.843-69.632v-262.571h-106.667c-46.293 0-56.021-7.424-16.427-47.189l216.405-216.405c72.192-72.192 71.296-72.533 143.573 0l215.381 216.405c39.595 39.723 26.411 47.189-15.403 47.189h-108.672v262.571c0 26.117-10.377 51.165-28.843 69.632s-43.516 28.843-69.632 28.843h-131.243zM85.333 251.093v-131.285c0-26.116 10.375-51.166 28.843-69.632s43.515-28.843 69.632-28.843h656.384c26.116 0 51.166 10.377 69.632 28.843s28.843 43.516 28.843 69.632v131.285h-65.621v-131.285c-0.021-8.695-3.486-17.028-9.634-23.177s-14.481-9.613-23.177-9.634h-656.427c-8.695 0.021-17.027 3.486-23.176 9.634s-9.612 14.481-9.635 23.177v131.285h-65.664z" />
<glyph unicode="&#xe919;" glyph-name="edit" d="M852.907 151.339c11.58 0 22.69-4.599 30.878-12.791 8.192-8.188 12.791-19.298 12.791-30.878 0-11.584-4.599-22.69-12.791-30.878-8.188-8.192-19.298-12.791-30.878-12.791h-243.627c-11.584 0-22.69 4.599-30.878 12.791-8.192 8.188-12.791 19.294-12.791 30.878 0 11.58 4.599 22.69 12.791 30.878 8.188 8.192 19.294 12.791 30.878 12.791h243.627zM683.947 802.133l62.72-49.963c24.567-18.406 41.877-44.868 48.896-74.752 3.358-15.151 3.23-30.867-0.38-45.961-3.605-15.093-10.594-29.169-20.442-41.165l-374.699-484.821c-8.245-10.688-18.797-19.371-30.87-25.408s-25.352-9.267-38.848-9.451l-149.333-1.835c-3.895-0.030-7.681 1.276-10.731 3.699-3.050 2.419-5.18 5.811-6.037 9.613l-34.133 147.243c-3.082 13.261-3.148 27.046-0.194 40.337 2.953 13.295 8.852 25.754 17.261 36.463l266.027 343.765c2.161 2.605 5.232 4.293 8.591 4.721s6.752-0.436 9.5-2.417l111.872-89.002c3.823-3.119 8.247-5.422 12.992-6.764 4.749-1.343 9.724-1.698 14.613-1.044 10.483 1.365 20.015 6.795 26.534 15.119s9.51 18.876 8.324 29.383c-1.374 10.38-6.34 19.951-14.037 27.050l-108.672 87.168c-3.307 2.636-5.444 6.465-5.956 10.662s0.649 8.428 3.226 11.78l42.112 54.613c9.545 11.858 21.44 21.612 34.935 28.648 13.5 7.035 28.309 11.199 43.494 12.229 15.189 1.030 30.426-1.096 44.749-6.243s27.426-13.207 38.485-23.668z" />
<glyph unicode="&#xe91a;" glyph-name="end" d="M661.333 874.667c-14.14-0.023-27.691-5.649-37.687-15.646s-15.625-23.549-15.646-37.687v-260.011l-378.325 299.989c-10.744 5.219-22.629 7.649-34.559 7.067s-23.522-4.157-33.708-10.395c-10.127-6.014-18.526-14.546-24.38-24.766s-8.964-21.781-9.028-33.559v-703.317c0.101-11.759 3.217-23.3 9.051-33.51s14.191-18.756 24.271-24.815c11.091-6.579 23.756-10.027 36.651-9.984 10.928-0.29 21.772 1.988 31.659 6.656l378.325 299.989v-260.011c0.021-14.144 5.653-27.703 15.663-37.705 10.005-9.997 23.569-15.616 37.713-15.629h160c14.14 0.021 27.691 5.649 37.687 15.646s15.625 23.548 15.646 37.687v746.667c-0.021 14.138-5.649 27.69-15.646 37.687s-23.548 15.623-37.687 15.646h-160z" />
<glyph unicode="&#xe91b;" glyph-name="expand-arrow" d="M490.679 277.333l-227.207 237.943c-4.787 5.073-7.472 11.921-7.472 19.052 0 7.133 2.685 13.977 7.472 19.050l54.572 57.151c2.387 2.505 5.223 4.492 8.344 5.847s6.467 2.054 9.847 2.054c3.379 0 6.726-0.698 9.847-2.054s5.957-3.343 8.344-5.847l136.254-142.818 136.311 143.064c2.377 2.501 5.201 4.486 8.316 5.839 3.11 1.354 6.447 2.051 9.818 2.051 3.366 0 6.703-0.697 9.818-2.051 3.11-1.354 5.935-3.338 8.311-5.839l54.575-57.028c4.809-5.086 7.505-11.954 7.505-19.112s-2.697-14.026-7.505-19.112l-227.149-238.191z" />
<glyph unicode="&#xe91c;" glyph-name="facebook" d="M725.333 810.667c0 5.658-2.249 11.084-6.246 15.085-4.002 4.001-9.429 6.249-15.087 6.249h-106.667c-53.713 2.676-106.3-16.017-146.274-51.993-39.972-35.976-64.082-86.311-67.059-140.007v-115.2h-106.667c-5.658 0-11.084-2.249-15.085-6.246-4.001-4.002-6.249-9.429-6.249-15.087v-110.933c0-5.658 2.248-11.085 6.249-15.083 4-4.002 9.427-6.251 15.085-6.251h106.667v-285.867c0-5.658 2.248-11.085 6.249-15.083 4-4.002 9.427-6.251 15.085-6.251h128c5.658 0 11.085 2.249 15.087 6.251 3.998 3.998 6.246 9.425 6.246 15.083v285.867h111.787c4.745-0.068 9.374 1.446 13.163 4.305 3.785 2.859 6.511 6.899 7.744 11.482l30.72 110.933c0.849 3.153 0.964 6.455 0.333 9.66-0.627 3.204-1.984 6.221-3.964 8.815-1.98 2.598-4.527 4.706-7.445 6.161-2.923 1.459-6.14 2.227-9.404 2.244h-142.933v115.2c1.062 10.561 6.020 20.347 13.909 27.447s18.142 11.005 28.757 10.953h106.667c5.658 0 11.085 2.248 15.087 6.248 3.998 4.001 6.246 9.427 6.246 15.085v110.933z" />
<glyph unicode="&#xe91d;" glyph-name="faq" d="M465.924 832.002c-8.094 0.086-16.119-1.445-23.616-4.502-7.492-3.057-14.298-7.58-20.020-13.302s-10.245-12.529-13.302-20.023c-3.057-7.493-4.588-15.521-4.502-23.613v-245.762c-0.086-8.090 1.445-16.119 4.502-23.612s7.58-14.298 13.302-20.023c5.723-5.722 12.528-10.244 20.020-13.299 7.497-3.059 15.522-4.591 23.616-4.506h240l118.571-103.68c2.782-2.449 6.357-3.814 10.069-3.84 2.159 0.013 4.288 0.508 6.229 1.451 2.705 1.186 5.009 3.132 6.63 5.598 1.621 2.47 2.492 5.359 2.5 8.311v93.867c13.303 3.281 25.101 10.974 33.472 21.82 8.367 10.85 12.813 24.213 12.608 37.914v245.762c0.085 8.092-1.446 16.12-4.501 23.613-3.059 7.493-7.582 14.3-13.303 20.023s-12.531 10.245-20.023 13.302c-7.492 3.057-15.522 4.588-23.612 4.502h-368.64zM634.884 738.391h32.171l36.949-176.64h-27.861l-9.131 46.080h-33.579l-9.131-46.080h-27.819l38.4 176.64zM650.244 709.122c-1.579-12.288-4.693-29.099-6.229-39.851l-7.68-39.851h29.269l-7.68 39.851c-2.927 13.137-5.009 26.448-6.229 39.851h-1.451zM189.443 540.162c-8.092 0.086-16.12-1.445-23.613-4.502-7.493-3.056-14.3-7.578-20.023-13.304-5.722-5.722-10.245-12.527-13.302-20.019s-4.588-15.522-4.502-23.616v-245.76c-0.141-13.658 4.331-26.965 12.694-37.769s20.126-18.466 33.386-21.751v-94.080c0.009-2.953 0.877-5.841 2.499-8.311 1.621-2.466 3.925-4.412 6.632-5.598 1.941-0.943 4.070-1.438 6.229-1.451 3.707 0.038 7.279 1.399 10.069 3.84l118.571 103.68h240.001c8.090-0.085 16.119 1.446 23.612 4.506 7.492 3.055 14.302 7.578 20.023 13.299 5.722 5.726 10.244 12.531 13.303 20.023 3.055 7.492 4.587 15.522 4.501 23.612v199.68h-153.6c-12.139-0.124-24.179 2.176-35.418 6.763s-21.447 11.371-30.030 19.951c-8.583 8.585-15.367 18.795-19.953 30.033s-6.885 23.279-6.76 35.413v15.362h-184.32zM367.534 448c36.821 0 50.901-39.723 50.901-87.381 0-46.080-10.923-72.533-27.861-81.621v-1.451c11.116-4.834 22.515-8.998 34.133-12.459l-9.6-21.589c-13.781 6.101-32 15.488-42.667 21.589-2.373 1.51-4.963 2.645-7.68 3.371-32.299 0-52.309 30.379-52.309 90.24-0.128 52.224 19.712 89.301 55.083 89.301zM366.083 424.96c-18.432 0-24.491-32.043-24.491-64.341 0-36.821 6.059-67.669 24.491-67.669 17.067 0 23.040 30.848 23.040 67.669 0 33.792-6.101 64.341-23.040 64.341z" />
<glyph unicode="&#xe91e;" glyph-name="fast-forward" d="M475.998 149.504c-11.302 0.043-22.4 2.978-32.247 8.533-9.911 5.564-18.266 13.547-24.251 23.211-9.623 15.77-16.411 33.097-20.083 51.2-64.070-41.318-135.623-69.67-210.604-83.456-1.622 0-3.298 0-4.834 0-11.303 0.051-22.4 2.987-32.25 8.533-9.905 5.568-18.236 13.555-24.229 23.211-23.083 31.659-40.823 138.539-42.146 265.685-1.237 123.392 13.562 228.096 34.896 263.509 0.299 0.555 0.639 1.109 0.937 1.706 5.524 9.984 13.533 18.372 23.25 24.352s20.806 9.35 32.208 9.782c35.157 3.968 121.639-26.752 219.687-79.018 3.187 15.116 8.521 29.699 15.834 43.307l0.896 1.706c5.518 9.989 13.531 18.382 23.252 24.363 9.715 5.981 20.826 9.347 32.226 9.771 38.827 4.267 139.857-33.365 249.98-95.659s194.82-129.408 211.332-164.949c5.585-9.997 8.503-21.257 8.503-32.704s-2.918-22.707-8.503-32.704l-1.041-1.707c-18.944-36.779-100.087-103.936-205.559-167.125-104.405-62.507-200.832-102.101-242.688-102.101-1.323 0.427-2.901 0.427-4.565 0.555z" />
<glyph unicode="&#xe91f;" glyph-name="filter" d="M223.189 789.333c-13.923-0.023-27.269-5.563-37.114-15.409s-15.386-23.191-15.409-37.114l236.288-262.571h210.048l236.331 262.571c-0.021 13.923-5.564 27.269-15.407 37.114-9.847 9.845-23.194 15.386-37.116 15.409h-577.621zM406.955 448v-220.715c1.082-15.859 6.573-31.1 15.853-44.006 9.282-12.907 21.98-22.963 36.67-29.039l105.045-42.667c28.928-10.453 52.523 3.072 52.523 32v304.427h-210.091z" />
<glyph unicode="&#xe920;" glyph-name="forward" d="M512 854.656c-84.386 0-166.878-25.024-237.043-71.907s-124.852-113.519-157.145-191.482c-32.294-77.962-40.743-163.752-24.28-246.517s57.099-158.788 116.77-218.462c59.67-59.669 135.695-100.305 218.46-116.766 82.765-16.465 168.555-8.017 246.515 24.277 77.965 32.294 144.602 86.98 191.484 157.146s71.906 152.657 71.906 237.043c0 9.434-3.746 18.479-10.415 25.148s-15.714 10.415-25.148 10.415c-9.434 0-18.479-3.746-25.148-10.415s-10.415-15.714-10.415-25.148c0.188-81.399-27.503-160.405-78.455-223.885-50.953-63.475-122.103-107.597-201.617-125.018-79.509-17.425-162.59-7.104-235.42 29.248s-131.021 96.542-164.892 170.556c-33.872 74.018-41.383 157.397-21.284 236.275s66.596 148.498 131.757 197.28c65.161 48.782 145.059 73.785 226.407 70.851 81.344-2.934 159.232-33.628 220.71-86.977l-90.539-90.539h213.333v213.333l-72.533-72.533c-77.867 69.547-178.603 108.015-283.008 108.075zM607.573 557.867c-64.597 0-105.131-48.47-105.131-131.542s40.021-132.48 105.131-132.651c65.109-0.171 104.96 49.877 104.96 132.523 0 83.328-40.533 131.67-104.96 131.67zM374.656 551.083l-63.787-43.52v-54.741l60.331 40.704h3.328v-193.067h63.616v250.582l-63.488 0.043zM607.573 508.843c24.32 0 40.533-27.349 40.533-82.517s-16.256-83.669-40.533-83.669c-24.277 0-40.533 28.331-40.533 83.627s16.213 82.56 40.533 82.56z" />
<glyph unicode="&#xe921;" glyph-name="fullscreen" d="M197.805 832c-18.471-0.134-36.148-7.531-49.21-20.593s-20.459-30.739-20.593-49.21v-139.648c0-4.583 0.903-9.122 2.657-13.356s4.325-8.082 7.566-11.322c3.241-3.241 7.088-5.812 11.323-7.566s8.773-2.657 13.356-2.657c4.583 0 9.122 0.903 13.356 2.657s8.082 4.325 11.322 7.566c3.241 3.241 5.812 7.088 7.566 11.322s2.657 8.773 2.657 13.356v139.648h139.648c4.583 0 9.122 0.903 13.356 2.657s8.082 4.325 11.322 7.566c3.241 3.241 5.812 7.088 7.566 11.323s2.656 8.773 2.656 13.356c0 4.583-0.903 9.122-2.656 13.356s-4.325 8.081-7.566 11.322c-3.241 3.241-7.088 5.812-11.322 7.566s-8.773 2.657-13.356 2.657h-139.648zM686.554 832c-4.587 0-9.122-0.903-13.359-2.657-4.233-1.754-8.081-4.325-11.324-7.566-3.238-3.241-5.811-7.088-7.565-11.322s-2.654-8.773-2.654-13.356c0-4.583 0.9-9.122 2.654-13.356s4.326-8.082 7.565-11.323c3.243-3.241 7.091-5.812 11.324-7.566 4.237-1.754 8.772-2.657 13.359-2.657h139.648v-139.648c0-9.257 3.674-18.134 10.219-24.679s15.424-10.223 24.683-10.223c9.254 0 18.133 3.677 24.678 10.223s10.223 15.422 10.223 24.679v139.648c-0.137 18.471-7.535 36.148-20.595 49.21s-30.737 20.459-49.207 20.593h-139.648zM162.349 308.907c-9.242-0.192-18.036-4.023-24.467-10.662s-9.983-15.552-9.879-24.794v-139.648c0.134-18.47 7.531-36.147 20.593-49.212 13.062-13.060 30.738-20.459 49.21-20.591h139.648c9.257 0 18.134 3.678 24.679 10.223s10.223 15.424 10.223 24.678c0 9.254-3.677 18.133-10.223 24.678s-15.422 10.223-24.679 10.223h-139.648v139.648c0.069 4.676-0.801 9.318-2.558 13.649-1.757 4.335-4.367 8.269-7.673 11.575s-7.242 5.914-11.575 7.671c-4.333 1.758-8.974 2.628-13.649 2.56zM860.548 308.907c-9.246-0.192-18.039-4.023-24.469-10.662-6.434-6.639-9.984-15.552-9.877-24.794v-139.648h-139.648c-9.259 0-18.138-3.678-24.683-10.223s-10.219-15.424-10.219-24.678c0-9.254 3.674-18.133 10.219-24.678s15.424-10.223 24.683-10.223h139.648c18.47 0.132 36.147 7.531 49.207 20.591 13.060 13.065 20.459 30.741 20.595 49.212v139.648c0.068 4.676-0.802 9.318-2.56 13.649-1.758 4.335-4.365 8.269-7.671 11.575s-7.245 5.914-11.575 7.671c-4.335 1.758-8.977 2.628-13.649 2.56z" />
<glyph unicode="&#xe922;" glyph-name="gift" d="M396.8 832c-30.505-0.157-59.715-12.344-81.285-33.915s-33.758-50.781-33.915-81.285c0.161-13.121 2.601-26.114 7.211-38.4h-160.811v-153.6h38.4v-345.6c0-20.369 8.091-39.902 22.494-54.306s33.937-22.494 54.306-22.494h230.4v422.4h76.8v-422.4h230.4c20.369 0 39.902 8.090 54.306 22.494s22.494 33.937 22.494 54.306v345.6h38.4v153.6h-160.811c4.608 12.286 7.049 25.279 7.211 38.4-0.158 30.505-12.343 59.715-33.916 81.285-21.568 21.571-50.778 33.758-81.284 33.915-28.484-0.161-55.876-10.966-76.8-30.293v0.896l-38.4-38.4-38.4 38.4v-0.896c-20.924 19.327-48.317 30.132-76.8 30.293zM396.8 755.2c7.595 0 15.019-2.252 21.334-6.472s11.238-10.217 14.144-17.233c2.906-7.017 3.665-14.737 2.185-22.186s-5.137-14.291-10.509-19.662c-5.37-5.37-12.213-9.027-19.662-10.509s-15.17-0.721-22.186 2.185c-7.017 2.906-13.014 7.828-17.233 14.143s-6.472 13.739-6.472 21.334c-0.069 5.062 0.877 10.086 2.783 14.776s4.731 8.951 8.311 12.53c3.579 3.58 7.84 6.406 12.53 8.311s9.714 2.851 14.776 2.783zM627.2 755.2c7.595 0 15.019-2.252 21.333-6.472s11.238-10.217 14.144-17.233c2.906-7.017 3.665-14.737 2.185-22.186s-5.137-14.291-10.509-19.662c-5.372-5.37-12.211-9.027-19.661-10.509s-15.172-0.721-22.187 2.185c-7.019 2.906-13.013 7.828-17.233 14.143s-6.473 13.739-6.473 21.334c-0.068 5.062 0.879 10.086 2.782 14.776 1.907 4.69 4.732 8.951 8.311 12.53s7.842 6.406 12.531 8.311c4.689 1.905 9.715 2.851 14.775 2.783z" />
<glyph unicode="&#xe923;" glyph-name="hide" d="M817.963 822.868c5.965 5.572 13.862 8.601 22.020 8.444s15.936-3.488 21.675-9.286c5.743-5.798 8.998-13.606 9.079-21.766 0.077-8.16-3.025-16.029-8.657-21.936l-75.776-76.416c64.981-61.934 116.075-136.961 149.888-220.116 1.651-3.925 2.5-8.141 2.5-12.395 0-4.258-0.849-8.474-2.5-12.395-89.088-209.067-247.723-334.379-424.235-334.379h-0.427c-81.050 0.691-159.831 26.859-225.193 74.795l-80.768-81.493c-2.872-2.94-6.304-5.274-10.092-6.861-3.788-1.591-7.857-2.406-11.966-2.398-4.116-0.060-8.201 0.73-11.997 2.321-3.796 1.596-7.222 3.955-10.062 6.938-5.068 5.141-8.209 11.874-8.893 19.063s1.131 14.396 5.138 20.403l1.237 1.664 615.721 621.311c1.425 1.678 2.846 3.356 4.267 5.035l39.040 39.467zM512.085 815.401c59.337-0.122 117.807-14.228 170.667-41.173l-139.051-140.288c-10.453 1.852-21.043 2.837-31.659 2.944-44.343-0.226-86.781-18.052-117.985-49.56s-48.618-74.117-48.414-118.46c0.103-10.701 1.073-21.372 2.901-31.915l-154.027-155.435c-44.266 52.608-80.236 111.671-106.667 175.147-1.649 3.921-2.498 8.137-2.498 12.395 0 4.254 0.849 8.469 2.498 12.395 89.088 209.364 247.68 333.951 423.807 333.951h0.427zM649.344 563.668l-45.397-45.78c8.183-15.919 12.169-33.664 11.58-51.554-0.585-17.89-5.73-35.332-14.938-50.679-9.212-15.351-22.182-28.096-37.692-37.030s-33.041-13.769-50.94-14.037c-16.819-0.090-33.404 3.955-48.299 11.776l-45.396-45.781c25.057-17.139 54.33-27.081 84.641-28.745s60.497 5.013 87.279 19.302c26.782 14.289 49.135 35.648 64.627 61.751 15.492 26.108 23.535 55.957 23.249 86.315-0.055 33.63-10.044 66.491-28.715 94.463z" />
<glyph unicode="&#xe924;" glyph-name="imdb" d="M183.803 661.333c-12.997 0.237-25.909-2.148-37.964-7.013s-23.005-12.11-32.197-21.301c-9.192-9.192-16.436-20.143-21.301-32.197s-7.25-24.966-7.013-37.964v-229.76c-0.232-12.992 2.158-25.903 7.025-37.952s12.113-22.993 21.305-32.179c9.191-9.19 20.14-16.431 32.192-21.291 12.052-4.864 24.96-7.249 37.953-7.010h656.384c12.996-0.239 25.907 2.146 37.965 7.010 12.053 4.868 23.002 12.113 32.196 21.303 9.19 9.19 16.435 20.143 21.299 32.196 4.868 12.058 7.253 24.969 7.014 37.965v229.717c0.239 12.997-2.146 25.909-7.014 37.964-4.864 12.055-12.109 23.005-21.299 32.197-9.195 9.192-20.143 16.436-32.196 21.301-12.058 4.865-24.969 7.25-37.965 7.013h-656.384zM219.686 573.141h56.405v-236.928h-56.405v236.928zM305.019 573.141h72.619l19.499-111.786 13.355 111.786h78.934v-236.928h-49.237v131.285l-23.595-131.285h-35.883l-22.571 131.285v-131.285h-53.333l0.213 236.928zM518.353 573.141h65.621c20.403 2.586 41.114-0.98 59.477-10.24 5.478-4.169 9.843-9.625 12.706-15.884 2.867-6.259 4.143-13.128 3.721-19.998v-141.525c0.047-6.379-1.417-12.676-4.271-18.381s-7.019-10.65-12.156-14.43c-17.847-10.795-38.733-15.471-59.477-13.312h-65.835l0.213 233.77zM676.22 573.141h59.349v-53.333c10.637 9.903 24.439 15.72 38.955 16.426 9.067 0.18 17.86-3.114 24.58-9.207 6.716-6.089 10.85-14.519 11.558-23.561v-137.429c0.162-4.646-1.007-9.242-3.375-13.239-2.368-4.002-5.828-7.241-9.98-9.331-8.026-3.597-16.841-5.069-25.6-4.267-13.534 2.611-26.897 6.033-40.021 10.24-3.328 3.328-6.144-13.355-6.144-13.355h-49.451l0.128 237.056zM574.673 536.234v-156.928c9.856 0 22.571-0.64 22.571 9.216v138.453c0.085 9.856-12.715 9.216-22.699 9.216l0.128 0.043zM744.913 507.52c-6.528 0-6.144-3.712-6.144-10.24v-117.931c0-6.528 2.816-10.24 6.144-10.24 6.528 0 7.168 3.712 7.168 10.24v117.888c-0.085 6.528-3.925 10.24-7.253 10.24l0.085 0.043z" />
<glyph unicode="&#xe925;" glyph-name="info" d="M512 874.667c-84.386 0-166.878-25.024-237.043-71.906s-124.852-113.519-157.145-191.482c-32.294-77.962-40.743-163.752-24.28-246.516s57.099-158.788 116.77-218.462c59.67-59.669 135.695-100.305 218.46-116.77 82.765-16.461 168.555-8.013 246.515 24.282 77.965 32.294 144.602 86.98 191.484 157.146s71.906 152.657 71.906 237.043c0 56.030-11.038 111.513-32.478 163.278s-52.868 98.801-92.489 138.421c-39.62 39.619-86.656 71.048-138.423 92.49-51.763 21.442-107.247 32.478-163.277 32.478zM554.667 277.333c0-11.315-4.497-22.17-12.497-30.17s-18.854-12.497-30.17-12.497c-11.315 0-22.17 4.497-30.17 12.497s-12.497 18.854-12.497 30.17v213.333c0 11.315 4.497 22.17 12.497 30.17s18.854 12.497 30.17 12.497c11.315 0 22.17-4.497 30.17-12.497s12.497-18.854 12.497-30.17v-213.333zM512 576c-8.439 0-16.687 2.502-23.706 7.191-7.014 4.688-12.484 11.352-15.714 19.148s-4.075 16.375-2.428 24.652c1.647 8.276 5.709 15.879 11.678 21.846s13.568 10.031 21.845 11.677c8.277 1.646 16.858 0.801 24.653-2.428s14.46-8.698 19.149-15.715c4.689-7.017 7.189-15.266 7.189-23.704 0-11.316-4.497-22.168-12.497-30.17s-18.854-12.497-30.17-12.497z" />
<glyph unicode="&#xe926;" glyph-name="instagram" d="M353.835 832c-59.823-0.236-117.127-24.105-159.429-66.406s-66.17-99.606-66.406-159.429v-316.373c0.247-59.814 24.121-117.107 66.421-159.403 42.3-42.291 99.599-66.155 159.414-66.389h316.373c59.814 0.247 117.107 24.119 159.403 66.419 42.291 42.3 66.155 99.601 66.389 159.415v316.331c-0.235 59.823-24.107 117.127-66.406 159.429s-99.605 66.17-159.428 66.406h-316.331zM353.835 762.197h316.373c20.493 0.028 40.789-3.988 59.729-11.817 18.935-7.829 36.143-19.318 50.637-33.809 14.49-14.49 25.975-31.698 33.805-50.636s11.849-39.235 11.819-59.728v-316.373c0.030-20.493-3.989-40.789-11.819-59.729-7.829-18.935-19.315-36.143-33.805-50.633-14.494-14.494-31.701-25.98-50.637-33.809-18.94-7.829-39.236-11.849-59.729-11.819h-316.373c-20.493-0.030-40.79 3.989-59.728 11.819s-36.145 19.315-50.636 33.809c-14.49 14.49-25.98 31.697-33.809 50.633-7.829 18.94-11.845 39.236-11.817 59.729v316.331c-0.034 20.496 3.978 40.798 11.805 59.741s19.315 36.155 33.806 50.65c14.491 14.495 31.7 25.988 50.641 33.82s39.241 11.849 59.738 11.821zM718.208 685.824c-6.251 0-12.361-1.853-17.562-5.325-5.197-3.472-9.25-8.407-11.644-14.182s-3.021-12.129-1.805-18.261c1.216-6.132 4.224-11.765 8.64-16.189s10.048-7.438 16.175-8.663c6.131-1.225 12.489-0.605 18.266 1.782s10.718 6.432 14.195 11.626c3.482 5.193 5.342 11.302 5.35 17.553 0.021 4.164-0.781 8.291-2.364 12.142s-3.913 7.35-6.857 10.295c-2.948 2.944-6.447 5.275-10.295 6.858-3.853 1.583-7.979 2.386-12.143 2.364h0.043zM512 657.451c-41.425 0-81.92-12.284-116.364-35.299s-61.29-55.726-77.143-93.998c-15.853-38.272-20-80.384-11.919-121.015s28.030-77.952 57.322-107.243c29.292-29.291 66.611-49.242 107.242-57.323s82.743-3.934 121.015 11.921c38.272 15.851 70.985 42.697 93.999 77.141s35.298 74.94 35.298 116.365c-0.158 55.501-22.276 108.684-61.521 147.93s-92.429 61.363-147.93 61.521zM512 587.648c27.618 0 54.618-8.19 77.585-23.535 22.963-15.345 40.862-37.154 51.435-62.673 10.569-25.515 13.333-53.594 7.945-80.683s-18.688-51.972-38.217-71.505c-19.533-19.529-44.416-32.828-71.505-38.217s-55.168-2.624-80.683 7.945c-25.519 10.573-47.328 28.471-62.673 51.435-15.345 22.967-23.535 49.967-23.535 77.585-0.079 18.359 3.479 36.557 10.469 53.534s17.273 32.405 30.257 45.388c12.983 12.983 28.411 23.267 45.388 30.257s35.174 10.548 53.534 10.469z" />
<glyph unicode="&#xe927;" glyph-name="ios" d="M844.762 583.552c-28.429-16.921-52.023-40.873-68.514-69.551-16.495-28.681-25.327-61.124-25.651-94.204 1.045-36.617 12.501-72.179 33.024-102.528 20.523-30.345 49.263-54.217 82.859-68.821-13.833-43.29-34.069-84.262-60.032-121.557-34.603-52.565-72.96-105.643-131.2-105.643-55.467 0-75.221 35.072-139.136 35.072-68.608 0-88.021-35.072-140.459-35.072-58.24 0-99.456 55.808-135.893 107.904-54.983 82.53-85.823 178.773-89.045 277.888-2.233 53.466 10.237 106.517 36.053 153.387 17.943 31.516 43.602 57.953 74.568 76.829s66.222 29.568 102.456 31.075c55.808 1.792 105.515-38.4 139.52-38.4 32.683 0 93.867 38.4 162.901 38.4 31.373 0.069 62.276-7.639 89.946-22.433s51.238-36.215 68.604-62.346zM518.575 679.168c-2.466 23.648 0.094 47.549 7.514 70.138s19.529 43.354 35.537 60.934c15.945 18.941 35.593 34.426 57.732 45.504 22.144 11.079 46.315 17.518 71.036 18.922 1.327-24.383-2.176-48.788-10.304-71.815s-20.719-44.223-37.056-62.372c-13.986-19.788-32.7-35.764-54.438-46.473s-45.807-15.81-70.020-14.839z" />
<glyph unicode="&#xe928;" glyph-name="keypad" d="M234.667 832c-16.974 0-33.253-6.743-45.255-18.745s-18.745-28.281-18.745-45.255c0-16.974 6.743-33.253 18.745-45.255s28.281-18.745 45.255-18.745h42.667c16.974 0 33.253 6.743 45.255 18.745s18.745 28.281 18.745 45.255c0 16.974-6.743 33.253-18.745 45.255s-28.281 18.745-45.255 18.745h-42.667zM490.667 832c-16.973 0-33.254-6.743-45.257-18.745s-18.743-28.281-18.743-45.255c0-16.974 6.741-33.253 18.743-45.255s28.284-18.745 45.257-18.745h42.667c16.973 0 33.254 6.743 45.257 18.745s18.743 28.281 18.743 45.255c0 16.974-6.741 33.253-18.743 45.255s-28.284 18.745-45.257 18.745h-42.667zM746.667 832c-16.973 0-33.254-6.743-45.257-18.745s-18.743-28.281-18.743-45.255c0-16.974 6.741-33.253 18.743-45.255s28.284-18.745 45.257-18.745h42.667c16.973 0 33.254 6.743 45.257 18.745s18.743 28.281 18.743 45.255c0 16.974-6.741 33.253-18.743 45.255s-28.284 18.745-45.257 18.745h-42.667zM234.667 618.667c-16.974 0-33.253-6.743-45.255-18.745s-18.745-28.281-18.745-45.255c0-16.974 6.743-33.254 18.745-45.257s28.281-18.743 45.255-18.743h42.667c16.974 0 33.253 6.741 45.255 18.743s18.745 28.283 18.745 45.257c0 16.974-6.743 33.253-18.745 45.255s-28.281 18.745-45.255 18.745h-42.667zM490.667 618.667c-16.973 0-33.254-6.743-45.257-18.745s-18.743-28.281-18.743-45.255c0-16.974 6.741-33.254 18.743-45.257s28.284-18.743 45.257-18.743h42.667c16.973 0 33.254 6.741 45.257 18.743s18.743 28.283 18.743 45.257c0 16.974-6.741 33.253-18.743 45.255s-28.284 18.745-45.257 18.745h-42.667zM746.667 618.667c-16.973 0-33.254-6.743-45.257-18.745s-18.743-28.281-18.743-45.255c0-16.974 6.741-33.254 18.743-45.257s28.284-18.743 45.257-18.743h42.667c16.973 0 33.254 6.741 45.257 18.743s18.743 28.283 18.743 45.257c0 16.974-6.741 33.253-18.743 45.255s-28.284 18.745-45.257 18.745h-42.667zM234.667 405.333c-16.974 0-33.253-6.741-45.255-18.743s-18.745-28.284-18.745-45.257c0-16.973 6.743-33.254 18.745-45.257s28.281-18.743 45.255-18.743h42.667c16.974 0 33.253 6.741 45.255 18.743s18.745 28.284 18.745 45.257c0 16.973-6.743 33.254-18.745 45.257s-28.281 18.743-45.255 18.743h-42.667zM490.667 405.333c-16.973 0-33.254-6.741-45.257-18.743s-18.743-28.284-18.743-45.257c0-16.973 6.741-33.254 18.743-45.257s28.284-18.743 45.257-18.743h42.667c16.973 0 33.254 6.741 45.257 18.743s18.743 28.284 18.743 45.257c0 16.973-6.741 33.254-18.743 45.257s-28.284 18.743-45.257 18.743h-42.667zM746.667 405.333c-16.973 0-33.254-6.741-45.257-18.743s-18.743-28.284-18.743-45.257c0-16.973 6.741-33.254 18.743-45.257s28.284-18.743 45.257-18.743h42.667c16.973 0 33.254 6.741 45.257 18.743s18.743 28.284 18.743 45.257c0 16.973-6.741 33.254-18.743 45.257s-28.284 18.743-45.257 18.743h-42.667zM490.667 192c-16.973 0-33.254-6.741-45.257-18.743s-18.743-28.284-18.743-45.257c0-16.973 6.741-33.254 18.743-45.257s28.284-18.743 45.257-18.743h42.667c16.973 0 33.254 6.741 45.257 18.743s18.743 28.284 18.743 45.257c0 16.973-6.741 33.254-18.743 45.257s-28.284 18.743-45.257 18.743h-42.667z" />
<glyph unicode="&#xe929;" glyph-name="kids-version" d="M401.455 789.291c-2.937-0.128-5.786-1.038-8.254-2.636s-4.464-3.825-5.783-6.452l-14.464-29.013-16.811 17.067c-2.17 2.142-4.89 3.643-7.86 4.337s-6.072 0.555-8.968-0.403c-2.895-0.958-5.469-2.697-7.439-5.024s-3.258-5.155-3.723-8.169l-32.128-209.067c-10.643-10.935-16.873-25.417-17.493-40.661v-6.869c-11.043-11.797-19.634-25.668-25.278-40.811s-8.227-31.253-7.599-47.403c0.627-16.145 4.451-32.009 11.252-46.669s16.442-27.823 28.367-38.729c-0.512-1.92-1.237-3.883-1.621-5.717-3.114-9.476-6.878-18.731-11.264-27.691-5.787-10.214-9.254-21.577-10.155-33.28 0-38.4 60.715-65.707 115.2-76.8 1.109 0 35.925-5.589 49.366-5.589 34.022-0.666 68.028 2.078 101.504 8.192-1.941 3.085-2.782 6.737-2.389 10.364 0.397 3.622 2.005 7.010 4.565 9.604 1.527 1.532 3.345 2.743 5.342 3.571 2.001 0.828 4.143 1.254 6.306 1.254s4.305-0.427 6.302-1.254c2.001-0.828 3.814-2.039 5.346-3.571l33.109-32.981c1.527-1.527 2.743-3.345 3.571-5.346 0.828-1.997 1.254-4.139 1.254-6.302s-0.427-4.305-1.254-6.302c-0.828-2.001-2.044-3.814-3.571-5.346-1.532-1.527-3.345-2.743-5.346-3.571-1.997-0.828-4.139-1.254-6.302-1.254s-4.305 0.427-6.306 1.254c-1.997 0.828-3.814 2.044-5.342 3.571l-8.96 9.003c-41.651-10.889-84.685-15.543-127.701-13.824-10.167 0.081-20.316 0.853-30.379 2.304 2.66-10.138 8.667-19.081 17.047-25.378 8.38-6.293 18.64-9.574 29.119-9.31 0.337-0.508 0.585-1.071 0.725-1.664v-31.787c0-2.163 0.422-4.305 1.25-6.302 0.828-2.001 2.044-3.814 3.571-5.346 1.515-1.553 3.328-2.79 5.329-3.631 1.997-0.845 4.147-1.276 6.319-1.276h98.859c71.296 0 90.88 17.067 95.189 22.613 2.385 2.927 3.682 6.592 3.669 10.368-1.084 36.288 3.849 72.503 14.592 107.179 11.29-0.081 22.332 3.281 31.659 9.643 6.784 5.879 12.087 13.274 15.492 21.581 3.401 8.307 4.8 17.301 4.092 26.249 0.145 11.913-4.284 23.424-12.373 32.171-5.222 5.312-11.605 9.344-18.645 11.776 22.43 123.23 54.558 244.496 96.085 362.667 1.011 2.982 1.139 6.192 0.38 9.247-0.764 3.055-2.389 5.826-4.681 7.984s-5.158 3.611-8.252 4.187c-3.098 0.576-6.293 0.25-9.207-0.938l-22.912-9.003-4.267 21.675c-0.567 2.7-1.805 5.215-3.593 7.316s-4.075 3.722-6.647 4.716c-2.59 1.054-5.41 1.412-8.179 1.038s-5.393-1.467-7.607-3.171l-11.264-8.533-3.797 22.613c-0.469 2.654-1.562 5.158-3.187 7.309-1.621 2.15-3.733 3.886-6.157 5.064-2.441 1.141-5.12 1.66-7.808 1.511s-5.299-0.961-7.595-2.365l-20.395-12.373-4.267 25.6c-0.469 2.834-1.673 5.496-3.486 7.723s-4.177 3.942-6.861 4.977c-2.679 1.034-5.581 1.351-8.422 0.919-2.837-0.431-5.517-1.596-7.77-3.379l-22.741-18.133-9.088 27.051c-0.887 2.652-2.445 5.028-4.523 6.898-2.082 1.869-4.608 3.168-7.339 3.769-2.739 0.649-5.598 0.599-8.311-0.146s-5.197-2.163-7.219-4.12l-17.963-18.133-13.952 23.253c-1.314 2.289-3.166 4.224-5.397 5.636s-4.77 2.26-7.403 2.471c-2.671 0.121-5.333-0.388-7.77-1.485-2.441-1.097-4.587-2.751-6.268-4.83l-18.091-22.528-12.544 20.736c-1.314 2.289-3.166 4.224-5.397 5.636s-4.77 2.26-7.403 2.471c-2.671 0.121-5.333-0.388-7.77-1.485-2.441-1.097-4.587-2.751-6.268-4.83l-18.091-22.528-12.8 20.736c-1.471 2.583-3.629 4.709-6.235 6.14s-5.558 2.112-8.527 1.967zM369.284 509.184c22.587-0.021 44.333-8.567 60.886-23.936-11.874-18.355-18.636-39.548-19.588-61.385-0.952-21.841 3.939-43.541 14.169-62.861h-54.656c-3.333 0.137-6.66-0.397-9.781-1.579s-5.97-2.978-8.378-5.291c-2.408-2.308-4.323-5.082-5.632-8.149s-1.983-6.37-1.983-9.707c0-3.337 0.675-6.639 1.983-9.707s3.224-5.841 5.632-8.149c2.407-2.313 5.257-4.109 8.378-5.291s6.448-1.715 9.781-1.579h30.891c4.368 0 8.557-1.737 11.646-4.826 3.089-3.085 4.823-7.275 4.823-11.644s-1.735-8.559-4.823-11.644c-3.089-3.089-7.278-4.826-11.646-4.826h-30.891c-15.42-0.115-30.255 5.897-41.247 16.713s-17.242 25.553-17.377 40.973c-0.003 3.989 0.426 7.966 1.28 11.861-2.281 1.813-4.446 3.763-6.485 5.845-0.853 0.768-1.536 1.493-2.304 2.304-1.879 1.929-3.659 3.951-5.333 6.059-0.384 0.469-0.725 0.853-1.024 1.28-4.318 5.542-7.97 11.571-10.88 17.963-5.317 11.639-8.067 24.282-8.064 37.077 0.068 24.004 9.641 47.002 26.626 63.962s39.996 26.5 63.998 26.534zM534.063 509.184c17.924 0 35.443-5.316 50.347-15.275 14.903-9.954 26.522-24.111 33.378-40.67 6.861-16.559 8.653-34.782 5.158-52.361-3.499-17.579-12.13-33.724-24.802-46.4-12.676-12.672-28.821-21.303-46.4-24.802-17.579-3.494-35.802-1.702-52.361 5.158-16.559 6.857-30.716 18.475-40.67 33.378-9.958 14.903-15.275 32.422-15.275 50.347 0.034 23.996 9.57 47.002 26.522 63.983 16.951 16.986 39.936 26.564 63.932 26.641h0.171zM360.751 426.624c-3.257 0-6.441-0.964-9.15-2.778-2.708-1.809-4.819-4.382-6.065-7.39s-1.573-6.319-0.937-9.515c0.635-3.196 2.204-6.131 4.507-8.431 2.303-2.304 5.238-3.874 8.433-4.51s6.506-0.307 9.516 0.939c3.009 1.246 5.582 3.358 7.391 6.067 1.809 2.705 2.775 5.892 2.775 9.148-0.011 4.365-1.75 8.546-4.836 11.635-3.086 3.085-7.268 4.821-11.633 4.834zM525.53 410.155c-3.255 0-6.443-0.964-9.152-2.778-2.705-1.809-4.817-4.382-6.063-7.39s-1.574-6.319-0.939-9.515c0.636-3.196 2.206-6.131 4.51-8.431 2.3-2.304 5.235-3.874 8.431-4.51s6.507-0.307 9.515 0.939c3.008 1.246 5.581 3.358 7.39 6.067 1.813 2.705 2.778 5.892 2.778 9.148 0.034 4.373-1.668 8.58-4.732 11.699s-7.236 4.894-11.61 4.941l-0.128-0.171zM667.396 277.888c3.388-0.23 6.746-0.789 10.027-1.664 3.631-0.917 6.985-2.705 9.771-5.205 1.195-1.216 2.095-2.692 2.628-4.314s0.683-3.341 0.444-5.030c0-15.531-3.285-19.115-6.187-21.333-5.73-2.859-12.139-4.083-18.517-3.541-4.267 0.875-8.397 2.308-12.288 4.267-14.848 7.040-21.845 35.499 14.251 37.163l-0.128-0.341z" />
<glyph unicode="&#xe92a;" glyph-name="like" d="M513.498 42.325l-11.051 6.827c-97.828 60.762-188.945 131.712-271.828 211.669-57.356 57.984-101.209 127.915-128.427 204.8-24.356 73.425-22.197 153.067 6.101 225.066 14.18 35.49 36.016 67.413 63.953 93.492s61.289 45.671 97.669 57.377c12.306 4.26 25.015 7.248 37.93 8.917h5.12c11.866 1.748 23.847 2.604 35.841 2.56h4.692c26.597-0.78 52.928-5.525 78.122-14.080h2.517c1.417-0.631 2.714-1.496 3.84-2.56 9.314-2.795 18.321-6.527 26.88-11.137l16.213-7.211c4.228-2.433 8.286-5.14 12.16-8.105 2.432-1.792 4.523-3.286 6.187-4.267l1.749-1.025c3.836-2.115 7.526-4.48 11.051-7.082 46.498 35.956 103.612 55.464 162.389 55.466h1.877c26.953 0.178 53.751-4.015 79.36-12.416 36.139-11.613 69.252-31.095 96.956-57.043s49.306-57.715 63.258-93.016c27.87-72.015 30.204-151.41 6.613-224.938-26.871-77.167-70.75-147.307-128.384-205.227-82.436-79.765-172.983-150.694-270.165-211.627l-10.667-6.4 0.043-0.043zM722.863 719.957c-7.113-0.068-14.033-2.33-19.81-6.477-5.781-4.146-10.146-9.975-12.489-16.691-2.854-8.655-2.223-18.083 1.758-26.28 3.985-8.197 11.008-14.519 19.575-17.623 13.495-5.233 25.084-14.439 33.237-26.4 8.149-11.96 12.48-26.113 12.416-40.587v-1.28c-0.841-9.536 2.069-19.025 8.107-26.453 6.174-7.152 14.903-11.595 24.32-12.374 8.623 0.311 16.828 3.791 23.049 9.773 6.217 5.983 10.014 14.049 10.658 22.654v5.076c0.725 29.019-7.535 57.552-23.65 81.696s-39.3 42.716-66.377 53.175c-3.473 1.191-7.121 1.796-10.795 1.792z" />
<glyph unicode="&#xe92b;" glyph-name="like-empty" d="M500.774 11.861c-5.636-0.064-11.179 1.412-16.038 4.267l-10.112 6.016h-0.341c-92.529 56.798-178.548 123.571-256.515 199.125-57.13 56.806-100.62 125.841-127.19 201.899-47.275 147.156 5.035 331.092 174.080 385.449 39.126 12.535 80.521 16.358 121.281 11.198 40.761-5.159 79.895-19.173 114.664-41.062 34.722 21.788 73.779 35.746 114.445 40.904s81.971 1.39 121.033-11.039c169.259-54.357 221.867-238.333 174.933-384.766-26.517-76.271-70.007-145.523-127.189-202.539-78.042-75.601-164.143-142.404-256.764-199.211l-9.732-5.973c-5.005-2.948-10.743-4.429-16.555-4.267zM350.674 760.148c-22.682-0.011-45.222-3.551-66.815-10.495-136.832-43.947-171.138-190.679-133.932-306.389 23.49-66.662 61.751-127.151 111.916-176.939 72.746-70.545 152.848-133.082 238.931-186.539 86.174 53.483 166.374 116.032 239.232 186.581 50.197 50.061 88.405 110.848 111.744 177.792 36.907 114.943 2.389 261.673-134.613 305.663-33.199 10.567-68.442 13.073-102.801 7.308s-66.854-19.634-94.788-40.459c-5.402-4.090-11.994-6.304-18.773-6.304-6.775 0-13.367 2.214-18.773 6.304-37.854 28.287-83.857 43.541-131.113 43.477h-0.214zM736.512 487.808c-8.030-0.004-15.77 3.021-21.67 8.474-5.901 5.449-9.527 12.919-10.163 20.924-1.361 17.083-7.765 33.374-18.398 46.811-10.637 13.437-25.020 23.415-41.331 28.667-4.087 1.219-7.889 3.24-11.179 5.948-3.294 2.708-6.012 6.047-7.996 9.82s-3.196 7.904-3.563 12.151c-0.367 4.248 0.119 8.527 1.434 12.584 1.31 4.057 3.418 7.811 6.199 11.042s6.178 5.872 9.997 7.77c3.819 1.899 7.974 3.017 12.228 3.287s8.521-0.314 12.548-1.716c28.369-9.105 53.389-26.44 71.881-49.802s29.619-51.696 31.966-81.399c0.341-4.186-0.149-8.397-1.438-12.395-1.293-3.994-3.358-7.697-6.080-10.897-2.722-3.196-6.046-5.824-9.783-7.735-3.742-1.911-7.821-3.072-12.006-3.405-0.896-0.085-1.749-0.128-2.645-0.128z" />
<glyph unicode="&#xe92c;" glyph-name="log-out" d="M736 789.333h-426.667c-7.005 0.006-13.943-1.37-20.416-4.048s-12.355-6.607-17.309-11.56c-4.954-4.954-8.881-10.835-11.56-17.309s-4.054-13.411-4.048-20.416v-533.333c-0.006-7.006 1.37-13.943 4.048-20.416s6.607-12.356 11.56-17.31c4.954-4.954 10.835-8.879 17.309-11.558s13.411-4.053 20.416-4.049h426.667c7.006-0.004 13.943 1.37 20.416 4.049s12.356 6.605 17.31 11.558c4.954 4.954 8.879 10.837 11.558 17.31s4.053 13.41 4.049 20.416v533.333c0.004 7.005-1.37 13.943-4.049 20.416s-6.605 12.355-11.558 17.309c-4.954 4.954-10.837 8.882-17.31 11.56s-13.41 4.054-20.416 4.048zM629.333 736c10.547 0 20.86-3.128 29.632-8.988 8.768-5.86 15.603-14.19 19.639-23.936 4.041-9.745 5.094-20.469 3.038-30.814s-7.138-19.849-14.596-27.308c-7.458-7.459-16.964-12.538-27.307-14.596-10.347-2.058-21.069-1.002-30.818 3.035-9.745 4.037-18.074 10.873-23.932 19.643-5.862 8.771-8.99 19.082-8.99 29.63-0.004 7.005 1.37 13.943 4.049 20.416s6.605 12.355 11.558 17.309c4.954 4.954 10.837 8.881 17.31 11.56s13.41 4.054 20.416 4.048zM431.744 288.384c-4.506-3.533-10.021-5.538-15.744-5.717h-106.667c-7.069 0.013-13.845 2.825-18.844 7.825-4.998 4.996-7.812 11.772-7.823 18.842 0.335 6.511 2.901 12.71 7.268 17.549 4.367 4.843 10.268 8.030 16.71 9.033 10.197 2.389 94.251 10.709 94.251 10.709l35.84 38.4 36.267-58.965-41.259-37.675zM629.333 202.667c-4.062 0.051-8.060 1.045-11.669 2.906-3.614 1.856-6.746 4.527-9.152 7.804h-0.299l-130.944 201.472v0.512c-5.009 8.23-7.68 17.673-7.723 27.307 0.051 3.277 0.363 6.545 0.939 9.771v0.725l17.621 108.245-45.227 9.045-65.621-42.88c-4.266-3.055-9.348-4.762-14.592-4.907-7.069 0.013-13.845 2.825-18.844 7.825-4.998 4.996-7.812 11.773-7.823 18.842 0.057 4.357 1.203 8.631 3.334 12.432s5.18 7.008 8.868 9.328l79.701 53.76c4.412 2.839 9.557 4.322 14.805 4.267h106.667c14.106 0 27.631-5.591 37.623-15.548 9.988-9.957 15.62-23.468 15.667-37.572-0.047-3.178-0.363-6.346-0.939-9.472v-1.024l-26.581-133.035 78.848-192.299c0 0 0 0 0-0.299l0.299-0.725c1.212-2.982 1.847-6.17 1.877-9.387 0.051-3.55-0.606-7.074-1.933-10.368s-3.298-6.289-5.798-8.815c-2.5-2.522-5.474-4.518-8.755-5.879-3.281-1.357-6.801-2.048-10.351-2.031zM736 442.667h-80c-4.77-0.034-9.455 1.267-13.525 3.755l-11.051 7.168 16.555 59.733 25.6-17.408h62.421c3.503 0 6.967-0.691 10.206-2.031 3.234-1.34 6.174-3.302 8.649-5.781 2.479-2.475 4.442-5.414 5.781-8.649 1.34-3.238 2.031-6.703 2.031-10.206s-0.691-6.967-2.031-10.206c-1.34-3.234-3.302-6.174-5.781-8.649-2.475-2.479-5.414-4.442-8.649-5.781-3.238-1.34-6.703-2.031-10.206-2.031v0.085z" />
<glyph unicode="&#xe92d;" glyph-name="menu" d="M122.965 704c-20.565 0-37.632-12.8-37.632-28.459v-56.875c0-15.659 17.067-28.459 37.632-28.459h778.069c20.736 0 37.632 12.8 37.632 28.459v56.875c0 15.659-17.067 28.459-37.632 28.459h-778.069zM122.965 504.875c-20.736 0-37.632-12.8-37.632-28.459v-56.875c0-15.659 17.067-28.459 37.632-28.459h778.069c20.736 0 37.632 12.8 37.632 28.459v56.917c0 15.659-17.067 28.459-37.632 28.459l-778.069-0.043zM122.965 305.749c-20.736 0-37.632-12.8-37.632-28.459v-56.875c0-15.659 17.067-28.459 37.632-28.459h778.069c20.736 0 37.632 12.8 37.632 28.459v56.917c0 15.659-17.067 28.459-37.632 28.459l-778.069-0.043z" />
<glyph unicode="&#xe92e;" glyph-name="minus" d="M310.522 415.872c-2.457 0-4.89 0.482-7.161 1.421s-4.334 2.317-6.071 4.053c-1.737 1.737-3.115 3.802-4.054 6.071s-1.422 4.702-1.419 7.159l-0.061 56.055c-0.002 2.458 0.48 4.894 1.42 7.164s2.317 4.331 4.054 6.071c1.737 1.737 3.8 3.115 6.071 4.053s4.704 1.421 7.161 1.417h374.107c2.449 0.009 4.877-0.469 7.142-1.408 2.261-0.934 4.322-2.308 6.054-4.041s3.106-3.789 4.041-6.054c0.934-2.261 1.412-4.689 1.408-7.138l0.060-56.060c-0.026-4.966-2.010-9.728-5.525-13.239-3.511-3.516-8.273-5.5-13.239-5.525h-373.987z" />
<glyph unicode="&#xe92f;" glyph-name="normal-screen" d="M356.565 769.322c-8.209-0.168-16.019-3.571-21.732-9.467s-8.867-13.811-8.775-22.021v-123.989h-123.947c-8.221 0-16.105-3.266-21.919-9.079s-9.079-13.698-9.079-21.919c0-8.221 3.266-16.105 9.079-21.918s13.698-9.079 21.919-9.079h154.923c8.208 0.023 16.074 3.293 21.878 9.098s9.075 13.67 9.098 21.878v155.008c0.063 4.153-0.708 8.276-2.268 12.125s-3.877 7.345-6.813 10.282c-2.937 2.937-6.433 5.254-10.282 6.814s-7.972 2.331-12.124 2.268h0.043zM666.496 769.322c-8.209-0.168-16.017-3.571-21.73-9.467s-8.87-13.811-8.777-22.021v-154.965c0.021-8.208 3.294-16.074 9.097-21.878 5.807-5.804 13.67-9.075 21.879-9.098h154.965c8.222 0 16.107 3.266 21.918 9.079 5.815 5.813 9.079 13.697 9.079 21.918s-3.264 16.105-9.079 21.919c-5.811 5.813-13.696 9.079-21.918 9.079h-123.947v123.947c0.064 4.153-0.708 8.276-2.27 12.125-1.557 3.849-3.874 7.345-6.814 10.282-2.935 2.937-6.43 5.254-10.278 6.814s-7.974 2.331-12.126 2.268zM202.112 303.957c-8.221 0-16.105-3.268-21.919-9.079s-9.079-13.696-9.079-21.918c0-8.222 3.266-16.107 9.079-21.918 5.813-5.815 13.698-9.079 21.919-9.079h123.947v-123.947c0-8.222 3.266-16.107 9.079-21.918 5.813-5.815 13.698-9.079 21.919-9.079s16.105 3.264 21.918 9.079c5.813 5.811 9.079 13.696 9.079 21.918v154.923c-0.023 8.209-3.293 16.073-9.098 21.879-5.804 5.803-13.67 9.075-21.878 9.097l-154.965 0.043zM667.179 303.957c-8.209-0.021-16.073-3.294-21.879-9.097-5.803-5.807-9.075-13.67-9.097-21.879v-154.965c0-8.222 3.264-16.107 9.079-21.918 5.811-5.815 13.696-9.079 21.918-9.079s16.107 3.264 21.918 9.079c5.815 5.811 9.079 13.696 9.079 21.918v123.947h123.733c8.222 0 16.107 3.264 21.918 9.079 5.815 5.811 9.079 13.696 9.079 21.918s-3.264 16.107-9.079 21.918c-5.811 5.811-13.696 9.079-21.918 9.079h-154.752z" />
<glyph unicode="&#xe930;" glyph-name="notification" d="M403.757 139.605c57.457 4.514 115.176 4.514 172.631 0 18.219-4.267 37.931-14.037 37.931-35.541-0.819-10.052-3.913-19.789-9.050-28.467s-12.186-16.073-20.604-21.623c-21.244-16.567-46.43-27.315-73.088-31.189-14.272-1.916-28.736-1.916-43.008 0-26.671 3.853-51.871 14.622-73.090 31.232-8.466 5.513-15.559 12.885-20.736 21.559-5.177 8.678-8.3 18.419-9.131 28.489 0.213 21.504 19.925 31.36 38.144 35.541zM492.591 874.667c44.757-0.11 88.926-10.219 129.276-29.589s75.861-47.512 103.94-82.368c36.028-45.228 54.242-102.086 51.2-159.829v-18.176c-1.007-22.267 2.492-44.507 10.274-65.391 7.787-20.89 19.703-39.991 35.038-56.166 22.268-27.84 33.37-62.976 31.147-98.56 0.346-37.15-12.732-73.178-36.821-101.461-32.469-34.577-76.497-56.030-123.733-60.288-67.029-5.717-134.144-10.539-202.112-10.539-67.518-0.329-134.998 3.187-202.114 10.539-47.243 4.241-91.279 25.698-123.733 60.288-24.105 28.279-37.195 64.307-36.864 101.461-2.206 35.58 8.896 70.707 31.147 98.56 15.522 16.047 27.562 35.127 35.366 56.043 7.805 20.919 11.205 43.222 9.988 65.515v18.176c-2.902 59.773 16.62 118.477 54.741 164.608 28.203 33.428 63.335 60.327 102.963 78.833s82.805 28.178 126.543 28.345h3.755z" />
<glyph unicode="&#xe931;" glyph-name="pause" d="M181.333 874.667c-14.138-0.023-27.69-5.649-37.687-15.646s-15.623-23.549-15.646-37.687v-746.667c0.023-14.14 5.649-27.691 15.646-37.687s23.549-15.625 37.687-15.646h160c14.138 0.021 27.69 5.649 37.687 15.646s15.623 23.548 15.646 37.687v746.667c-0.023 14.138-5.649 27.69-15.646 37.687s-23.549 15.623-37.687 15.646h-160zM661.333 874.667c-14.14-0.023-27.691-5.649-37.687-15.646s-15.625-23.549-15.646-37.687v-746.667c0.021-14.14 5.649-27.691 15.646-37.687s23.548-15.625 37.687-15.646h160c14.14 0.021 27.691 5.649 37.687 15.646s15.625 23.548 15.646 37.687v746.667c-0.021 14.138-5.649 27.69-15.646 37.687s-23.548 15.623-37.687 15.646h-160z" />
<glyph unicode="&#xe932;" glyph-name="play" d="M298.321 64.256c-14.642 0.132-29.008 4.011-41.729 11.264-12.815 7.121-23.595 17.404-31.316 29.867-29.867 40.704-52.865 178.091-54.529 341.589-1.579 158.72 17.494 293.291 45.185 338.773l1.151 2.219c7.177 12.855 17.558 23.634 30.133 31.29s26.918 11.928 41.633 12.401c50.133 5.632 180.651-42.88 323.072-122.966s251.733-166.4 273.067-212.096c7.223-12.83 11.017-27.302 11.017-42.027s-3.793-29.197-11.017-42.027l-1.28-2.176c-24.405-47.317-129.28-133.632-265.557-214.869-134.869-80.384-259.499-131.371-313.643-131.371-2.176 0-4.266 0-6.229 0.256z" />
<glyph unicode="&#xe933;" glyph-name="plus" d="M525.363 257.028l-56.055 0.060c-2.453-0.004-4.881 0.474-7.142 1.408-2.266 0.934-4.322 2.308-6.054 4.041s-3.106 3.789-4.041 6.054c-0.939 2.266-1.417 4.693-1.408 7.142l-0.030 140.139h-140.111c-2.457-0.004-4.89 0.478-7.161 1.421-2.271 0.939-4.334 2.317-6.071 4.053s-3.115 3.802-4.054 6.071c-0.939 2.27-1.422 4.702-1.419 7.159l-0.061 56.055c-0.002 2.458 0.48 4.89 1.419 7.159 0.94 2.274 2.317 4.335 4.055 6.071s3.8 3.115 6.071 4.058c2.271 0.939 4.704 1.421 7.161 1.417l140.137 0.030-0.119 140.23c0.030 4.952 2.010 9.693 5.513 13.195 3.499 3.502 8.243 5.482 13.193 5.511h56.115c2.458 0.002 4.894-0.48 7.164-1.419s4.331-2.317 6.071-4.055c1.737-1.737 3.115-3.8 4.053-6.071s1.421-4.704 1.421-7.161l0.060-140.29 140.348 0.119c2.449 0.009 4.877-0.469 7.142-1.408 2.266-0.934 4.322-2.308 6.054-4.041s3.106-3.789 4.041-6.054c0.934-2.261 1.412-4.689 1.408-7.142l0.060-56.055c-0.021-4.966-2.010-9.728-5.521-13.239-3.516-3.516-8.273-5.5-13.244-5.525l-140.258-0.090-0.060-140.169c-0.004-4.954-1.975-9.702-5.474-13.201-3.503-3.503-8.252-5.47-13.201-5.474z" />
<glyph unicode="&#xe934;" glyph-name="g" d="M711.245 21.333h-398.506c-30.606-1.899-61.281 2.389-90.193 12.608s-55.469 26.159-78.083 46.869c-20.593 22.609-36.438 49.126-46.596 77.973s-14.422 59.439-12.54 89.963v398.506c-1.924 30.581 2.32 61.236 12.479 90.144s26.025 55.479 46.657 78.133c22.654 20.631 49.225 36.498 78.133 46.657s59.563 14.403 90.144 12.479h398.079c30.588 1.895 61.239-2.362 90.15-12.519s55.492-26.009 78.17-46.617c20.727-22.606 36.681-49.16 46.908-78.074s14.515-59.593 12.612-90.204v-398.506c0-144.512-82.901-227.413-227.413-227.413zM319.993 490.24c-4.016 0.013-7.994-0.768-11.706-2.3s-7.086-3.78-9.926-6.618l-43.392-43.392c-5.714-5.777-8.919-13.572-8.919-21.696s3.205-15.919 8.919-21.696l175.444-175.445c10.466-10.419 24.422-16.589 39.168-17.323 7.454 0.452 14.694 2.671 21.129 6.468 6.43 3.797 11.866 9.067 15.863 15.377l298.667 440.832c2.295 3.328 3.904 7.078 4.736 11.032s0.87 8.035 0.111 12.005c-0.755 3.97-2.295 7.749-4.527 11.119s-5.111 6.263-8.469 8.51l-50.432 34.261c-6.733 4.573-15.002 6.292-22.997 4.781s-15.070-6.13-19.669-12.845l-248.277-366.122-114.090 114.091c-2.836 2.846-6.208 5.103-9.92 6.639-3.713 1.54-7.693 2.33-11.711 2.321z" />
<glyph unicode="&#xe935;" glyph-name="mic" d="M854.656 540.714c5.397 0.039 10.748-0.986 15.748-3.018s9.553-5.029 13.393-8.822c3.84-3.793 6.895-8.307 8.99-13.282 2.091-4.975 3.183-10.313 3.213-15.71-0.614-88.371-33.69-173.436-92.937-239.006s-140.531-107.076-228.386-116.621v-81.92c-0.346-10.731-4.851-20.907-12.561-28.373-7.714-7.467-18.027-11.644-28.762-11.644s-21.047 4.177-28.762 11.644c-7.71 7.467-12.215 17.643-12.561 28.373v81.963c-87.864 9.532-169.158 51.034-228.413 116.608s-92.337 150.639-92.952 239.019c0.345 10.731 4.849 20.902 12.561 28.373 7.712 7.467 18.026 11.642 28.761 11.642s21.050-4.176 28.761-11.642c7.712-7.471 12.217-17.643 12.561-28.373 0.909-73.664 30.81-144 83.221-195.767s123.111-80.798 196.779-80.798c73.668 0 144.367 29.030 196.779 80.798s82.313 122.103 83.221 195.767c0.034 5.393 1.131 10.726 3.226 15.697s5.154 9.476 8.994 13.265c3.836 3.789 8.388 6.784 13.385 8.813s10.347 3.053 15.74 3.014zM540.8 874.666c24.239 0.152 48.273-4.474 70.724-13.613 22.455-9.139 42.884-22.612 60.13-39.65 17.242-17.038 30.959-37.306 40.367-59.647s14.323-46.316 14.464-70.557v-197.248c-0.145-24.239-5.065-48.213-14.473-70.549-9.412-22.34-23.13-42.607-40.371-59.644s-37.675-30.507-60.122-39.65c-22.451-9.139-46.481-13.769-70.72-13.623h-14.933c-24.239-0.145-48.265 4.484-70.711 13.623-22.447 9.143-42.875 22.618-60.114 39.654s-30.953 37.303-40.359 59.639c-9.405 22.34-14.319 46.31-14.458 70.549v197.333c0.134 24.239 5.043 48.213 14.447 70.554s23.117 42.609 40.358 59.648c17.24 17.038 37.671 30.512 60.118 39.651 22.451 9.14 46.481 13.766 70.72 13.614l14.933-0.085z" />
<glyph unicode="&#xe936;" glyph-name="pg" d="M711.245 21.333h-398.505c-30.607-1.899-61.282 2.389-90.194 12.608s-55.468 26.159-78.083 46.869c-20.593 22.609-36.438 49.126-46.596 77.973s-14.422 59.439-12.54 89.963v398.506c-1.924 30.58 2.32 61.236 12.479 90.144s26.025 55.479 46.657 78.133c22.654 20.631 49.225 36.498 78.133 46.657s59.563 14.403 90.144 12.479h398.079c30.588 1.895 61.239-2.362 90.15-12.519s55.492-26.009 78.17-46.617c20.727-22.606 36.681-49.16 46.908-78.074s14.515-59.594 12.612-90.204v-398.506c0-144.512-82.901-227.413-227.413-227.413zM357.582 672.768l-75.264-8.533 38.4-391.253 75.264 8.533-38.4 391.21v0.043zM572.621 675.2l-75.264-8.533 38.4-391.893 75.264 8.533-17.323 179.2c11.379-3.755 23.262-5.769 35.243-5.973h14.933c15.266-0.201 30.4 2.867 44.382 8.994 13.982 6.131 26.492 15.181 36.685 26.547 10.569 10.82 18.598 23.859 23.497 38.17 4.902 14.31 6.554 29.533 4.834 44.561l-10.155 100.395-75.264-8.533 10.155-99.157c0.572-3.664 0.119-7.415-1.306-10.839-1.421-3.425-3.759-6.391-6.758-8.574-7.693-5.001-16.781-7.408-25.941-6.869h-26.88c-8.397-0.576-16.738 1.743-23.637 6.571-6.093 5.824-9.818 13.696-10.453 22.101l-10.155 105.131-0.256 0.171z" />
<glyph unicode="&#xe937;" glyph-name="pofefilm-en-logotype" d="M69.845 397.696h-27.178v133.333h54.357c4.872 0.094 9.727-0.597 14.379-2.048 4.488-1.216 8.792-3.021 12.8-5.376 4.046-2.325 7.751-5.197 11.008-8.533 6.717-6.677 11.584-14.985 14.123-24.107 3.379-11.699 2.564-24.209-2.304-35.371-5.584-13.018-15.956-23.39-28.971-28.971-6.657-2.812-13.809-4.262-21.035-4.267h-27.179v-24.661zM69.845 503.851v-54.613h27.179c3.594 0.034 7.151 0.73 10.496 2.048 3.225 1.344 6.132 3.349 8.534 5.888 2.458 2.466 4.452 5.359 5.888 8.533 1.404 3.379 2.126 7.006 2.126 10.667s-0.722 7.283-2.126 10.667c-1.345 3.221-3.35 6.131-5.888 8.533-2.468 2.458-5.359 4.45-8.534 5.888-3.308 1.434-6.89 2.133-10.496 2.048h-27.179v0.341zM316.496 464.085c0.033-6.251-0.829-12.471-2.56-18.475-1.545-5.845-3.87-11.456-6.912-16.683-2.999-5.124-6.609-9.869-10.752-14.123-8.488-8.469-18.983-14.647-30.506-17.963-11.989-3.341-24.663-3.341-36.651 0-5.764 1.545-11.29 3.87-16.427 6.912-10.272 6.042-18.834 14.601-24.875 24.875-3.086 5.205-5.413 10.82-6.911 16.683-3.341 11.989-3.341 24.661 0 36.651 1.545 5.845 3.869 11.456 6.911 16.683 3.070 5.146 6.768 9.89 11.009 14.123 4.187 4.22 8.94 7.838 14.122 10.752 5.136 3.038 10.662 5.363 16.426 6.912 11.768 3.231 24.182 3.296 35.983 0.188 11.801-3.11 22.571-9.284 31.218-17.894 8.468-8.546 14.569-19.149 17.706-30.763 1.519-5.837 2.265-11.849 2.219-17.877zM292.133 464.085c-0.032 8.811-2.649 17.421-7.525 24.764-4.876 7.339-11.799 13.090-19.91 16.538-11.251 4.612-23.864 4.612-35.115 0-5.305-2.304-10.17-5.508-14.378-9.472-6.397-6.268-10.75-14.327-12.486-23.113-1.736-8.789-0.775-17.894 2.758-26.125 2.24-5.325 5.551-10.133 9.728-14.123 4.18-4.241 9.161-7.612 14.655-9.911 5.494-2.295 11.39-3.482 17.345-3.482s11.851 1.186 17.344 3.482c5.493 2.3 10.476 5.67 14.656 9.911 4.065 4.083 7.361 8.866 9.728 14.123 2.069 5.572 3.152 11.465 3.2 17.408zM370.345 397.696h-27.178v133.845h95.404v-27.435h-67.97v-24.875h40.79v-27.179h-40.79l-0.256-54.357zM559.364 397.696h-93.355v133.845h93.355v-27.435h-66.133v-25.6h44.885v-27.179h-44.629v-26.155h66.133l-0.256-27.477zM613.679 397.696h-27.179v133.845h95.147v-27.435h-67.968v-27.179h40.789v-27.179h-40.789v-52.053zM736.512 397.696h-27.179v133.845h27.179v-133.845zM860.122 397.696h-95.403v133.845h27.179v-106.411h68.267l-0.043-27.435zM980.612 397.696h-27.183v94.848c0.034 1.843-0.316 3.674-1.020 5.376-0.794 1.515-1.737 2.944-2.82 4.267-1.195 1.246-2.65 2.206-4.262 2.816-3.383 1.276-7.117 1.276-10.496 0-1.566-0.704-3.008-1.651-4.267-2.816-1.246-1.195-2.21-2.654-2.816-4.267-0.708-1.702-1.058-3.533-1.024-5.376v-94.891h-27.183v94.891c0.051 3.622-1.331 7.117-3.84 9.728-1.907 1.877-4.331 3.149-6.963 3.652-2.628 0.503-5.35 0.218-7.821-0.823-2.466-1.041-4.574-2.786-6.050-5.022s-2.257-4.855-2.244-7.535v-94.891h-27.392v94.891c-0.013 5.359 1.033 10.667 3.081 15.625 2.044 4.954 5.052 9.455 8.841 13.244s8.29 6.793 13.244 8.841c4.954 2.044 10.261 3.092 15.625 3.081 5.009-0.017 9.971-0.969 14.63-2.816 1.186-2.313 2.987-4.25 5.205-5.606 2.214-1.353 4.766-2.069 7.364-2.069s5.146 0.717 7.36 2.069c2.219 1.357 4.019 3.294 5.205 5.606 6.204 2.406 12.902 3.252 19.516 2.47 6.609-0.785 12.924-3.174 18.398-6.963s9.933-8.862 12.992-14.771c3.059-5.909 4.625-12.48 4.557-19.136l-0.636-94.421z" />
<glyph unicode="&#xe938;" glyph-name="pofefilm-fa-logotype" d="M568.619 465.707c-0.687 15.71-6.831 30.694-17.365 42.368-4.723 5.056-10.539 8.969-16.998 11.447-6.46 2.475-13.397 3.447-20.292 2.846-6.729-0.141-13.329-1.873-19.264-5.056-5.931-3.179-11.025-7.718-14.869-13.248-8.132-11.895-12.139-26.138-11.392-40.533-0.213-5.961 0.811-11.904 3.017-17.451 2.202-5.547 5.534-10.573 9.783-14.763 9.058-8.205 20.988-12.497 33.195-11.947 10.953 0.013 21.892 0.653 32.768 1.92 0.896-8.533-0.853-13.995-5.291-16.512-10.466-3.392-21.504-4.668-32.469-3.755h-52.821c-6.020-0.717-12.092 0.802-17.067 4.267-3.763 4.535-5.833 10.236-5.845 16.128v0.299l-3.797 38.869c-0.055 0.619-0.26 1.212-0.597 1.732-0.341 0.521-0.806 0.947-1.353 1.242-0.542 0.294-1.156 0.452-1.775 0.452-0.62 0.004-1.231-0.145-1.779-0.439l-17.281-9.131c-0.66-0.346-1.203-0.875-1.56-1.527s-0.512-1.399-0.445-2.142l2.859-31.616c0.486-2.505 0.351-5.086-0.393-7.526s-2.075-4.659-3.875-6.468c-5.348-3.452-11.72-4.958-18.047-4.267h-41.771c-3.028-0.346-6.097-0.017-8.982 0.969s-5.511 2.603-7.693 4.732c-2.182 2.129-3.863 4.715-4.919 7.578-1.056 2.859-1.463 5.918-1.19 8.951l-6.016 93.867c-0.021 0.64-0.205 1.267-0.534 1.818s-0.793 1.011-1.347 1.335c-0.554 0.324-1.179 0.503-1.82 0.516-0.641 0.017-1.277-0.128-1.847-0.427l-18.132-9.557c-0.629-0.333-1.151-0.841-1.505-1.459s-0.528-1.327-0.5-2.039l6.185-86.997c0.36-5.094-1.309-10.125-4.649-13.995-2.478-2.138-5.374-3.742-8.503-4.702-3.129-0.964-6.423-1.263-9.674-0.887h-36.779c-3.384-0.384-6.812 0-10.029 1.118s-6.141 2.944-8.557 5.346c-2.417 2.398-4.264 5.312-5.404 8.521s-1.545 6.63-1.185 10.018c-0.033 9.788-2.31 19.435-6.656 28.203-3.936 8.119-10.342 14.78-18.302 19.029-4.906 2.611-10.288 4.207-15.823 4.693-5.535 0.491-11.112-0.141-16.399-1.852-5.286-1.715-10.173-4.471-14.372-8.111s-7.623-8.085-10.068-13.077l-14.167-27.776-12.203 6.4-17.492-11.648 2.86-106.112c0.010-0.636 0.182-1.263 0.5-1.813 0.318-0.555 0.771-1.015 1.318-1.344s1.167-0.512 1.805-0.538c0.637-0.021 1.271 0.119 1.839 0.41l18.304 9.131c0.655 0.337 1.2 0.849 1.571 1.485s0.55 1.365 0.518 2.099l-2.943 73.344 46.636-24.149c3.643-1.984 7.658-3.196 11.792-3.558 4.134-0.358 8.297 0.141 12.229 1.468 7.874 2.731 14.496 8.218 18.646 15.445 4.068-4.924 9.187-8.87 14.985-11.55 5.797-2.684 12.122-4.028 18.508-3.938h38.828c6.786-0.324 13.561 0.794 19.88 3.29 6.319 2.492 12.035 6.302 16.768 11.174 4.339-4.77 9.67-8.542 15.617-11.038 5.948-2.5 12.369-3.665 18.815-3.426h41.685c13.245-0.627 26.206 3.968 36.096 12.8 4.232-4.19 9.268-7.488 14.802-9.685 5.534-2.202 11.456-3.26 17.412-3.115h54.997c18.287-2.099 36.745 2.116 52.309 11.947 4.706 5.457 8.094 11.925 9.903 18.906 1.805 6.976 1.98 14.276 0.508 21.329l-2.901 41.685zM545.323 446.251l-26.325-2.347c-6.967-0.653-13.914 1.481-19.311 5.935s-8.806 10.867-9.489 17.83c-0.333 3.465 0.017 6.963 1.041 10.291 1.020 3.324 2.688 6.417 4.907 9.097 2.223 2.684 4.949 4.898 8.030 6.519s6.451 2.62 9.916 2.935c3.456 0.32 6.938-0.047 10.249-1.079 3.315-1.028 6.391-2.701 9.058-4.919s4.873-4.941 6.485-8.009c1.613-3.072 2.607-6.43 2.923-9.886l2.347-26.325 0.171-0.043zM130.688 418.133l14.167 20.437c1.927 2.709 4.368 5.009 7.188 6.771s5.96 2.948 9.239 3.49c3.279 0.542 6.633 0.435 9.87-0.324s6.29-2.15 8.987-4.092c5.579-3.733 9.449-9.527 10.761-16.111s-0.041-13.414-3.763-19.004c-1.933-2.697-4.379-4.983-7.198-6.733s-5.953-2.927-9.227-3.46c-3.274-0.533-6.623-0.418-9.852 0.341-3.229 0.764-6.275 2.15-8.966 4.092l-21.12 14.677zM861.265 312.235c10.935 0 19.797 8.862 19.797 19.797 0 10.931-8.862 19.797-19.797 19.797-10.931 0-19.797-8.866-19.797-19.797 0-10.935 8.866-19.797 19.797-19.797zM817.579 312.235c10.935 0 19.797 8.862 19.797 19.797 0 10.931-8.862 19.797-19.797 19.797s-19.797-8.866-19.797-19.797c0-10.935 8.862-19.797 19.797-19.797zM904.964 312.235c10.935 0 19.797 8.862 19.797 19.797 0 10.931-8.862 19.797-19.797 19.797s-19.797-8.866-19.797-19.797c0-10.935 8.862-19.797 19.797-19.797zM795.051 534.443c11.473 0 20.779 9.303 20.779 20.779s-9.306 20.779-20.779 20.779c-11.477 0-20.779-9.303-20.779-20.779s9.301-20.779 20.779-20.779zM934.101 438.827l-13.265 52.736c-0.158 0.61-0.469 1.173-0.9 1.63-0.431 0.461-0.973 0.806-1.574 0.998-0.597 0.196-1.233 0.239-1.852 0.124-0.623-0.119-1.203-0.388-1.69-0.789l-15.701-12.8c-0.572-0.448-0.998-1.058-1.225-1.749-0.23-0.691-0.247-1.429-0.060-2.133l10.965-43.989c3.102-11.831 2.274-20.109-2.475-24.832-6.541-5.312-14.912-7.825-23.296-6.997h-35.665c-5.376-0.013-10.743 0.273-16.085 0.853h-3.285l6.229 7.253c6.694 7.791 10.923 17.395 12.16 27.593s-0.58 20.535-5.218 29.7c-4.642 9.165-11.895 16.747-20.843 21.79-8.951 5.039-19.196 7.313-29.44 6.532-10.24-0.785-20.023-4.587-28.105-10.927-8.081-6.345-14.101-14.942-17.297-24.704-3.191-9.762-3.413-20.254-0.644-30.148 2.769-9.89 8.414-18.739 16.213-25.425l1.062-0.896h-2.172c-6.891-1.071-13.85-1.63-20.821-1.664h-10.415c-29.239 0-48.521 0.371-57.852 1.109-7.049 0.277-14.020 1.587-20.693 3.883-2.364 0.823-4.54 2.125-6.379 3.819-1.843 1.694-3.319 3.75-4.335 6.037-1.557 5.606-1.408 11.55 0.427 17.067l11.349 42.667c0.171 0.661 0.158 1.357-0.034 2.014-0.196 0.653-0.572 1.242-1.075 1.698l-15.104 13.995c-0.478 0.444-1.058 0.751-1.694 0.9-0.631 0.149-1.297 0.128-1.92-0.055-0.623-0.188-1.186-0.533-1.634-1.003-0.452-0.465-0.772-1.045-0.934-1.677l-13.444-50.219c-3.738-12.254-3.439-25.387 0.858-37.461 2.099-5.427 5.274-10.368 9.335-14.537 4.062-4.164 8.926-7.462 14.298-9.698 8.512-3.255 17.455-5.265 26.543-5.973 10.441-1.024 30.746-1.536 60.928-1.536h11.644c19.166 0.158 38.157 3.725 56.068 10.539 16.593-6.763 34.308-10.338 52.224-10.539h35.584c8.175-0.435 16.341 0.956 23.906 4.079s14.34 7.893 19.827 13.969c5.372 6.784 8.883 14.844 10.197 23.394 1.318 8.546 0.388 17.293-2.692 25.374zM794.884 407.893l-18.645 18.645c-4.937 4.949-7.71 11.657-7.71 18.645 0 6.993 2.773 13.696 7.71 18.645 4.954 4.928 11.657 7.689 18.645 7.689 6.985 0 13.687-2.761 18.645-7.689 4.924-4.954 7.689-11.657 7.689-18.645 0-6.985-2.765-13.687-7.689-18.645l-18.645-18.645zM511.236 534.229c11.477 0 20.779 9.303 20.779 20.779s-9.301 20.779-20.779 20.779c-11.473 0-20.779-9.303-20.779-20.779s9.306-20.779 20.779-20.779zM397.36 312.235c10.934 0 19.797 8.862 19.797 19.797 0 10.931-8.864 19.797-19.797 19.797s-19.797-8.866-19.797-19.797c0-10.935 8.864-19.797 19.797-19.797zM353.704 312.235c10.934 0 19.797 8.862 19.797 19.797 0 10.931-8.864 19.797-19.797 19.797s-19.797-8.866-19.797-19.797c0-10.935 8.864-19.797 19.797-19.797z" />
<glyph unicode="&#xe939;" glyph-name="pofefilm-logo" d="M360.958-21.333c-53.477-0.277-106.157 12.958-153.149 38.485-46.993 25.523-86.774 62.511-115.651 107.52-27.704 42.88-44.335 91.968-48.401 142.857s4.56 101.99 25.105 148.727c25.363 58.266 67.925 107.392 121.984 140.8-45.393-20.077-85.437-50.534-116.907-88.917-27.441 56.38-37.152 119.75-27.852 181.759s37.174 119.743 79.948 165.591c28.573 30.863 62.995 55.737 101.267 73.177s79.629 27.098 121.667 28.412c4.267 0 8.235 0.256 12.373 0.256 49.425-0.020 98.17-11.523 142.389-33.603s82.701-54.132 112.414-93.629c38.135-50.561 59.767-111.642 61.952-174.933 5.244 49.209-1.399 98.957-19.371 145.067 44.023-2.947 86.95-15.037 126.037-35.499 37.009-19.002 69.841-45.216 96.563-77.098s46.797-68.788 59.042-108.545c12.19-39.164 16.427-80.367 12.471-121.195-3.955-40.823-16.030-80.448-35.511-116.544-27.55-50.569-68.215-92.774-117.726-122.185s-106.031-44.937-163.618-44.941c-51.546 0.064-102.323 12.518-148.053 36.309 40.145-28.582 86.345-47.522 134.997-55.339-24.444-35.319-55.906-65.22-92.416-87.851-50.837-31.795-109.591-48.661-169.555-48.683zM375.166 650.496c-1.425 0.005-2.849-0.067-4.267-0.213-7.704-0.251-15.212-2.494-21.792-6.509s-12.008-9.667-15.755-16.403c-0.219-0.373-0.419-0.758-0.597-1.152-19.896-56.994-27.939-117.453-23.637-177.664-3.521-61.094 6.216-122.223 28.544-179.2 4.105-6.485 9.771-11.836 16.48-15.565 6.709-3.725 14.246-5.709 21.92-5.769 1.080-0.055 2.162-0.055 3.243 0 58.737 11.785 114.519 35.213 164.051 68.907 53.513 27.674 100.779 66.022 138.88 112.683l0.427 0.853c3.75 6.741 5.717 14.323 5.717 22.037s-1.967 15.296-5.717 22.037c-38.972 46.993-87.701 84.947-142.805 111.232-50.206 31.998-106.133 53.977-164.691 64.725z" />
<glyph unicode="&#xe93a;" glyph-name="price" d="M896.004 525.141v248.405c-0.013 15.5-6.174 30.361-17.131 41.321-10.961 10.959-25.822 17.122-41.323 17.133h-258.816c-10.116 1.3-20.395 0.542-30.212-2.229s-18.974-7.499-26.918-13.899l-379.434-379.434c-4.495-4.476-8.061-9.796-10.494-15.654-2.433-5.854-3.686-12.134-3.686-18.479s1.253-12.625 3.686-18.483c2.434-5.854 6-11.174 10.494-15.65l290.133-290.133c4.476-4.493 9.796-8.060 15.654-10.496 5.858-2.432 12.139-3.686 18.479-3.686 6.345 0 12.625 1.254 18.483 3.686 5.854 2.436 11.174 6.003 15.65 10.496l379.435 379.435c6.724 8.781 11.605 18.825 14.353 29.538 2.748 10.709 3.311 21.867 1.647 32.798v5.333zM745.818 631.808c-9.907 0-19.593 2.938-27.827 8.442-8.239 5.504-14.66 13.327-18.449 22.48-3.793 9.153-4.783 19.225-2.85 28.941s6.703 18.642 13.709 25.647c7.006 7.005 15.927 11.776 25.647 13.708 9.715 1.933 19.789 0.941 28.941-2.85s16.977-10.211 22.481-18.449c5.504-8.237 8.439-17.922 8.439-27.829 0.047-6.614-1.22-13.171-3.721-19.293-2.505-6.122-6.195-11.689-10.859-16.377s-10.214-8.407-16.32-10.941c-6.11-2.534-12.663-3.832-19.277-3.821l0.085 0.341z" />
</font>
</defs>
</svg>
