<svg width="40" height="34" viewBox="0 0 40 34" fill="none" xmlns="http://www.w3.org/2000/svg">
<g filter="url(#filter0_dddd_18351_33187)">
<rect x="7" y="1" width="32" height="27.6348" rx="6.23755" fill="white"/>
<path d="M12.5139 1.01538C12.6078 1.01515 12.7018 1.01486 12.7957 1.01453C13.0528 1.01377 13.3099 1.01378 13.567 1.01393C13.8447 1.01395 14.1224 1.01326 14.4001 1.01267C14.9438 1.01164 15.4876 1.01129 16.0313 1.01122C16.4735 1.01117 16.9158 1.01091 17.358 1.01051C18.6129 1.00941 19.8679 1.00884 21.1228 1.00893C21.2242 1.00894 21.2243 1.00894 21.3277 1.00895C21.3954 1.00895 21.4631 1.00896 21.5329 1.00896C22.6293 1.00901 23.7257 1.00782 24.8221 1.00606C25.949 1.00427 27.076 1.00341 28.2029 1.00352C28.8351 1.00356 29.4673 1.00322 30.0996 1.00187C30.638 1.00073 31.1764 1.00047 31.7148 1.00131C31.9892 1.00172 32.2636 1.00173 32.538 1.00064C32.7898 0.999655 33.0417 0.999848 33.2935 1.00093C33.384 1.00112 33.4744 1.0009 33.5649 1.0002C34.3838 0.994272 35.2035 1.12118 35.9323 1.51547C35.9937 1.54735 35.9937 1.54735 36.0562 1.57988C36.4286 1.77874 36.7693 2.01481 37.098 2.27957C37.1591 2.32782 37.2202 2.37606 37.2832 2.42577C38.2007 3.19722 38.8155 4.47441 38.9693 5.64785C38.9788 5.89267 38.9785 6.13736 38.9784 6.38234C38.9787 6.45684 38.9789 6.53134 38.9791 6.6081C38.9797 6.81442 38.98 7.02073 38.9802 7.22705C38.9804 7.44978 38.981 7.6725 38.9815 7.89523C38.9828 8.43295 38.9834 8.97066 38.984 9.50837C38.9842 9.76195 38.9846 10.0155 38.9849 10.2691C38.9859 11.1127 38.9869 11.9564 38.9873 12.8C38.9874 13.0187 38.9875 13.2375 38.9877 13.4563C38.9877 13.5106 38.9877 13.565 38.9878 13.621C38.9883 14.5009 38.9899 15.3807 38.9919 16.2605C38.9939 17.165 38.9951 18.0695 38.9953 18.9739C38.9954 19.4813 38.9959 19.9886 38.9975 20.496C38.9989 20.9283 38.9994 21.3605 38.9988 21.7928C38.9985 22.013 38.9986 22.2332 38.9998 22.4534C39.0082 24.255 38.7008 25.7527 37.3982 27.0894C36.3057 28.1651 34.9209 28.6332 33.4007 28.6262C33.3071 28.6265 33.2134 28.6268 33.1198 28.6272C32.8647 28.6281 32.6096 28.6279 32.3545 28.6274C32.0785 28.6271 31.8025 28.6279 31.5265 28.6285C30.9866 28.6296 30.4467 28.6297 29.9069 28.6293C29.4678 28.6291 29.0287 28.6292 28.5897 28.6295C28.4958 28.6296 28.4958 28.6296 28.3999 28.6297C28.2727 28.6298 28.1455 28.6298 28.0183 28.6299C26.8265 28.6308 25.6348 28.6305 24.443 28.6297C23.3543 28.6291 22.2656 28.6299 21.1769 28.6314C20.0572 28.633 18.9376 28.6335 17.818 28.6331C17.1901 28.6329 16.5622 28.6331 15.9343 28.6341C15.3998 28.6351 14.8652 28.6351 14.3307 28.634C14.0583 28.6335 13.786 28.6333 13.5136 28.6343C13.2636 28.6352 13.0137 28.6349 12.7637 28.6337C12.6739 28.6334 12.5841 28.6336 12.4943 28.6343C10.9758 28.6446 9.6848 28.0862 8.59237 27.0427C8.55402 27.009 8.51567 26.9753 8.47615 26.9406C7.64678 26.1836 7.11459 24.9589 7.01552 23.8539C7.00898 23.6547 7.00772 23.4562 7.0088 23.2569C7.00847 23.1815 7.00813 23.1061 7.00779 23.0285C7.00705 22.8217 7.00715 22.615 7.00761 22.4082C7.00791 22.1843 7.00712 21.9603 7.00648 21.7364C7.00542 21.2986 7.00536 20.8608 7.00569 20.423C7.00594 20.0668 7.00585 19.7106 7.00552 19.3545C7.00547 19.3036 7.00542 19.2528 7.00537 19.2004C7.00528 19.0971 7.00518 18.9938 7.00509 18.8905C7.00423 17.9233 7.00457 16.956 7.00529 15.9888C7.0059 15.1058 7.0051 14.2228 7.00361 13.3398C7.00208 12.431 7.00148 11.5223 7.0019 10.6136C7.00212 10.1042 7.00198 9.59488 7.00089 9.08551C6.99996 8.65187 6.99993 8.21824 7.00101 7.7846C7.00154 7.56377 7.00169 7.34296 7.00072 7.12213C6.99639 6.051 6.99477 5.03089 7.52029 4.06507C7.5418 4.02395 7.5633 3.98282 7.58546 3.94045C7.7695 3.59573 7.97627 3.27301 8.21812 2.96571C8.25189 2.92245 8.28566 2.87919 8.32045 2.83462C9.3598 1.57673 10.924 1.01163 12.5139 1.01538ZM10.0348 2.993C9.75717 3.3278 9.82377 3.74621 9.82147 4.15966C9.82075 4.24961 9.81948 4.33957 9.81764 4.42951C9.81496 4.5599 9.81396 4.69022 9.81333 4.82065C9.81242 4.8985 9.81151 4.97636 9.81057 5.05658C9.84614 5.31992 9.91673 5.44687 10.0894 5.64785C10.3566 5.82254 10.5666 5.8589 10.8827 5.85983C10.9614 5.86007 11.0402 5.86032 11.1213 5.86056C11.2434 5.85948 11.2434 5.85948 11.3681 5.85837C11.4495 5.85909 11.531 5.85982 11.6149 5.86056C11.733 5.8602 11.733 5.8602 11.8534 5.85983C11.9249 5.85962 11.9963 5.85941 12.0699 5.85919C12.3939 5.82048 12.58 5.72585 12.7926 5.47765C12.9649 5.13854 12.9379 4.7883 12.9357 4.41656C12.9353 4.27998 12.9382 4.14374 12.9414 4.00721C12.9546 3.47479 12.9546 3.47479 12.734 3.00445C12.3478 2.65746 11.8568 2.69685 11.3681 2.70061C11.2739 2.69989 11.2739 2.69989 11.1778 2.69915C10.744 2.70029 10.3783 2.7018 10.0348 2.993ZM15.7656 3.09046C15.5739 3.47126 15.6178 3.88253 15.6174 4.29898C15.6159 4.38019 15.6144 4.4614 15.6128 4.54507C15.6064 5.14417 15.6064 5.14417 15.8903 5.64785C16.2775 5.88276 16.63 5.8656 17.0717 5.8628C17.1999 5.86227 17.3279 5.86407 17.456 5.86605C17.5783 5.86599 17.5783 5.86599 17.7031 5.86592C17.8142 5.8661 17.8142 5.8661 17.9275 5.86627C18.2259 5.82144 18.4192 5.68265 18.6231 5.46463C18.8204 5.12207 18.771 4.69693 18.7713 4.31458C18.7724 4.21954 18.7724 4.21954 18.7736 4.12258C18.7744 3.69182 18.772 3.32917 18.4984 2.9774C18.1002 2.66768 17.6488 2.69691 17.1651 2.70061C17.1018 2.70013 17.0385 2.69964 16.9732 2.69915C16.4923 2.7004 16.1246 2.74141 15.7656 3.09046ZM21.6016 3.05537C21.3708 3.43379 21.4279 3.86917 21.4261 4.29898C21.4249 4.37505 21.4236 4.45111 21.4222 4.52948C21.4219 4.60313 21.4216 4.67678 21.4213 4.75267C21.4207 4.81968 21.4201 4.88668 21.4195 4.95572C21.4547 5.26126 21.5615 5.46233 21.7887 5.66735C22.1197 5.8965 22.4645 5.85116 22.8538 5.85339C22.9842 5.85446 23.1144 5.8572 23.2448 5.85995C23.3283 5.86059 23.4118 5.86112 23.4953 5.86154C23.5709 5.86245 23.6465 5.86336 23.7245 5.86429C24.0288 5.82227 24.2232 5.68538 24.4241 5.45683C24.6382 5.10737 24.5745 4.68277 24.5761 4.28729C24.5774 4.20797 24.5787 4.12865 24.58 4.04692C24.5803 3.97017 24.5806 3.89343 24.581 3.81435C24.5816 3.74434 24.5821 3.67432 24.5827 3.60218C24.5572 3.3723 24.4932 3.22497 24.3734 3.02808C23.9349 2.68291 23.5545 2.70319 23.0167 2.70061C22.9506 2.69932 22.8845 2.69804 22.8164 2.69671C22.3536 2.69441 21.9458 2.71111 21.6016 3.05537ZM27.5039 2.9774C27.1941 3.37561 27.2234 3.82704 27.2271 4.31068C27.2266 4.374 27.2261 4.43732 27.2256 4.50256C27.2269 4.98764 27.2715 5.34452 27.6169 5.71023C27.9275 5.91344 28.3069 5.85818 28.6642 5.8581C28.7934 5.85837 28.9226 5.86063 29.0518 5.863C29.1339 5.86324 29.216 5.86348 29.3006 5.86373C29.4128 5.8645 29.4128 5.8645 29.5274 5.86528C29.8644 5.81672 30.0436 5.66763 30.258 5.4098C30.3769 5.18144 30.3936 5.03481 30.3946 4.77849C30.3949 4.69696 30.3952 4.61543 30.3955 4.53143C30.395 4.4894 30.3945 4.44736 30.394 4.40406C30.3926 4.27588 30.394 4.14792 30.3955 4.01975C30.3951 3.89746 30.3951 3.89746 30.3946 3.77269C30.3943 3.69864 30.394 3.62458 30.3937 3.54828C30.3475 3.25032 30.209 3.05651 29.9911 2.85265C29.6485 2.65542 29.2234 2.70475 28.841 2.70451C28.7777 2.70374 28.7143 2.70298 28.649 2.70219C28.2183 2.70135 27.8556 2.7038 27.5039 2.9774ZM33.3009 2.99689C33.0218 3.3252 33.0897 3.70819 33.0875 4.11923C33.0865 4.25862 33.0837 4.39791 33.081 4.53728C33.0803 4.62645 33.0798 4.71563 33.0794 4.80481C33.0785 4.88568 33.0776 4.96655 33.0766 5.04986C33.1117 5.31745 33.1796 5.4443 33.3555 5.64785C33.7558 5.90905 34.1681 5.86479 34.6303 5.86227C34.7112 5.86352 34.7921 5.86476 34.8755 5.86605C35.4728 5.86924 35.4728 5.86924 35.9752 5.58548C36.2102 5.19833 36.193 4.84579 36.1902 4.40406C36.1896 4.27589 36.1914 4.1479 36.1934 4.01975C36.1934 3.93822 36.1933 3.85669 36.1933 3.77269C36.1934 3.69864 36.1935 3.62458 36.1937 3.54828C36.1488 3.24984 36.01 3.05661 35.792 2.85265C35.4494 2.65542 35.0243 2.70475 34.642 2.70451C34.5786 2.70374 34.5152 2.70298 34.45 2.70219C33.8283 2.69949 33.8283 2.69949 33.3009 2.99689ZM17.9514 9.29438C17.3623 10.0265 17.3054 10.8824 17.3088 11.7899C17.3086 11.8629 17.3084 11.936 17.3081 12.0112C17.3076 12.25 17.308 12.4887 17.3084 12.7275C17.3083 12.895 17.3082 13.0625 17.308 13.23C17.3078 13.58 17.3081 13.93 17.3087 14.28C17.3094 14.6826 17.3091 15.0851 17.3085 15.4877C17.3079 15.8356 17.3078 16.1835 17.3081 16.5314C17.3083 16.7381 17.3083 16.9449 17.3079 17.1517C17.3076 17.3825 17.3081 17.6134 17.3088 17.8442C17.3086 17.9112 17.3083 17.9782 17.308 18.0472C17.3132 18.9929 17.4504 19.8045 18.1124 20.5166C18.6468 21.0156 19.2826 21.2932 20.0127 21.308C20.8379 21.2766 21.5066 20.8745 22.2058 20.4659C22.2826 20.4215 22.3595 20.3771 22.4363 20.3328C22.6665 20.1997 22.8962 20.0659 23.1259 19.9319C23.1913 19.8937 23.2567 19.8556 23.3241 19.8163C23.5683 19.6739 23.8125 19.5315 24.0564 19.3886C24.4976 19.1306 24.9407 18.8761 25.3848 18.6231C25.9893 18.2785 26.5935 17.9333 27.1959 17.585C27.2563 17.5503 27.3168 17.5157 27.3791 17.48C28.2065 16.9996 28.932 16.4718 29.2111 15.5078C29.3668 14.7774 29.2601 14.0271 28.8834 13.3909C28.4441 12.7337 27.7932 12.3932 27.1179 12.0102C27.0104 11.9487 26.9029 11.8872 26.7955 11.8257C26.6848 11.7624 26.5742 11.6993 26.4634 11.6361C26.1195 11.4398 25.7767 11.2415 25.4338 11.0433C25.2986 10.9654 25.1635 10.8874 25.0283 10.8094C24.2174 10.3416 24.2174 10.3416 24.0144 10.2245C23.8802 10.1471 23.746 10.0696 23.6117 9.99226C23.2971 9.81081 22.9825 9.62918 22.6683 9.44688C22.5572 9.38244 22.4461 9.31806 22.335 9.25369C22.1957 9.173 22.0565 9.0922 21.9173 9.01126C20.5203 8.20252 19.1683 8.0064 17.9514 9.29438ZM9.94318 24.157C9.82353 24.3927 9.80854 24.5458 9.80894 24.8091C9.80885 24.8507 9.80876 24.8924 9.80866 24.9353C9.80877 25.0228 9.80948 25.1103 9.81078 25.1978C9.81259 25.3311 9.81207 25.4643 9.81125 25.5977C9.80176 26.1328 9.80176 26.1328 10.027 26.606C10.4199 26.9783 10.8479 26.9293 11.3603 26.9296C11.4236 26.9304 11.487 26.9311 11.5523 26.9319C12.1909 26.9352 12.1909 26.9352 12.734 26.6297C12.9884 26.3028 12.9473 25.8856 12.9382 25.4914C12.9353 25.3547 12.9357 25.2183 12.9365 25.0816C12.938 24.4898 12.938 24.4898 12.6468 23.9863C12.3796 23.8116 12.1696 23.7752 11.8534 23.7743C11.7747 23.774 11.696 23.7738 11.6149 23.7735C11.5335 23.7743 11.452 23.775 11.3681 23.7757C11.2459 23.7747 11.2459 23.7747 11.1213 23.7735C11.0425 23.7738 10.9638 23.774 10.8827 23.7743C10.8113 23.7745 10.7398 23.7747 10.6662 23.7749C10.3419 23.8137 10.156 23.9085 9.94318 24.157ZM15.8279 24.0486C15.5931 24.4359 15.6102 24.7883 15.613 25.2301C15.6135 25.3582 15.6117 25.4862 15.6097 25.6144C15.6098 25.6959 15.6098 25.7774 15.6099 25.8614C15.6097 25.9355 15.6096 26.0095 15.6095 26.0858C15.6543 26.3843 15.7931 26.5775 16.0112 26.7815C16.3537 26.9787 16.7789 26.9294 17.1612 26.9296C17.2246 26.9304 17.2879 26.9311 17.3532 26.9319C17.784 26.9328 18.1466 26.9303 18.4984 26.6567C18.8073 26.2595 18.7789 25.8098 18.7752 25.3273C18.7757 25.2645 18.7761 25.2017 18.7766 25.137C18.7841 24.5671 18.7841 24.5671 18.5474 24.0647C18.1388 23.7632 17.8045 23.7837 17.3105 23.7807C17.1859 23.7797 17.0614 23.7769 16.9368 23.7742C16.3343 23.7642 16.3343 23.7642 15.8279 24.0486ZM21.5782 24.1773C21.364 24.5267 21.4277 24.9513 21.4261 25.3468C21.4249 25.4261 21.4236 25.5055 21.4222 25.5872C21.4219 25.6639 21.4216 25.7407 21.4213 25.8198C21.4207 25.8898 21.4201 25.9598 21.4195 26.0319C21.4451 26.2618 21.509 26.4091 21.6289 26.606C22.0673 26.9512 22.4477 26.9309 22.9855 26.9335C23.0516 26.9348 23.1177 26.9361 23.1858 26.9374C23.5858 26.9394 23.8868 26.9056 24.2486 26.7308C24.6468 26.3326 24.5739 25.8659 24.5761 25.3351C24.5774 25.2591 24.5787 25.183 24.58 25.1046C24.5803 25.031 24.5806 24.9573 24.581 24.8814C24.5816 24.8144 24.5821 24.7474 24.5827 24.6784C24.5476 24.3729 24.4407 24.1718 24.2135 23.9668C23.8826 23.7376 23.5377 23.7829 23.1484 23.7807C23.0181 23.7797 22.8878 23.7769 22.7575 23.7742C22.674 23.7735 22.5905 23.773 22.507 23.7726C22.4313 23.7717 22.3557 23.7708 22.2778 23.7698C21.9734 23.8118 21.779 23.9487 21.5782 24.1773ZM27.3791 24.1695C27.1819 24.512 27.2312 24.9372 27.231 25.3195C27.2302 25.3829 27.2294 25.4463 27.2286 25.5115C27.2278 25.9423 27.2303 26.3049 27.5039 26.6567C27.8987 26.9639 28.3493 26.9389 28.8293 26.9374C28.8916 26.9384 28.9539 26.9394 29.018 26.9404C29.4063 26.9407 29.6978 26.8986 30.0496 26.7308C30.4182 26.3527 30.3768 25.9701 30.3798 25.4688C30.3809 25.3442 30.3837 25.2197 30.3864 25.0951C30.3964 24.4926 30.3964 24.4926 30.1119 23.9863C29.7247 23.7514 29.3723 23.7685 28.9305 23.7713C28.8023 23.7718 28.6744 23.77 28.5462 23.7681C28.4239 23.7681 28.4239 23.7681 28.2991 23.7682C28.1881 23.768 28.1881 23.768 28.0747 23.7678C27.7763 23.8127 27.5831 23.9515 27.3791 24.1695ZM33.2092 24.1562C33.088 24.3961 33.0746 24.5548 33.075 24.8227C33.0749 24.8658 33.0748 24.9088 33.0747 24.9531C33.0748 25.0436 33.0756 25.134 33.0769 25.2244C33.0787 25.3623 33.0781 25.5 33.0773 25.6379C33.0645 26.1852 33.0645 26.1852 33.2931 26.6684C33.6976 26.9665 34.1451 26.9293 34.6264 26.9296C34.6897 26.9304 34.7531 26.9311 34.8184 26.9319C35.3926 26.9437 35.3926 26.9437 35.8968 26.7035C36.1945 26.2928 36.1779 26.012 36.1808 25.5092C36.1818 25.3796 36.1846 25.25 36.1873 25.1203C36.2006 24.5059 36.2006 24.5059 35.9129 23.9863C35.6401 23.8217 35.4363 23.7752 35.1195 23.7743C35.0408 23.774 34.9621 23.7738 34.881 23.7735C34.7995 23.7743 34.7181 23.775 34.6342 23.7757C34.512 23.7747 34.512 23.7747 34.3873 23.7735C34.3086 23.7738 34.2299 23.774 34.1488 23.7743C34.0774 23.7745 34.0059 23.7747 33.9323 23.7749C33.6084 23.8136 33.4223 23.9085 33.2092 24.1562Z" fill="#F44C2F"/>
</g>
<defs>
<filter id="filter0_dddd_18351_33187" x="0" y="0" width="40" height="33.6348" filterUnits="userSpaceOnUse" color-interpolation-filters="sRGB">
<feFlood flood-opacity="0" result="BackgroundImageFix"/>
<feColorMatrix in="SourceAlpha" type="matrix" values="0 0 0 0 0 0 0 0 0 0 0 0 0 0 0 0 0 0 127 0" result="hardAlpha"/>
<feOffset/>
<feGaussianBlur stdDeviation="0.5"/>
<feColorMatrix type="matrix" values="0 0 0 0 0 0 0 0 0 0 0 0 0 0 0 0 0 0 0.1 0"/>
<feBlend mode="normal" in2="BackgroundImageFix" result="effect1_dropShadow_18351_33187"/>
<feColorMatrix in="SourceAlpha" type="matrix" values="0 0 0 0 0 0 0 0 0 0 0 0 0 0 0 0 0 0 127 0" result="hardAlpha"/>
<feOffset dx="-1" dy="1"/>
<feGaussianBlur stdDeviation="0.5"/>
<feColorMatrix type="matrix" values="0 0 0 0 0 0 0 0 0 0 0 0 0 0 0 0 0 0 0.09 0"/>
<feBlend mode="normal" in2="effect1_dropShadow_18351_33187" result="effect2_dropShadow_18351_33187"/>
<feColorMatrix in="SourceAlpha" type="matrix" values="0 0 0 0 0 0 0 0 0 0 0 0 0 0 0 0 0 0 127 0" result="hardAlpha"/>
<feOffset dx="-3" dy="2"/>
<feGaussianBlur stdDeviation="1"/>
<feColorMatrix type="matrix" values="0 0 0 0 0 0 0 0 0 0 0 0 0 0 0 0 0 0 0.05 0"/>
<feBlend mode="normal" in2="effect2_dropShadow_18351_33187" result="effect3_dropShadow_18351_33187"/>
<feColorMatrix in="SourceAlpha" type="matrix" values="0 0 0 0 0 0 0 0 0 0 0 0 0 0 0 0 0 0 127 0" result="hardAlpha"/>
<feOffset dx="-5" dy="3"/>
<feGaussianBlur stdDeviation="1"/>
<feColorMatrix type="matrix" values="0 0 0 0 0 0 0 0 0 0 0 0 0 0 0 0 0 0 0.01 0"/>
<feBlend mode="normal" in2="effect3_dropShadow_18351_33187" result="effect4_dropShadow_18351_33187"/>
<feBlend mode="normal" in="SourceGraphic" in2="effect4_dropShadow_18351_33187" result="shape"/>
</filter>
</defs>
</svg>
