<?xml version="1.0" encoding="UTF-8"?>
<!DOCTYPE svg PUBLIC "-//W3C//DTD SVG 1.1//EN" "http://www.w3.org/Graphics/SVG/1.1/DTD/svg11.dtd">
<svg xmlns="http://www.w3.org/2000/svg" version="1.1" width="512px" height="512px" style="shape-rendering:geometricPrecision; text-rendering:geometricPrecision; image-rendering:optimizeQuality; fill-rule:evenodd; clip-rule:evenodd" xmlns:xlink="http://www.w3.org/1999/xlink">
<g><path style="opacity:0.986" fill="#fff" d="M 349.5,132.5 C 402.234,129.946 442.4,150.946 470,195.5C 493.721,243.995 489.721,289.995 458,333.5C 421.705,373.706 377.205,386.873 324.5,373C 276.692,355.566 248.525,321.733 240,271.5C 235.652,217.696 256.152,176.529 301.5,148C 316.627,139.727 332.627,134.56 349.5,132.5 Z M 348.5,213.5 C 352.131,213.16 355.464,213.994 358.5,216C 373.424,227.379 388.257,238.879 403,250.5C 405.347,256.462 403.847,261.296 398.5,265C 385.167,275 371.833,285 358.5,295C 351.321,299.282 345.821,297.782 342,290.5C 341.333,267.167 341.333,243.833 342,220.5C 343.018,216.985 345.185,214.652 348.5,213.5 Z"/></g>
<g><path style="opacity:0.99" fill="#fff" d="M 93.5,175.5 C 134.839,175.167 176.172,175.5 217.5,176.5C 190.833,229.167 190.833,281.833 217.5,334.5C 176.171,335.667 134.837,335.833 93.5,335C 54.0959,326.595 31.5959,302.429 26,262.5C 24.3582,226.604 39.1915,200.104 70.5,183C 78.0296,179.709 85.6963,177.209 93.5,175.5 Z"/></g>
</svg>
