<?xml version="1.0" encoding="UTF-8"?>
<!DOCTYPE svg PUBLIC "-//W3C//DTD SVG 1.1//EN" "http://www.w3.org/Graphics/SVG/1.1/DTD/svg11.dtd">
<svg xmlns="http://www.w3.org/2000/svg" version="1.1" width="512px" height="512px" style="shape-rendering:geometricPrecision; text-rendering:geometricPrecision; image-rendering:optimizeQuality; fill-rule:evenodd; clip-rule:evenodd" xmlns:xlink="http://www.w3.org/1999/xlink">
<g><path style="opacity:0.986" fill="#fff" d="M 337.5,151.5 C 383.224,147.946 418.391,165.28 443,203.5C 462.38,241.815 460.713,279.148 438,315.5C 406.328,355.553 365.828,368.386 316.5,354C 300.345,347.835 286.345,338.501 274.5,326C 219.463,325.979 164.463,325.312 109.5,324C 75.1733,314.159 56.8399,291.326 54.5,255.5C 56.1045,225.76 70.1045,204.26 96.5,191C 102.317,188.712 108.317,187.046 114.5,186C 167.833,185.667 221.167,185.333 274.5,185C 291.897,166.969 312.897,155.803 337.5,151.5 Z M 352.5,167.5 C 398.337,171.502 426.837,195.836 438,240.5C 442.715,282.238 426.882,313.404 390.5,334C 352.369,350.242 318.202,344.075 288,315.5C 263.516,286.797 258.183,254.797 272,219.5C 288.809,186.677 315.642,169.344 352.5,167.5 Z M 116.5,202.5 C 164.834,202.333 213.168,202.5 261.5,203C 242.833,238 242.833,273 261.5,308C 213.167,308.667 164.833,308.667 116.5,308C 88.7692,301.434 73.7692,283.934 71.5,255.5C 73.9599,227.05 88.9599,209.383 116.5,202.5 Z M 342.5,231.5 C 356.303,239.236 369.97,247.236 383.5,255.5C 370.082,263.626 356.582,271.626 343,279.5C 342.5,263.503 342.333,247.503 342.5,231.5 Z"/></g>
<g><path style="opacity:0.99" fill="#fff" d="M 333.5,207.5 C 359.296,220.65 384.463,234.984 409,250.5C 411.492,256.358 409.992,260.858 404.5,264C 381.168,277.58 357.668,290.746 334,303.5C 330.206,303.044 327.539,301.044 326,297.5C 325.333,269.5 325.333,241.5 326,213.5C 327.542,210.108 330.042,208.108 333.5,207.5 Z M 342.5,231.5 C 342.333,247.503 342.5,263.503 343,279.5C 356.582,271.626 370.082,263.626 383.5,255.5C 369.97,247.236 356.303,239.236 342.5,231.5 Z"/></g>
</svg>
