<svg xmlns="http://www.w3.org/2000/svg" width="24" height="24" viewBox="0 0 24 24">
    <g id="prefix__checkmark" transform="translate(-543 -3689)">
        <path id="prefix__Path_407" d="M10.864 3.887l-.717-.487a.435.435 0 0 0-.6.114L6.025 8.7 4.409 7.085a.434.434 0 0 0-.613 0l-.615.615a.436.436 0 0 0 0 .614L5.667 10.8a.843.843 0 0 0 .555.245.668.668 0 0 0 .524-.31l4.234-6.246a.433.433 0 0 0-.116-.602z" data-name="Path 407" transform="translate(547.945 3693.676)" style="fill:#3737b6"/>
        <path id="prefix__Rectangle_1032" d="M0 0H24V24H0z" data-name="Rectangle 1032" transform="translate(543 3689)" style="fill:none"/>
    </g>
</svg>
