<svg xmlns="http://www.w3.org/2000/svg" width="24" height="24" viewBox="0 0 24 24">
    <g id="prefix__faq" transform="translate(-192 -419)">
        <path id="prefix__Path_1466" d="M7.92 0a1.425 1.425 0 0 0-1.44 1.44V7.2a1.425 1.425 0 0 0 1.44 1.44h5.625l2.779 2.43a.361.361 0 0 0 .236.09.337.337 0 0 0 .146-.034.357.357 0 0 0 .214-.326V8.6A1.42 1.42 0 0 0 18 7.2V1.44A1.425 1.425 0 0 0 16.56 0zm3.96 2.194h.754l.866 4.14h-.653l-.214-1.08h-.787l-.214 1.08h-.652zm.36.686c-.037.288-.11.682-.146.934l-.18.934h.686l-.18-.934a7.373 7.373 0 0 1-.146-.934zM1.44 6.84A1.425 1.425 0 0 0 0 8.28v5.76a1.422 1.422 0 0 0 1.08 1.395v2.205a.357.357 0 0 0 .214.326.337.337 0 0 0 .146.034.364.364 0 0 0 .236-.09l2.779-2.43h5.625a1.425 1.425 0 0 0 1.44-1.44V9.36h-3.6A2.138 2.138 0 0 1 5.76 7.2v-.36zM5.614 9c.863 0 1.193.931 1.193 2.048 0 1.08-.256 1.7-.653 1.913v.034a7.041 7.041 0 0 0 .8.292l-.225.506c-.323-.143-.75-.363-1-.506a.646.646 0 0 0-.18-.079c-.757 0-1.226-.712-1.226-2.115C4.32 9.869 4.785 9 5.614 9zm-.034.54c-.432 0-.574.751-.574 1.508 0 .863.142 1.586.574 1.586.4 0 .54-.723.54-1.586 0-.792-.143-1.508-.54-1.508z" data-name="Path 1466" transform="translate(195 422)" style="fill:#3737b6"/>
        <path id="prefix__Rectangle_1277" d="M0 0H24V24H0z" data-name="Rectangle 1277" transform="translate(192 419)" style="fill:none"/>
    </g>
</svg>
