<svg xmlns="http://www.w3.org/2000/svg" id="prefix__farsi-logotype" width="34.93" height="10.837" viewBox="0 0 34.93 10.837">
    <defs>
        <style>
            .prefix__cls-1{fill:#3737b6}
        </style>
    </defs>
    <path id="prefix__Path_57" d="M978.882 319.805a2.775 2.775 0 0 0-.712-1.737 1.87 1.87 0 0 0-1.53-.586 1.755 1.755 0 0 0-1.4.751 2.7 2.7 0 0 0-.468 1.662 1.767 1.767 0 0 0 .53 1.321 1.9 1.9 0 0 0 1.361.489 11.714 11.714 0 0 0 1.344-.079c.037.349-.035.574-.217.678a3.4 3.4 0 0 1-1.332.154h-2.166a1.015 1.015 0 0 1-.694-.183 1.039 1.039 0 0 1-.24-.661v-.014l-.156-1.594a.155.155 0 0 0-.227-.122l-.709.374a.155.155 0 0 0-.082.151l.117 1.3a.64.64 0 0 1-.183.574 1.138 1.138 0 0 1-.74.183h-1.713a.841.841 0 0 1-.934-.911l-.247-3.857a.156.156 0 0 0-.227-.133l-.744.392a.156.156 0 0 0-.083.143l.254 3.569a.793.793 0 0 1-.191.574.969.969 0 0 1-.746.228h-1.509a.933.933 0 0 1-1.032-1.025 2.634 2.634 0 0 0-.273-1.157 1.755 1.755 0 0 0-.751-.78 1.7 1.7 0 0 0-2.323.752l-.581 1.139-.5-.262-.717.478.118 4.352a.155.155 0 0 0 .225.135l.751-.375a.158.158 0 0 0 .086-.146l-.12-3.008 1.912.99a1.234 1.234 0 0 0 .985.086 1.417 1.417 0 0 0 .765-.633 1.759 1.759 0 0 0 1.374.635h1.593a1.964 1.964 0 0 0 1.5-.593 1.816 1.816 0 0 0 1.412.593h1.709a2.075 2.075 0 0 0 1.48-.524 1.815 1.815 0 0 0 1.321.519h2.255a3.309 3.309 0 0 0 2.146-.49A1.923 1.923 0 0 0 979 321.5zm-.956.8l-1.08.1a1.085 1.085 0 0 1-1.182-.974 1.084 1.084 0 0 1 .98-1.183 1.084 1.084 0 0 1 1.179.981l.1 1.08m-17 1.156l.58-.838a1.034 1.034 0 0 1 1.446-.24 1.04 1.04 0 0 1 .287 1.441 1.034 1.034 0 0 1-1.446.236l-.866-.6" class="prefix__cls-1" data-name="Path 57" transform="translate(-959.06 -315.283)"/>
    <circle id="prefix__Ellipse_13" cx=".813" cy=".813" r=".813" class="prefix__cls-1" data-name="Ellipse 13" transform="translate(31.012 9.193)"/>
    <circle id="prefix__Ellipse_14" cx=".813" cy=".813" r=".813" class="prefix__cls-1" data-name="Ellipse 14" transform="translate(29.22 9.193)"/>
    <circle id="prefix__Ellipse_15" cx=".813" cy=".813" r=".813" class="prefix__cls-1" data-name="Ellipse 15" transform="translate(32.804 9.193)"/>
    <circle id="prefix__Ellipse_16" cx=".853" cy=".853" r=".853" class="prefix__cls-1" data-name="Ellipse 16" transform="translate(28.256)"/>
    <path id="prefix__Path_58" d="M1198.56 331.623l-.544-2.162a.154.154 0 0 0-.246-.081l-.644.521a.153.153 0 0 0-.053.159l.45 1.8q.191.728-.1 1.019a1.31 1.31 0 0 1-.956.287H1195a5.93 5.93 0 0 1-.66-.034h-.135l.255-.3a2.129 2.129 0 1 0-3 .228l.044.037h-.09a5.742 5.742 0 0 1-.854.069h-.426q-1.8 0-2.374-.046a2.964 2.964 0 0 1-.849-.16.751.751 0 0 1-.439-.4 1.2 1.2 0 0 1 .017-.7l.465-1.753a.154.154 0 0 0-.045-.152l-.619-.574a.154.154 0 0 0-.253.075l-.551 2.06a2.448 2.448 0 0 0 .034 1.537 1.767 1.767 0 0 0 .97.994 3.887 3.887 0 0 0 1.088.245q.643.063 2.5.063h.478a6.615 6.615 0 0 0 2.3-.433 5.849 5.849 0 0 0 2.142.433h1.46a2.254 2.254 0 0 0 1.793-.741 2.048 2.048 0 0 0 .309-1.991zm-5.71 1.269l-.765-.765a1.084 1.084 0 0 1 0-1.53 1.084 1.084 0 0 1 1.53 0 1.084 1.084 0 0 1 0 1.53l-.765.765" class="prefix__cls-1" data-name="Path 58" transform="translate(-1163.748 -325.996)"/>
    <circle id="prefix__Ellipse_17" cx=".853" cy=".853" r=".853" class="prefix__cls-1" data-name="Ellipse 17" transform="translate(16.615 .009)"/>
    <circle id="prefix__Ellipse_18" cx=".813" cy=".813" r=".813" class="prefix__cls-1" data-name="Ellipse 18" transform="translate(11.986 9.193)"/>
    <circle id="prefix__Ellipse_19" cx=".813" cy=".813" r=".813" class="prefix__cls-1" data-name="Ellipse 19" transform="translate(10.194 9.193)"/>
</svg>
