<svg xmlns="http://www.w3.org/2000/svg" width="24" height="24" viewBox="0 0 24 24">
    <g id="prefix__kids-version" transform="translate(-162 -347)">
        <path id="prefix__Path_446" d="M12.01 3a.319.319 0 0 0-.271.175l-.28.561-.324-.326a.32.32 0 0 0-.541.179l-.62 4.034a1.2 1.2 0 0 0-.338.785v.133a2.359 2.359 0 0 0 .131 3.352c-.01.037-.024.075-.031.111a4.2 4.2 0 0 1-.218.534 1.544 1.544 0 0 0-.2.643c0 .744 1.172 1.269 2.228 1.483.021 0 .694.108.953.108a9.838 9.838 0 0 0 1.96-.158.312.312 0 0 1 .042-.385.318.318 0 0 1 .45 0l.636.636a.318.318 0 1 1-.45.45l-.173-.174a8.42 8.42 0 0 1-2.466.267 4.353 4.353 0 0 1-.587-.045.9.9 0 0 0 .891.67.1.1 0 0 1 .014.032v.614a.318.318 0 0 0 .093.225.314.314 0 0 0 .225.094h1.909c1.377 0 1.755-.333 1.838-.436a.315.315 0 0 0 .071-.2 6.353 6.353 0 0 1 .283-2.072 1.068 1.068 0 0 0 .612-.186 1.106 1.106 0 0 0 .378-.923.9.9 0 0 0-.239-.621.932.932 0 0 0-.36-.227 45.93 45.93 0 0 1 1.856-7.006.318.318 0 0 0-.42-.4l-.442.174-.082-.419a.32.32 0 0 0-.2-.232.309.309 0 0 0-.3.041l-.217.163-.073-.436a.327.327 0 0 0-.18-.239.315.315 0 0 0-.3.016l-.394.239-.083-.493a.319.319 0 0 0-.512-.2l-.439.35-.175-.522a.313.313 0 0 0-.229-.206.324.324 0 0 0-.3.082l-.347.35-.267-.445a.314.314 0 0 0-.25-.15.325.325 0 0 0-.272.121l-.349.435-.242-.4a.314.314 0 0 0-.25-.156.325.325 0 0 0-.271.122l-.349.435-.242-.4A.311.311 0 0 0 12.01 3zm-.624 5.409a1.731 1.731 0 0 1 1.176.462 2.372 2.372 0 0 0-.1 2.4H11.4a.478.478 0 1 0 0 .955h.6a.318.318 0 1 1 0 .636h-.6a1.124 1.124 0 0 1-1.132-1.114 1.065 1.065 0 0 1 .025-.229 1.359 1.359 0 0 1-.126-.113l-.045-.045a1.535 1.535 0 0 1-.1-.117L10 11.221a1.73 1.73 0 0 1-.21-.347 1.722 1.722 0 0 1-.155-.716 1.753 1.753 0 0 1 1.751-1.749zm3.182 0a1.75 1.75 0 1 1-1.75 1.75 1.753 1.753 0 0 1 1.75-1.75zM11.227 10a.318.318 0 1 0 .318.318.319.319 0 0 0-.318-.318zm3.182.318a.318.318 0 1 0 .318.318.319.319 0 0 0-.318-.318zm2.739 2.55a1.02 1.02 0 0 1 .194.032.445.445 0 0 1 .189.1.214.214 0 0 1 .06.18c0 .3-.063.369-.119.409a.674.674 0 0 1-.358.068.955.955 0 0 1-.237-.081c-.29-.126-.426-.676.271-.708z" data-name="Path 446" transform="translate(160 349.001)" style="fill:#3737b6"/>
        <path id="prefix__Rectangle_1054" d="M0 0H24V24H0z" data-name="Rectangle 1054" transform="translate(162 347)" style="fill:none"/>
    </g>
</svg>
