<svg xmlns="http://www.w3.org/2000/svg" width="24" height="24" viewBox="0 0 24 24">
    <g id="prefix__telegram" transform="translate(-647 -3728)">
        <path id="prefix__Path_396" d="M21.113 3.984a2.2 2.2 0 0 0-.731.179c-.2.08-.987.415-2.216.942s-2.858 1.226-4.592 1.974C10.1 8.573 6.19 10.253 4.191 11.115a2.239 2.239 0 0 0-.616.332A1.584 1.584 0 0 0 3 12.619a1.541 1.541 0 0 0 .434 1.047 2.11 2.11 0 0 0 .722.447c.8.329 3.276 1.341 3.743 1.533.166.5 1.063 3.248 1.271 3.922a2.957 2.957 0 0 0 .437.942 1.274 1.274 0 0 0 .3.281 1.145 1.145 0 0 0 .153.077.179.179 0 0 0 .035.016.329.329 0 0 0 .07.016 1.174 1.174 0 0 0 .364.067 1.23 1.23 0 0 0 .77-.262l.019-.013 2.459-2.13 2.986 2.823a1.552 1.552 0 0 0 1.3.6 1.642 1.642 0 0 0 1.182-.533 1.772 1.772 0 0 0 .5-.923c.064-.345 2.813-14.463 2.813-14.463v.019a2.238 2.238 0 0 0 .013-1.047 1.432 1.432 0 0 0-.613-.833 1.453 1.453 0 0 0-.845-.221zm-.153 1.708c-.006.022 0 .013 0 .042v.019s-2.714 13.936-2.813 14.466c.006-.038-.029.041-.064.089a.952.952 0 0 0-.147-.077l-.016-.016-4.078-3.858-2.88 2.491.859-3.433s5.359-5.547 5.681-5.873c.259-.255.313-.348.313-.438a.184.184 0 0 0-.2-.2.92.92 0 0 0-.383.179c-1.169.747-6.313 3.746-8.619 5.084-.367-.147-2.912-1.191-3.775-1.542h.013c2-.862 5.9-2.545 9.376-4.037 1.737-.747 3.369-1.447 4.6-1.974 1.194-.526 2.037-.883 2.133-.922z" data-name="Path 396" transform="translate(646 3727.018)" style="fill:#3737b6"/>
        <path id="prefix__Rectangle_1013" d="M0 0H24V24H0z" data-name="Rectangle 1013" transform="translate(647 3728)" style="fill:none"/>
    </g>
</svg>
