<svg xmlns="http://www.w3.org/2000/svg" width="24" height="24" viewBox="0 0 24 24">
    <g id="prefix__version" transform="translate(-155 -423)">
        <path id="prefix__Path_1470" d="M11 3a2 2 0 0 0-2 2v14a2 2 0 0 0 2 2h8a2 2 0 0 0 2-2V5a2 2 0 0 0-2-2zM8 4a2.014 2.014 0 0 0-2 2v12a2.014 2.014 0 0 0 2 2zM5 6a2.014 2.014 0 0 0-2 2v8a2.014 2.014 0 0 0 2 2z" data-name="Path 1470" transform="translate(155 423)" style="fill:#3737b6"/>
        <path id="prefix__Rectangle_1281" d="M0 0H24V24H0z" data-name="Rectangle 1281" transform="translate(155 423)" style="fill:none"/>
    </g>
</svg>
