<svg xmlns="http://www.w3.org/2000/svg" width="24" height="24" viewBox="0 0 24 24">
    <g id="prefix__whatsapp" transform="translate(-485 -3649)">
        <path id="prefix__Path_415" d="M11 3a7.988 7.988 0 0 0-6.859 12.1L3.073 19l3.982-1.044A8 8 0 1 0 11 3zM8.26 7.268c.13 0 .266 0 .38.005.143 0 .3.013.445.341.177.393.563 1.372.612 1.471a.359.359 0 0 1 .016.346 1.412 1.412 0 0 1-.2.331c-.1.117-.208.258-.3.344-.1.1-.2.208-.086.406a5.862 5.862 0 0 0 1.1 1.372 5.353 5.353 0 0 0 1.594.982c.2.1.312.086.43-.047s.495-.578.628-.776.263-.164.443-.1 1.156.544 1.357.646.328.148.378.229a1.607 1.607 0 0 1-.115.94 1.983 1.983 0 0 1-1.333.94c-.367.036-.708.167-2.38-.492a8.153 8.153 0 0 1-3.388-2.992 3.846 3.846 0 0 1-.8-2.047 2.229 2.229 0 0 1 .69-1.654.729.729 0 0 1 .529-.245z" data-name="Path 415" transform="translate(486 3650)" style="fill:#3737b6"/>
        <path id="prefix__Rectangle_1022" d="M0 0H24V24H0z" data-name="Rectangle 1022" transform="translate(485 3649)" style="fill:none"/>
    </g>
</svg>
