<svg xmlns="http://www.w3.org/2000/svg" width="24" height="24" viewBox="0 0 24 24">
    <g id="prefix__app-update" transform="translate(-113 -374)">
        <path id="prefix__Path_448" d="M9.273 2a7.273 7.273 0 1 0 0 14.545 7.491 7.491 0 0 0 1.048-.082 4.389 4.389 0 1 0-.8-1.386c-.082 0-.165.014-.25.014A5.818 5.818 0 1 1 12.591 4.5l-1.136 1.136h3.636V2l-1.455 1.455A7.257 7.257 0 0 0 9.273 2zm6.4 9.673l1.017 1.017-3.418 3.42-2.327-2.33 1.017-1.017 1.31 1.307z" data-name="Path 448" transform="translate(115 376)" style="fill:#3737b6"/>
        <path id="prefix__Rectangle_1056" d="M0 0H24V24H0z" data-name="Rectangle 1056" transform="translate(113 374)" style="fill:none"/>
    </g>
</svg>
