<svg xmlns="http://www.w3.org/2000/svg" width="24" height="24" viewBox="0 0 24 24">
    <g id="prefix__call-us" transform="translate(-264 -400)">
        <path id="prefix__Path_1467" d="M10.346 17.48a1.013 1.013 0 0 0 0-1.027l-.954-1.6a1 1 0 0 1 .067-1.134 25.439 25.439 0 0 1 1.987-2.28 25.963 25.963 0 0 1 2.274-1.986 1 1 0 0 1 1.134-.067l1.6.954a1.006 1.006 0 0 0 1.027 0L21.5 7.995a1.017 1.017 0 0 0 .474-1.119 3.381 3.381 0 0 0-.935-1.556c-1.813-1.81-4.866-2.772-11.673 4.038s-5.855 9.864-4.042 11.676a3.366 3.366 0 0 0 1.556.935 1.009 1.009 0 0 0 1.112-.469z" data-name="Path 1467" transform="rotate(180 144.5 212.499)" style="fill:#3737b6"/>
        <path id="prefix__Rectangle_1278" d="M0 0H24V24H0z" data-name="Rectangle 1278" transform="translate(264 400)" style="fill:none"/>
    </g>
</svg>
