<svg xmlns="http://www.w3.org/2000/svg" width="24" height="24" viewBox="0 0 24 24">
    <g id="prefix__gift" transform="translate(-151 -420)">
        <path id="prefix__Path_1469" d="M8.3 2a2.714 2.714 0 0 0-2.7 2.7 2.655 2.655 0 0 0 .169.9H2v3.6h.9v8.1a1.8 1.8 0 0 0 1.8 1.8h5.4V9.2h1.8v9.9h5.4a1.8 1.8 0 0 0 1.8-1.8V9.2h.9V5.6h-3.769a2.655 2.655 0 0 0 .169-.9A2.714 2.714 0 0 0 13.7 2a2.675 2.675 0 0 0-1.8.71v-.021l-.9.9-.9-.9v.021A2.675 2.675 0 0 0 8.3 2zm0 1.8a.9.9 0 1 1-.9.9.888.888 0 0 1 .9-.9zm5.4 0a.9.9 0 1 1-.9.9.888.888 0 0 1 .9-.9z" data-name="Path 1469" transform="translate(152 421)" style="fill:#3737b6"/>
        <path id="prefix__Rectangle_1280" d="M0 0H24V24H0z" data-name="Rectangle 1280" transform="translate(151 420)" style="fill:none"/>
    </g>
</svg>
