<svg xmlns="http://www.w3.org/2000/svg" width="24" height="24" viewBox="0 0 24 24">
    <g id="prefix__pause" transform="translate(0 .469)">
        <path id="prefix__Path_46" d="M6.75 5a.751.751 0 0 0-.75.75v10.5a.751.751 0 0 0 .75.75H9a.751.751 0 0 0 .75-.75V5.75A.751.751 0 0 0 9 5zm6.75 0a.751.751 0 0 0-.75.75v10.5a.751.751 0 0 0 .75.75h2.25a.751.751 0 0 0 .75-.75V5.75a.751.751 0 0 0-.75-.75z" data-name="Path 46" transform="translate(1 .531)" style="fill:#3737b6"/>
        <path id="prefix__Rectangle_205" d="M0 0H24V24H0z" data-name="Rectangle 205" transform="translate(0 -.469)" style="fill:none"/>
    </g>
</svg>
