<svg xmlns="http://www.w3.org/2000/svg" width="24" height="24" viewBox="0 0 24 24">
    <g id="prefix__setting" transform="translate(-249 -70)">
        <path id="prefix__Path_48" d="M19.677 9.522l-2.313-.379a6.717 6.717 0 0 0-.552-1.331l1.35-1.924a.392.392 0 0 0-.044-.5L16.6 3.865a.391.391 0 0 0-.506-.041l-1.9 1.362a6.567 6.567 0 0 0-1.342-.558l-.4-2.3A.393.393 0 0 0 12.063 2H9.911a.391.391 0 0 0-.387.329l-.375 2.29a6.679 6.679 0 0 0-1.349.553l-1.89-1.35a.39.39 0 0 0-.5.041L3.889 5.384a.392.392 0 0 0-.044.5l1.33 1.9a6.77 6.77 0 0 0-.563 1.354l-2.281.381A.389.389 0 0 0 2 9.907v2.152a.39.39 0 0 0 .323.385l2.281.405a6.6 6.6 0 0 0 .568 1.351l-1.347 1.887a.39.39 0 0 0 .041.5l1.521 1.522a.392.392 0 0 0 .5.044l1.906-1.334a6.612 6.612 0 0 0 1.348.556l.382 2.293a.389.389 0 0 0 .388.332h2.153a.392.392 0 0 0 .385-.323l.408-2.305a6.559 6.559 0 0 0 1.342-.561l1.92 1.345a.39.39 0 0 0 .5-.043l1.521-1.522a.391.391 0 0 0 .041-.506l-1.368-1.9a6.648 6.648 0 0 0 .55-1.334l2.316-.407a.391.391 0 0 0 .321-.385V9.907a.388.388 0 0 0-.323-.385zM11 13.739A2.739 2.739 0 1 1 13.743 11 2.739 2.739 0 0 1 11 13.739z" data-name="Path 48" transform="translate(249.996 71)" style="fill:#3737b6"/>
        <path id="prefix__Rectangle_208" d="M0 0H24V24H0z" data-name="Rectangle 208" transform="translate(249 70)" style="fill:none"/>
    </g>
</svg>
