<svg xmlns="http://www.w3.org/2000/svg" width="24" height="24" viewBox="0 0 24 24">
    <g id="prefix__share" transform="translate(-40 -306)">
        <path id="prefix__Path_433" d="M13.5 2a2.1 2.1 0 0 0-2.1 2.1 2.132 2.132 0 0 0 .038.394L6.456 7.4a2.1 2.1 0 1 0 0 3.2l4.982 2.907a2.132 2.132 0 0 0-.038.394 2.107 2.107 0 1 0 .744-1.6L7.162 9.394a2.044 2.044 0 0 0 0-.787l4.982-2.9A2.1 2.1 0 1 0 13.5 2z" data-name="Path 433" transform="translate(42 309)" style="fill:#3737b6"/>
        <path id="prefix__Rectangle_1044" d="M0 0H24V24H0z" data-name="Rectangle 1044" transform="translate(40 306)" style="fill:none"/>
    </g>
</svg>
