<svg xmlns="http://www.w3.org/2000/svg" id="prefix__twitter" width="24" height="24" viewBox="0 0 24 24">
    <path id="prefix__Path_23" d="M8.077 20A11.066 11.066 0 0 0 19.509 9a8.092 8.092 0 0 0 1.479-2.84.44.44 0 0 0-.62-.51 1.878 1.878 0 0 1-2.159-.38 3.886 3.886 0 0 0-5.576-.17A4.132 4.132 0 0 0 11.484 9C8.137 9.2 5.838 7.61 4 5.43a.43.43 0 0 0-.75.24 9.682 9.682 0 0 0 4.6 10.05A6.724 6.724 0 0 1 3.38 18a.45.45 0 0 0-.14.84A10.987 10.987 0 0 0 8.077 20" data-name="Path 23" style="fill:#3737b6"/>
    <path id="prefix__Path_22" d="M0 0h24v24H0" data-name="Path 22" style="opacity:0;fill:#3737b6"/>
</svg>
