<svg xmlns="http://www.w3.org/2000/svg" width="24" height="24" viewBox="0 0 24 24">
    <g id="prefix__videomark" transform="translate(-100 -371)">
        <path id="prefix__Path_460" d="M15.5 2h-7A4.505 4.505 0 0 0 4 6.5v13.793A1 1 0 0 0 5.707 21l2.939-2.939a.5.5 0 0 1 .708 0L12.292 21A1 1 0 0 0 14 20.293V7a1 1 0 0 1 2 0h4v-.5A4.505 4.505 0 0 0 15.5 2z" data-name="Path 460" transform="translate(100 371)" style="fill:#FFFFFF"/>
        <path id="prefix__Rectangle_1122" d="M0 0H24V24H0z" data-name="Rectangle 1122" transform="translate(100 371)" style="fill:none"/>
    </g>
</svg>
