<svg xmlns="http://www.w3.org/2000/svg" width="24" height="24" viewBox="0 0 24 24">
    <g id="prefix__hide" transform="translate(-192 -484)">
        <path id="prefix__Path_95" d="M.847.293l-.7.7 13.9 13.9.7-.7-2.991-2.993a10.105 10.105 0 0 0 3.05-3.327.5.5 0 0 0-.023-.588c-.05-.083-2.91-4.656-7.337-4.656a6.983 6.983 0 0 0-3.358.9zm6.6 3.826a3.464 3.464 0 0 1 2.777 5.549L8.787 8.231a1.462 1.462 0 0 0 .147-.638A1.49 1.49 0 0 0 7.446 6.1a1.462 1.462 0 0 0-.638.147l-1.437-1.43a3.448 3.448 0 0 1 2.075-.698zm-4.987.535A12.4 12.4 0 0 0 .109 7.283a.5.5 0 0 0-.109.31.485.485 0 0 0 .081.271c.01.017 2.41 4.69 7.364 4.69a7.453 7.453 0 0 0 2.492-.425l-1.283-1.28a3.469 3.469 0 0 1-4.683-3.256 3.433 3.433 0 0 1 .221-1.208z" data-name="Path 95" transform="translate(197 488.707)" style="fill:#3737b6"/>
        <path id="prefix__Rectangle_242" d="M0 0H24V24H0z" data-name="Rectangle 242" transform="translate(192 484)" style="fill:none"/>
    </g>
</svg>
