<svg xmlns="http://www.w3.org/2000/svg" width="24" height="24" viewBox="0 0 24 24">
    <g id="prefix__log-out" transform="translate(-518 -3621)">
        <path id="prefix__Path_402" d="M16.25 3h-10A1.249 1.249 0 0 0 5 4.25v12.5A1.249 1.249 0 0 0 6.25 18h10a1.249 1.249 0 0 0 1.25-1.25V4.25A1.249 1.249 0 0 0 16.25 3zm-2.5 1.25A1.25 1.25 0 1 1 12.5 5.5a1.249 1.249 0 0 1 1.25-1.25zM9.119 14.741a.63.63 0 0 1-.369.134h-2.5a.626.626 0 0 1-.625-.625.665.665 0 0 1 .562-.623c.239-.056 2.209-.251 2.209-.251l.84-.9.85 1.382zm4.631 2.009a.615.615 0 0 1-.488-.251h-.007l-3.04-4.678-.029-.044v-.012a1.242 1.242 0 0 1-.181-.64 1.428 1.428 0 0 1 .022-.229v-.017l.413-2.537-1.06-.212-1.538 1.005a.617.617 0 0 1-.342.115.626.626 0 0 1-.625-.625.612.612 0 0 1 .286-.51l1.868-1.26a.629.629 0 0 1 .347-.1h2.5A1.249 1.249 0 0 1 13.125 8a1.339 1.339 0 0 1-.022.222v.024l-.623 3.118 1.848 4.507v.007l.007.017a.6.6 0 0 1 .044.22.626.626 0 0 1-.629.635zm2.5-5.625h-1.875a.6.6 0 0 1-.317-.088l-.259-.168.388-1.4.6.408h1.463a.625.625 0 1 1 0 1.25z" data-name="Path 402" transform="translate(519 3622)" style="fill:#3737b6"/>
        <path id="prefix__Rectangle_1031" d="M0 0H24V24H0z" data-name="Rectangle 1031" transform="translate(518 3621)" style="fill:none"/>
    </g>
</svg>
