<svg xmlns="http://www.w3.org/2000/svg" width="24" height="24" viewBox="0 0 24 24">
    <g id="prefix__discount" transform="translate(-84 -418)">
        <path id="prefix__Path_1472" d="M8.955 2.06a.948.948 0 0 0-.678.367L7.259 3.8 5.5 3.877a.885.885 0 0 0-.862.784L4.36 6.345l-1.489.862A.951.951 0 0 0 2.44 8.3l.549 1.65-.9 1.489a.955.955 0 0 0 .156 1.175l1.215 1.175-.16 1.725a.936.936 0 0 0 .667.98l1.645.468.666 1.607a.969.969 0 0 0 1.058.548l1.685-.352 1.333 1.1a.98.98 0 0 0 1.175 0l1.332-1.1 1.684.352a1 1 0 0 0 1.059-.548l.666-1.607 1.645-.468a.908.908 0 0 0 .667-.98l-.08-1.725 1.255-1.214a.9.9 0 0 0 .156-1.137l-.94-1.449.548-1.647a.9.9 0 0 0-.432-1.1l-1.488-.9-.275-1.723a.954.954 0 0 0-.862-.784l-1.725-.08-1.053-1.328a.919.919 0 0 0-1.137-.274l-1.568.747-1.567-.747a.9.9 0 0 0-.459-.093zm-.129 4.677a1.306 1.306 0 0 1 1.293.941 3.59 3.59 0 0 1 .081 1.214 5.008 5.008 0 0 1-.078 1.214 1.352 1.352 0 0 1-1.293.941 1.306 1.306 0 0 1-1.293-.941 3.59 3.59 0 0 1-.078-1.214 5.008 5.008 0 0 1 .078-1.214 1.352 1.352 0 0 1 1.29-.941zm4.31 0h.549c.078 0 .077.078.077.118l-4.7 8.384c-.038.078-.078.118-.156.118h-.549c-.078 0-.118-.078-.08-.118l4.663-8.384a.182.182 0 0 1 .196-.118zm-4.31.822a.557.557 0 0 0-.549.392 3.963 3.963 0 0 0-.038.98 8.718 8.718 0 0 0 .038.941.515.515 0 0 0 .549.392.555.555 0 0 0 .549-.392 3.744 3.744 0 0 0 .038-.941c0-.744-.038-.862-.038-.98a.515.515 0 0 0-.549-.392zm4.31 3.488a1.306 1.306 0 0 1 1.293.941 3.59 3.59 0 0 1 .078 1.214 5.008 5.008 0 0 1-.078 1.214 1.352 1.352 0 0 1-1.293.941 1.306 1.306 0 0 1-1.293-.941 3.59 3.59 0 0 1-.078-1.214 5.008 5.008 0 0 1 .078-1.214 1.352 1.352 0 0 1 1.293-.941zm0 .784a.555.555 0 0 0-.549.392 3.963 3.963 0 0 0-.038.98 8.753 8.753 0 0 0 .038.941.515.515 0 0 0 .549.392.557.557 0 0 0 .549-.392 3.744 3.744 0 0 0 .038-.941c0-.744-.038-.862-.038-.98a.555.555 0 0 0-.549-.393z" data-name="Path 1472" transform="translate(85.049 418.942)" style="fill:#3737b6"/>
        <path id="prefix__Rectangle_1283" d="M0 0H24V24H0z" data-name="Rectangle 1283" transform="translate(84 418)" style="fill:none"/>
    </g>
</svg>
