<svg xmlns="http://www.w3.org/2000/svg" width="24" height="24" viewBox="0 0 24 24">
    <g id="prefix__imdb" transform="translate(-198 -323)">
        <path id="prefix__Path_434" d="M2.308 7A2.267 2.267 0 0 0 0 9.308v5.385A2.267 2.267 0 0 0 2.308 17h15.384A2.267 2.267 0 0 0 20 14.692V9.308A2.267 2.267 0 0 0 17.692 7zm.841 2.067h1.322v5.553H3.149zm2 0h1.702l.457 2.62.313-2.62h1.85v5.553H8.317v-3.077l-.553 3.077h-.841l-.529-3.077v3.077h-1.25zm5 0h1.538a2.42 2.42 0 0 1 1.394.24.981.981 0 0 1 .385.841v3.317a.946.946 0 0 1-.385.769 2.245 2.245 0 0 1-1.394.312h-1.543zm3.7 0h1.391v1.25a1.443 1.443 0 0 1 .913-.385.833.833 0 0 1 .847.768v3.221a.57.57 0 0 1-.313.529 1.2 1.2 0 0 1-.6.1 8.1 8.1 0 0 1-.938-.24c-.078-.078-.144.313-.144.313h-1.159zm-2.38.865v3.678c.231 0 .529.015.529-.216v-3.245c.002-.231-.298-.216-.532-.216zm3.99.673c-.153 0-.144.087-.144.24v2.764c0 .153.066.24.144.24.153 0 .168-.087.168-.24v-2.763c-.002-.153-.092-.24-.17-.24z" data-name="Path 434" transform="translate(200 323)" style="fill:#3737b6"/>
        <path id="prefix__Rectangle_1045" d="M0 0H24V24H0z" data-name="Rectangle 1045" transform="translate(198 323)" style="fill:none"/>
    </g>
</svg>
