<svg xmlns="http://www.w3.org/2000/svg" width="24" height="24" viewBox="0 0 24 24">
    <g id="prefix__price" transform="translate(-82 -402)">
        <path id="prefix__Path_450" d="M20 9.192V3.37A1.371 1.371 0 0 0 18.63 2H12.564a1.774 1.774 0 0 0-1.339.378l-8.893 8.893a1.129 1.129 0 0 0 0 1.6l6.8 6.8a1.129 1.129 0 0 0 1.6 0l8.893-8.893A1.927 1.927 0 0 0 20 9.317zm-3.52-2.5a1.174 1.174 0 1 1 1.174-1.174A1.174 1.174 0 0 1 16.478 6.7z" data-name="Path 450" transform="translate(83 403)" style="fill:#3737b6"/>
        <path id="prefix__Rectangle_1058" d="M0 0H24V24H0z" data-name="Rectangle 1058" transform="translate(82 402)" style="fill:none"/>
    </g>
</svg>
