<svg xmlns="http://www.w3.org/2000/svg" width="24" height="24" viewBox="0 0 24 24">
    <g id="prefix__skip" transform="translate(-60 -291)">
        <path id="prefix__Path_431" d="M15.547 2l-2.468 2.464A7.168 7.168 0 0 0 1.547 7.6l1.62.54A5.475 5.475 0 0 1 8.36 4.395a5.417 5.417 0 0 1 3.505 1.285L9.386 8.158h6.16zM3.226 10.895a1.368 1.368 0 0 0-1.369 1.368v1.368A1.368 1.368 0 0 0 3.226 15H4.6a1.368 1.368 0 0 0 1.369-1.368v-1.369A1.368 1.368 0 0 0 4.6 10.895zm4.791 0a1.378 1.378 0 0 0-1.369 1.368v1.368A1.378 1.378 0 0 0 8.017 15h1.369a1.378 1.378 0 0 0 1.369-1.368v-1.369a1.378 1.378 0 0 0-1.369-1.368zm4.791 0a1.368 1.368 0 0 0-1.369 1.368v1.368A1.368 1.368 0 0 0 12.809 15h1.369a1.368 1.368 0 0 0 1.369-1.368v-1.369a1.368 1.368 0 0 0-1.369-1.368zm-4.791 1.368h1.369v1.368H8.017z" data-name="Path 431" transform="translate(63.453 295)" style="fill:#3737b6"/>
        <path id="prefix__Rectangle_1043" d="M0 0H24V24H0z" data-name="Rectangle 1043" transform="translate(60 291)" style="fill:none"/>
    </g>
</svg>
