<svg xmlns="http://www.w3.org/2000/svg" width="24" height="24" viewBox="0 0 24 24">
    <g id="prefix__translate" transform="translate(-78 -354)">
        <path id="prefix__Path_444" d="M4.556 3A1.555 1.555 0 0 0 3 4.556V10a1.555 1.555 0 0 0 1.556 1.556h3.888v3.889A1.555 1.555 0 0 0 10 17h5.444A1.555 1.555 0 0 0 17 15.444V10a1.555 1.555 0 0 0-1.556-1.556h-3.888V4.556A1.555 1.555 0 0 0 10 3zm2.722 1.556a.688.688 0 0 1 .653.48l1.169 3.7a1.547 1.547 0 0 0-.644 1.176.522.522 0 0 1-.24-.319l-.188-.708h-1.5l-.185.708a.545.545 0 1 1-1.048-.3l1.327-4.257a.688.688 0 0 1 .656-.48zm0 1.474l-.511 1.94h1.015zM12.5 10a2.484 2.484 0 0 1 1.094.234.25.25 0 0 1-.17.468 2.646 2.646 0 0 0-.69-.1c-.146 0-.556.131-.556.462 0 .413.632.532.811.532a4.749 4.749 0 0 0 1.045-.14l-.334 1.266a1.107 1.107 0 0 0-1.233-.182 1.066 1.066 0 0 0-.532 1.182c.322.7 1.294.936 2.011 1.012a.248.248 0 0 1 .061.48 3.44 3.44 0 0 1-1.273.231c-.905 0-2.054-.513-2.054-1.543a1.906 1.906 0 0 1 1.03-1.54 1.781 1.781 0 0 1-.5-1.13A1.4 1.4 0 0 1 12.5 10z" data-name="Path 444" transform="translate(80 356)" style="fill:#3737b6"/>
        <path id="prefix__Rectangle_1052" d="M0 0H24V24H0z" data-name="Rectangle 1052" transform="translate(78 354)" style="fill:none"/>
    </g>
</svg>
