<svg xmlns="http://www.w3.org/2000/svg" xmlns:xlink="http://www.w3.org/1999/xlink" width="42" height="20.183" viewBox="0 0 42 20.183">
    <defs>
        <linearGradient id="prefix__linear-gradient" x1=".406" x2=".594" y1="1.238" y2="-.215" gradientUnits="objectBoundingBox">
            <stop offset="0" stop-color="#f8e643"/>
            <stop offset="1" stop-color="#bfa233"/>
        </linearGradient>
        <linearGradient id="prefix__linear-gradient-2" x1=".409" x2=".591" y1="-.225" y2="1.251" xlink:href="#prefix__linear-gradient"/>
        <linearGradient id="prefix__linear-gradient-3" x1=".411" x2=".589" y1="1.263" y2="-.234" xlink:href="#prefix__linear-gradient"/>
    </defs>
    <g id="prefix__XMLID_1_" transform="translate(-70 -163.5)">
        <path id="prefix__XMLID_20_" d="M72.835 163.5c-.42 2.217-1.1 2.508-2.835 2.835v14.513c1.738.233 2.8 1.1 2.835 2.835h36.33a3.058 3.058 0 0 1 2.835-2.835v-14.513a2.726 2.726 0 0 1-2.835-2.835z"/>
        <path id="prefix__XMLID_19_" d="M89.367 174.9c-.385 1.925-.992 2.182-2.567 2.462v12.6c1.575.2 2.543.957 2.567 2.462H122.3a2.71 2.71 0 0 1 2.567-2.462v-12.6a2.418 2.418 0 0 1-2.567-2.462z" transform="translate(-14.84 -10.07)"/>
        <path id="prefix__XMLID_18_" d="M93.408 179.5c-.373 1.808-.968 2.042-2.508 2.31v11.83c1.54.187 2.473.9 2.508 2.31h32.118a2.6 2.6 0 0 1 2.508-2.31v-11.83a2.324 2.324 0 0 1-2.508-2.31z" transform="translate(-18.462 -14.133)"/>
        <path id="prefix__Path_37" d="M150.592 209.922a2.268 2.268 0 0 1-1.038-.245 2.643 2.643 0 0 1-.642-.467l-.1.408-.035.14h-3.027V197.8h3.243v2.508a1.984 1.984 0 0 1 .548-.35 2.407 2.407 0 0 1 1.038-.222 2.937 2.937 0 0 1 1.108.2 1.729 1.729 0 0 1 .747.583 1.8 1.8 0 0 1 .3.735 12.156 12.156 0 0 1 .047 1.4v4.27a6.156 6.156 0 0 1-.152 1.61 1.826 1.826 0 0 1-.723.98 2.138 2.138 0 0 1-1.318.408zm-1.33-8.155c-.152 0-.175.058-.187.082a2.924 2.924 0 0 0-.07.922v4.1a2.622 2.622 0 0 0 .082.91c.023.058.058.1.2.1s.175-.058.187-.1a3.859 3.859 0 0 0 .07-1v-3.99a2.538 2.538 0 0 0-.082-.887c-.023-.082-.07-.128-.2-.128zm-7.537 7.992h-3.978V197.8h2.427a13.89 13.89 0 0 1 3 .21 2.461 2.461 0 0 1 1.26.712 2.194 2.194 0 0 1 .537 1.108 15.129 15.129 0 0 1 .1 2.24v4.072a9.416 9.416 0 0 1-.152 2.135 1.784 1.784 0 0 1-.572.922 2.537 2.537 0 0 1-.98.455 10.748 10.748 0 0 1-1.645.105zm-.607-9.637v7.28c.245-.023.408-.082.455-.163a3.635 3.635 0 0 0 .128-1.342v-4.515a5.3 5.3 0 0 0-.047-.968.31.31 0 0 0-.14-.21.835.835 0 0 0-.4-.082zm-4.212 9.637h-2.986v-.175l-.012-5.18-.7 5.2-.023.152H131l-.023-.152-.747-5.2-.012 5.18v.175h-2.987V197.8h4.235l.023.152.117.84c.07.5.152 1.038.233 1.633l.245 1.657.525-4.118.023-.152h4.27v11.947zm-10.535 0H123V197.8h3.372v11.958z" data-name="Path 37" transform="translate(-46.817 -30.298)" style="fill:#fff"/>
        <path id="prefix__XMLID_11_" d="M0 0H3.022V11.608H0z" transform="translate(76.358 167.665)"/>
        <path id="prefix__XMLID_10_" d="M170.022 199.2v11.608h-2.637l-.012-7.84-1.05 7.84h-1.878l-1.1-7.665-.012 7.665H160.7V199.2h3.908c.1.7.222 1.528.362 2.473l.432 2.952.7-5.425z" transform="translate(-80.118 -31.535)"/>
        <path id="prefix__Path_38" d="M253.833 201.183v7.653c.432 0 .7-.082.793-.268a4.01 4.01 0 0 0 .152-1.423v-4.515a6.119 6.119 0 0 0-.047-1.015.479.479 0 0 0-.222-.327 1.525 1.525 0 0 0-.677-.105m-3.022-1.983h2.252a14.426 14.426 0 0 1 2.952.2 2.24 2.24 0 0 1 1.167.665 2.073 2.073 0 0 1 .5 1.027 14.743 14.743 0 0 1 .105 2.217v4.072a8.927 8.927 0 0 1-.152 2.088 1.553 1.553 0 0 1-.513.828 2.209 2.209 0 0 1-.9.42 8 8 0 0 1-1.622.117h-3.8l.012-11.632z" data-name="Path 38" transform="translate(-159.707 -31.535)"/>
        <path id="prefix__Path_39" d="M323.568 204.007a3.182 3.182 0 0 0-.093-.957.357.357 0 0 0-.373-.222.349.349 0 0 0-.35.2 3.344 3.344 0 0 0-.082.992v4.1a3.207 3.207 0 0 0 .093.98.348.348 0 0 0 .362.21.342.342 0 0 0 .362-.222 3.9 3.9 0 0 0 .082-1.062v-4.013zm-.887-4.807v2.765a2.408 2.408 0 0 1 .8-.63 2.206 2.206 0 0 1 .957-.21 2.579 2.579 0 0 1 1.038.187 1.522 1.522 0 0 1 .665.525 1.631 1.631 0 0 1 .28.665 11.411 11.411 0 0 1 .047 1.377v4.282a6.462 6.462 0 0 1-.14 1.563 1.645 1.645 0 0 1-.653.887 2.086 2.086 0 0 1-1.225.373 2.06 2.06 0 0 1-.957-.222 2.425 2.425 0 0 1-.8-.677l-.187.723H319.8V199.2z" data-name="Path 39" transform="translate(-220.657 -31.535)"/>
        <path id="prefix__Path_40" d="M381.023 204.152h.117c.128 0 .245-.047.245-.163 0-.082-.058-.175-.245-.175a.36.36 0 0 0-.117.012zm0 .548h-.152v-.98a1.8 1.8 0 0 1 .28-.023.574.574 0 0 1 .3.07.233.233 0 0 1 .093.2.229.229 0 0 1-.187.233v.012c.082.012.14.093.163.245a1.192 1.192 0 0 0 .058.245h-.163a.789.789 0 0 1-.07-.245.181.181 0 0 0-.21-.175h-.105l-.012.42zm.163-1.26a.748.748 0 0 0 .012 1.493.713.713 0 0 0 .7-.747.723.723 0 0 0-.712-.747zm0-.14a.887.887 0 1 1-.887.887.9.9 0 0 1 .887-.887z" data-name="Path 40" transform="translate(-274.098 -35.157)"/>
    </g>
</svg>
